<svg width="44" height="45" viewBox="0 0 44 45" fill="none" xmlns="http://www.w3.org/2000/svg">
<rect width="44" height="45" rx="8" fill="white"/>
<g clip-path="url(#clip0_15810_7803)">
<path d="M36.0003 22.8475C36.0003 21.8704 35.9069 20.8617 35.7514 19.916H22.2803V25.4954H29.9958C29.6847 27.2921 28.6581 28.8682 27.1336 29.8769L31.7381 33.5019C34.4447 30.9486 36.0003 27.2291 36.0003 22.8475Z" fill="#4280EF"/>
<path d="M22.28 36.9677C26.1377 36.9677 29.3733 35.6753 31.7377 33.4688L27.1333 29.8753C25.8577 30.7579 24.2089 31.2623 22.28 31.2623C18.5466 31.2623 15.4044 28.709 14.2533 25.3047L9.52441 28.9927C11.9511 33.8786 16.8666 36.9677 22.28 36.9677Z" fill="#34A353"/>
<path d="M14.2534 25.2733C13.6623 23.4765 13.6623 21.5222 14.2534 19.7254L9.52448 16.0059C7.50226 20.1037 7.50226 24.9265 9.52448 28.9928L14.2534 25.2733Z" fill="#F6B704"/>
<path d="M22.28 13.7688C24.3022 13.7372 26.2933 14.5253 27.7555 15.9438L31.8311 11.7829C29.2489 9.32419 25.8266 8.00028 22.28 8.0318C16.8666 8.0318 11.9511 11.1209 9.52441 16.0068L14.2533 19.7264C15.4044 16.2905 18.5466 13.7688 22.28 13.7688Z" fill="#E54335"/>
</g>
<defs>
<clipPath id="clip0_15810_7803">
<rect width="28" height="29" fill="white" transform="translate(8 8)"/>
</clipPath>
</defs>
</svg>
