<svg width="45" height="44" viewBox="0 0 45 44" fill="none" xmlns="http://www.w3.org/2000/svg">
<rect width="45" height="44" rx="8" fill="white"/>
<path fill-rule="evenodd" clip-rule="evenodd" d="M33.8107 20.399C33.9483 20.6338 33.9933 20.9009 34.0082 21.2012L34.0277 21.6014V24.4003L34.0477 24.8009C34.0876 25.4553 34.5756 25.9391 35.2424 25.9803L35.6455 26V21.6014L35.6654 21.2012C35.682 20.9042 35.7266 20.6321 35.8663 20.3956C36.0087 20.1531 36.2131 19.9519 36.459 19.8122C36.7049 19.6725 36.9836 19.5992 37.2672 19.5997C37.5508 19.6002 37.8293 19.6745 38.0747 19.8151C38.3201 19.9557 38.5237 20.1576 38.6652 20.4007C38.8028 20.6354 38.8457 20.9076 38.8623 21.2012L38.8822 21.6002V24.4003L38.9022 24.8009C38.9438 25.4586 39.428 25.9425 40.0969 25.9803L40.5 26V21.2012C40.5 20.3526 40.1592 19.5388 39.5525 18.9386C38.9459 18.3385 38.123 18.0012 37.2649 18.0008C36.8056 18.0004 36.3515 18.0968 35.933 18.2837C35.5144 18.4707 35.141 18.7438 34.8377 19.0848C34.5342 18.7439 34.1608 18.4709 33.7422 18.2839C33.3237 18.0969 32.8697 18.0003 32.4104 18.0004C31.7385 18.0004 31.115 18.202 30.5985 18.5502C30.2834 18.2024 29.5784 18.0004 29.1736 18.0004V26L29.5784 25.9803C30.2554 25.9362 30.7446 25.4654 30.771 24.8009L30.7926 24.4003V21.6014L30.8126 21.2012C30.8296 20.8992 30.8721 20.6338 31.0101 20.3973C31.1526 20.1549 31.3569 19.9538 31.6026 19.8139C31.8483 19.674 32.1269 19.6003 32.4104 19.6002C32.6941 19.6002 32.9729 19.6741 33.2186 19.8143C33.4644 19.9545 33.6686 20.1561 33.8107 20.399ZM6.11775 25.9807L6.52251 26H12.5896L12.5697 25.601C12.5149 24.9433 12.0439 24.4628 11.3766 24.42L10.9719 24.4003H7.33202L12.1849 19.5997L12.1649 19.2012C12.1335 18.5368 11.6425 18.0567 10.9719 18.0202L10.5671 18.0021L4.5 18.0004L4.51996 18.4007C4.57305 19.0521 5.05086 19.5426 5.71257 19.5804L6.11775 19.6002H9.75759L4.90476 24.4007L4.92472 24.8009C4.96464 25.4603 5.44585 25.9378 6.11775 25.9803V25.9807ZM27.5856 19.1714C27.9612 19.5428 28.2592 19.9837 28.4626 20.469C28.6659 20.9543 28.7705 21.4745 28.7705 21.9998C28.7705 22.5251 28.6659 23.0453 28.4626 23.5306C28.2592 24.0159 27.9612 24.4568 27.5856 24.8282C26.8266 25.5781 25.7976 25.9994 24.7247 25.9994C23.6518 25.9994 22.6227 25.5781 21.8638 24.8282C20.2842 23.2663 20.2842 20.7333 21.8638 19.1714C22.2391 18.8001 22.6847 18.5055 23.1751 18.3046C23.6656 18.1036 24.1912 18.0001 24.7221 18C25.2539 17.9996 25.7805 18.1029 26.2718 18.304C26.7632 18.5051 27.2096 18.7999 27.5856 19.1718V19.1714ZM26.441 20.3041C26.8959 20.7543 27.1515 21.3648 27.1515 22.0013C27.1515 22.6378 26.8959 23.2482 26.441 23.6984C25.9857 24.1483 25.3683 24.4011 24.7247 24.4011C24.081 24.4011 23.4637 24.1483 23.0084 23.6984C22.5534 23.2482 22.2979 22.6378 22.2979 22.0013C22.2979 21.3648 22.5534 20.7543 23.0084 20.3041C23.4637 19.8542 24.081 19.6015 24.7247 19.6015C25.3683 19.6015 25.9857 19.8542 26.441 20.3041ZM16.2329 18C16.7638 18.0001 17.2895 18.1037 17.7799 18.3047C18.2703 18.5058 18.7159 18.8004 19.0912 19.1718C20.6712 20.7333 20.6712 23.2667 19.0912 24.8282C18.3322 25.5781 17.3032 25.9994 16.2303 25.9994C15.1574 25.9994 14.1284 25.5781 13.3694 24.8282C11.7899 23.2663 11.7899 20.7333 13.3694 19.1714C13.7447 18.8001 14.1903 18.5055 14.6808 18.3046C15.1712 18.1036 15.6969 18.0001 16.2278 18H16.2329ZM17.9466 20.3032C18.4017 20.7535 18.6573 21.364 18.6573 22.0006C18.6573 22.6372 18.4017 23.2478 17.9466 23.698C17.4913 24.1479 16.874 24.4006 16.2303 24.4006C15.5866 24.4006 14.9693 24.1479 14.514 23.698C14.0591 23.2478 13.8035 22.6373 13.8035 22.0008C13.8035 21.3643 14.0591 20.7539 14.514 20.3037C14.9693 19.8538 15.5866 19.601 16.2303 19.601C16.874 19.601 17.4913 19.8538 17.9466 20.3037V20.3032Z" fill="#2D8CFF"/>
</svg>
