<svg width="13" height="15" viewBox="0 0 13 15" fill="none" xmlns="http://www.w3.org/2000/svg">
<path d="M12.0306 4.47L8.53063 0.97C8.46097 0.900261 8.37826 0.844936 8.28721 0.807186C8.19616 0.769437 8.09856 0.750005 8 0.75H2C1.66848 0.75 1.35054 0.881696 1.11612 1.11612C0.881696 1.35054 0.75 1.66848 0.75 2V13C0.75 13.3315 0.881696 13.6495 1.11612 13.8839C1.35054 14.1183 1.66848 14.25 2 14.25H11C11.3315 14.25 11.6495 14.1183 11.8839 13.8839C12.1183 13.6495 12.25 13.3315 12.25 13V5C12.25 4.80124 12.1711 4.61062 12.0306 4.47ZM8.5 3.0625L9.9375 4.5H8.5V3.0625ZM2.25 12.75V2.25H7V5.25C7 5.44891 7.07902 5.63968 7.21967 5.78033C7.36032 5.92098 7.55109 6 7.75 6H10.75V12.75H2.25ZM9.25 7.75C9.25 7.94891 9.17098 8.13968 9.03033 8.28033C8.88968 8.42098 8.69891 8.5 8.5 8.5H4.5C4.30109 8.5 4.11032 8.42098 3.96967 8.28033C3.82902 8.13968 3.75 7.94891 3.75 7.75C3.75 7.55109 3.82902 7.36032 3.96967 7.21967C4.11032 7.07902 4.30109 7 4.5 7H8.5C8.69891 7 8.88968 7.07902 9.03033 7.21967C9.17098 7.36032 9.25 7.55109 9.25 7.75ZM9.25 10.25C9.25 10.4489 9.17098 10.6397 9.03033 10.7803C8.88968 10.921 8.69891 11 8.5 11H4.5C4.30109 11 4.11032 10.921 3.96967 10.7803C3.82902 10.6397 3.75 10.4489 3.75 10.25C3.75 10.0511 3.82902 9.86032 3.96967 9.71967C4.11032 9.57902 4.30109 9.5 4.5 9.5H8.5C8.69891 9.5 8.88968 9.57902 9.03033 9.71967C9.17098 9.86032 9.25 10.0511 9.25 10.25Z" fill="url(#paint0_linear_17504_1681)"/>
<defs>
<linearGradient id="paint0_linear_17504_1681" x1="3.33767" y1="9.5551" x2="10.7658" y2="4.76753" gradientUnits="userSpaceOnUse">
<stop stop-color="#483FC5"/>
<stop offset="1" stop-color="#864CEF"/>
</linearGradient>
</defs>
</svg>
