<svg width="16" height="16" viewBox="0 0 16 16" fill="none" xmlns="http://www.w3.org/2000/svg">
<path d="M5.46889 9.47011L9.46889 5.47011C9.53866 5.40034 9.62148 5.345 9.71263 5.30725C9.80378 5.26949 9.90148 5.25006 10.0001 5.25006C10.0988 5.25006 10.1965 5.26949 10.2877 5.30725C10.3788 5.345 10.4616 5.40034 10.5314 5.47011C10.6012 5.53987 10.6565 5.6227 10.6943 5.71385C10.732 5.805 10.7514 5.9027 10.7514 6.00136C10.7514 6.10002 10.732 6.19772 10.6943 6.28887C10.6565 6.38002 10.6012 6.46284 10.5314 6.53261L6.53139 10.5326C6.39049 10.6735 6.1994 10.7527 6.00014 10.7527C5.80088 10.7527 5.60979 10.6735 5.46889 10.5326C5.32799 10.3917 5.24884 10.2006 5.24884 10.0014C5.24884 9.8021 5.32799 9.61101 5.46889 9.47011ZM13.6564 2.34511C12.9524 1.64274 11.9986 1.24829 11.0042 1.24829C10.0098 1.24829 9.05597 1.64274 8.35202 2.34511L6.46952 4.22573C6.32862 4.36663 6.24946 4.55773 6.24946 4.75698C6.24946 4.85565 6.2689 4.95334 6.30665 5.0445C6.34441 5.13565 6.39975 5.21847 6.46952 5.28823C6.53928 5.358 6.6221 5.41334 6.71325 5.4511C6.80441 5.48885 6.9021 5.50829 7.00077 5.50829C7.20002 5.50829 7.39112 5.42913 7.53202 5.28823L9.41139 3.40948C9.83342 2.98738 10.4058 2.75021 11.0027 2.75015C11.5996 2.75009 12.1721 2.98715 12.5942 3.40917C13.0163 3.8312 13.2535 4.40362 13.2535 5.00051C13.2536 5.59741 13.0165 6.16988 12.5945 6.59198L10.7126 8.47011C10.6429 8.53987 10.5875 8.6227 10.5498 8.71385C10.512 8.805 10.4926 8.9027 10.4926 9.00136C10.4926 9.10002 10.512 9.19772 10.5498 9.28887C10.5875 9.38002 10.6429 9.46284 10.7126 9.53261C10.7824 9.60237 10.8652 9.65771 10.9564 9.69547C11.0475 9.73323 11.1452 9.75266 11.2439 9.75266C11.3426 9.75266 11.4402 9.73323 11.5314 9.69547C11.6226 9.65771 11.7054 9.60237 11.7751 9.53261L13.6551 7.65386C14.3579 6.94947 14.7524 5.99502 14.752 5.00003C14.7517 4.00505 14.3565 3.05087 13.6533 2.34698L13.6564 2.34511ZM8.47014 10.7126L6.59076 12.5926C6.38176 12.8016 6.13364 12.9673 5.86057 13.0804C5.58751 13.1935 5.29485 13.2517 4.99929 13.2516C4.70374 13.2516 4.41109 13.1934 4.13805 13.0802C3.86501 12.9671 3.61692 12.8013 3.40795 12.5923C2.98593 12.1702 2.74887 11.5977 2.74893 11.0008C2.74899 10.4039 2.98616 9.83151 3.40827 9.40948L5.28701 7.53011C5.35678 7.46035 5.41212 7.37752 5.44988 7.28637C5.48763 7.19522 5.50707 7.09752 5.50707 6.99886C5.50707 6.9002 5.48763 6.8025 5.44988 6.71135C5.41212 6.6202 5.35678 6.53737 5.28701 6.46761C5.21725 6.39785 5.13443 6.3425 5.04328 6.30475C4.95212 6.26699 4.85443 6.24756 4.75577 6.24756C4.6571 6.24756 4.55941 6.26699 4.46825 6.30475C4.3771 6.3425 4.29428 6.39785 4.22452 6.46761L2.34702 8.34886C1.99873 8.69719 1.72245 9.11071 1.53398 9.56581C1.3455 10.0209 1.24851 10.5087 1.24854 11.0013C1.24859 11.9961 1.64384 12.9501 2.34733 13.6535C3.05081 14.357 4.00491 14.7521 4.99974 14.752C5.99456 14.752 6.94861 14.3567 7.65202 13.6532L9.53077 11.7739C9.67166 11.633 9.75082 11.4419 9.75082 11.2426C9.75082 11.0434 9.67166 10.8523 9.53077 10.7114C9.38987 10.5705 9.19877 10.4913 8.99952 10.4913C8.80026 10.4913 8.60916 10.5705 8.46827 10.7114L8.47014 10.7126Z" fill="white"/>
</svg>
