<svg width="15" height="17" viewBox="0 0 15 17" fill="none" xmlns="http://www.w3.org/2000/svg">
<path d="M14.1922 4.93281L9.81719 0.557813C9.7591 0.499791 9.69015 0.453782 9.61428 0.422415C9.53841 0.391047 9.4571 0.374936 9.375 0.375H1.875C1.54348 0.375 1.22554 0.506696 0.991116 0.741117C0.756696 0.975537 0.625 1.29348 0.625 1.625V15.375C0.625 15.7065 0.756696 16.0245 0.991116 16.2589C1.22554 16.4933 1.54348 16.625 1.875 16.625H13.125C13.4565 16.625 13.7745 16.4933 14.0089 16.2589C14.2433 16.0245 14.375 15.7065 14.375 15.375V5.375C14.3751 5.2929 14.359 5.21159 14.3276 5.13572C14.2962 5.05985 14.2502 4.9909 14.1922 4.93281ZM10 2.50859L12.2414 4.75H10V2.50859ZM13.125 15.375H1.875V1.625H8.75V5.375C8.75 5.54076 8.81585 5.69973 8.93306 5.81694C9.05027 5.93415 9.20924 6 9.375 6H13.125V15.375ZM10.625 9.125C10.625 9.29076 10.5592 9.44973 10.4419 9.56694C10.3247 9.68415 10.1658 9.75 10 9.75H5C4.83424 9.75 4.67527 9.68415 4.55806 9.56694C4.44085 9.44973 4.375 9.29076 4.375 9.125C4.375 8.95924 4.44085 8.80027 4.55806 8.68306C4.67527 8.56585 4.83424 8.5 5 8.5H10C10.1658 8.5 10.3247 8.56585 10.4419 8.68306C10.5592 8.80027 10.625 8.95924 10.625 9.125ZM10.625 11.625C10.625 11.7908 10.5592 11.9497 10.4419 12.0669C10.3247 12.1842 10.1658 12.25 10 12.25H5C4.83424 12.25 4.67527 12.1842 4.55806 12.0669C4.44085 11.9497 4.375 11.7908 4.375 11.625C4.375 11.4592 4.44085 11.3003 4.55806 11.1831C4.67527 11.0658 4.83424 11 5 11H10C10.1658 11 10.3247 11.0658 10.4419 11.1831C10.5592 11.3003 10.625 11.4592 10.625 11.625Z" fill="white"/>
</svg>
