<svg width="14" height="15" viewBox="0 0 14 15" fill="none" xmlns="http://www.w3.org/2000/svg">
<path d="M4.4684 8.96986L8.4684 4.96987C8.53817 4.9001 8.62099 4.84476 8.71214 4.807C8.80329 4.76925 8.90099 4.74981 8.99965 4.74981C9.09831 4.74981 9.19601 4.76925 9.28716 4.807C9.37831 4.84476 9.46114 4.9001 9.5309 4.96987C9.60067 5.03963 9.65601 5.12245 9.69376 5.2136C9.73152 5.30476 9.75095 5.40245 9.75095 5.50112C9.75095 5.59978 9.73152 5.69747 9.69376 5.78863C9.65601 5.87978 9.60067 5.9626 9.5309 6.03237L5.5309 10.0324C5.39001 10.1733 5.19891 10.2524 4.99965 10.2524C4.80039 10.2524 4.6093 10.1733 4.4684 10.0324C4.32751 9.89147 4.24835 9.70037 4.24835 9.50111C4.24835 9.30186 4.32751 9.11076 4.4684 8.96986ZM12.6559 1.84487C11.9519 1.1425 10.9981 0.748047 10.0037 0.748047C9.0093 0.748047 8.05548 1.1425 7.35153 1.84487L5.46903 3.72549C5.32813 3.86639 5.24898 4.05748 5.24898 4.25674C5.24898 4.3554 5.26841 4.4531 5.30617 4.54425C5.34392 4.6354 5.39926 4.71823 5.46903 4.78799C5.53879 4.85776 5.62161 4.9131 5.71277 4.95085C5.80392 4.98861 5.90162 5.00804 6.00028 5.00804C6.19953 5.00804 6.39063 4.92889 6.53153 4.78799L8.4109 2.90924C8.83293 2.48713 9.40535 2.24996 10.0022 2.2499C10.5991 2.24984 11.1716 2.4869 11.5937 2.90893C12.0158 3.33095 12.253 3.90338 12.2531 4.50027C12.2531 5.09716 12.0161 5.66963 11.594 6.09174L9.71215 7.96987C9.64239 8.03963 9.58705 8.12245 9.54929 8.2136C9.51153 8.30476 9.4921 8.40245 9.4921 8.50112C9.4921 8.59978 9.51153 8.69747 9.54929 8.78862C9.58705 8.87978 9.64239 8.9626 9.71215 9.03236C9.78192 9.10213 9.86474 9.15747 9.95589 9.19523C10.047 9.23298 10.1447 9.25242 10.2434 9.25242C10.3421 9.25242 10.4398 9.23298 10.5309 9.19523C10.6221 9.15747 10.7049 9.10213 10.7747 9.03236L12.6547 7.15362C13.3574 6.44923 13.7519 5.49477 13.7515 4.49979C13.7512 3.50481 13.356 2.55063 12.6528 1.84674L12.6559 1.84487ZM7.46965 10.2124L5.59028 12.0924C5.38127 12.3013 5.13315 12.4671 4.86009 12.5802C4.58702 12.6932 4.29436 12.7514 3.99881 12.7514C3.70325 12.7514 3.4106 12.6931 3.13756 12.58C2.86452 12.4669 2.61643 12.3011 2.40746 12.0921C1.98544 11.6699 1.74838 11.0975 1.74844 10.5006C1.7485 9.90369 1.98567 9.33127 2.40778 8.90924L4.28653 7.02987C4.35629 6.9601 4.41163 6.87728 4.44939 6.78613C4.48714 6.69497 4.50658 6.59728 4.50658 6.49862C4.50658 6.39995 4.48714 6.30226 4.44939 6.2111C4.41163 6.11995 4.35629 6.03713 4.28653 5.96737C4.21676 5.8976 4.13394 5.84226 4.04279 5.8045C3.95164 5.76675 3.85394 5.74731 3.75528 5.74731C3.65661 5.74731 3.55892 5.76675 3.46777 5.8045C3.37661 5.84226 3.29379 5.8976 3.22403 5.96737L1.34653 7.84862C0.998237 8.19695 0.721966 8.61047 0.533489 9.06557C0.345011 9.52067 0.248018 10.0084 0.248047 10.501C0.248105 11.4958 0.643353 12.4499 1.34684 13.1533C2.05033 13.8567 3.00443 14.2518 3.99925 14.2518C4.99407 14.2517 5.94812 13.8565 6.65153 13.153L8.53028 11.2736C8.67117 11.1327 8.75033 10.9416 8.75033 10.7424C8.75033 10.5431 8.67117 10.352 8.53028 10.2111C8.38938 10.0702 8.19828 9.99106 7.99903 9.99106C7.79977 9.99106 7.60867 10.0702 7.46778 10.2111L7.46965 10.2124Z" fill="url(#paint0_linear_17504_1340)"/>
<defs>
<linearGradient id="paint0_linear_17504_1340" x1="3.28653" y1="9.55558" x2="11.1377" y2="3.61542" gradientUnits="userSpaceOnUse">
<stop stop-color="#483FC5"/>
<stop offset="1" stop-color="#864CEF"/>
</linearGradient>
</defs>
</svg>
