<svg width="198" height="18" viewBox="0 0 198 18" fill="none" xmlns="http://www.w3.org/2000/svg">
<path d="M89.5 17.5498V3.83105H91.5025V15.7144H96.2668V17.5498H89.5Z" fill="#3B4CBF"/>
<path d="M129.303 17.5498V3.83105H131.305V17.5498H129.303ZM136.551 17.5498L131.341 10.6348L136.551 3.83105H139.017L133.659 10.6348L139.017 17.5498H136.551Z" fill="#3B4CBF"/>
<path d="M178.549 3.82171V5.65645L175.141 8.44336L174.006 7.06869L175.724 5.65018L172.676 5.64392V17.528H170.673V5.64392H165.683V12.378C165.683 13.603 165.449 14.6102 164.98 15.3981C164.51 16.1874 163.881 16.7735 163.093 17.1577C162.304 17.5419 161.422 17.7347 160.444 17.7347C159.467 17.7347 158.623 17.5419 157.834 17.1577C157.046 16.7735 156.423 16.1874 155.967 15.3981C155.511 14.6102 155.283 13.603 155.283 12.378V3.81545H157.238V12.3975C157.238 13.2188 157.371 13.8933 157.639 14.4209C157.906 14.9485 158.287 15.3396 158.782 15.5937C159.278 15.8477 159.844 15.9751 160.483 15.9751C161.122 15.9751 161.721 15.8477 162.204 15.5937C162.685 15.3396 163.061 14.9485 163.328 14.4209C163.595 13.8933 163.728 13.2188 163.728 12.3975V3.81545H165.54V3.80918L175.756 3.81893L174.006 2.37466L175.141 1L178.549 3.82171Z" fill="#3B4CBF"/>
<path d="M191.753 17.5498L190.233 13.508H185.301L183.781 17.5498H181.668L186.878 3.83105H188.676L193.886 17.5498H191.754H191.753ZM187.804 6.42655H187.767L186.006 11.6732H189.547L187.804 6.42655Z" fill="#3B4CBF"/>
<path d="M119.736 3.57178C116.434 3.57178 113.595 5.81439 112.846 9.10035C112.538 8.95906 112.216 8.88737 111.882 8.88737C111.588 8.88737 111.314 8.94444 111.066 9.03145C110.351 5.94107 107.557 3.57178 104.052 3.57178C100.196 3.57178 96.9697 6.63083 96.9697 10.839C96.9697 14.5468 100.196 17.8098 103.996 17.8098C108.038 17.8098 111.245 14.7507 111.245 10.5982C111.245 10.4033 111.237 10.2098 111.221 10.0184C111.419 9.92724 111.644 9.86181 111.883 9.86181H111.888C112.159 9.8632 112.426 9.9516 112.686 10.1256C112.665 10.3595 112.654 10.5968 112.654 10.839C112.654 14.5468 115.88 17.8098 119.681 17.8098C123.722 17.8098 126.93 14.7507 126.93 10.5982C126.93 6.77909 123.815 3.57178 119.736 3.57178H119.736ZM104.108 15.9744C100.975 15.9744 98.9722 13.3976 98.9722 10.6351C98.9722 8.59573 100.492 5.40721 104.2 5.40721C107.092 5.40721 109.243 7.89135 109.243 10.7277C109.243 13.2306 107.352 15.9744 104.108 15.9744ZM119.791 15.9744C116.658 15.9744 114.656 13.3976 114.656 10.6351C114.656 8.59573 116.176 5.40721 119.884 5.40721C122.776 5.40721 124.927 7.89135 124.927 10.7277C124.927 13.2306 123.035 15.9744 119.791 15.9744Z" fill="url(#paint0_linear_16598_269342)"/>
<path d="M153.163 16.2904L151.375 14.4166C152.244 13.28 152.756 11.8399 152.756 10.2251C152.756 6.60856 149.807 3.57178 145.945 3.57178C142.293 3.57178 139.238 6.46866 139.238 10.4534C139.238 13.9642 142.293 17.0546 145.892 17.0546C147.48 17.0546 148.933 16.5548 150.088 15.6897L151.853 17.5397C152.031 17.7263 152.269 17.8202 152.508 17.8202C152.732 17.8202 152.958 17.7374 153.132 17.5704C153.494 17.2251 153.508 16.6523 153.162 16.291L153.163 16.2904ZM141.134 10.2606C141.134 8.32985 142.574 5.30977 146.085 5.30977C148.824 5.30977 150.861 7.66235 150.861 10.3483C150.861 12.7183 149.07 15.3166 145.997 15.3166C142.925 15.3166 141.134 12.8763 141.134 10.2606Z" fill="url(#paint1_linear_16598_269342)"/>
<path d="M124.088 11.0042C124.084 11.0042 124.081 11.0042 124.076 11.0042C123.98 10.9979 123.907 10.9158 123.914 10.8197C124.041 8.78316 122.627 6.94563 120.627 6.54611C119.135 6.24821 117.609 6.79529 116.647 7.97576C116.586 8.05024 116.477 8.06137 116.402 8.00082C116.327 7.94026 116.316 7.83029 116.377 7.75581C117.42 6.47581 119.075 5.8814 120.694 6.20506C122.865 6.63869 124.398 8.63212 124.26 10.842C124.255 10.9346 124.178 11.0049 124.087 11.0049L124.088 11.0042Z" fill="url(#paint2_linear_16598_269342)"/>
<path d="M150.028 10.5347C150.024 10.5347 150.021 10.5347 150.017 10.5347C149.921 10.5284 149.847 10.4463 149.854 10.3502C149.975 8.40413 148.624 6.64804 146.712 6.26522C145.286 5.97985 143.828 6.50327 142.909 7.63153C142.848 7.70601 142.738 7.71715 142.664 7.65659C142.589 7.59604 142.578 7.48606 142.639 7.41159C143.64 6.18379 145.226 5.61374 146.78 5.92417C148.863 6.3404 150.333 8.25239 150.2 10.3718C150.195 10.4644 150.118 10.5347 150.027 10.5347H150.028Z" fill="url(#paint3_linear_16598_269342)"/>
<path d="M124.043 11.6526C124.155 11.6526 124.246 11.5616 124.246 11.4493C124.246 11.3371 124.155 11.2461 124.043 11.2461C123.931 11.2461 123.84 11.3371 123.84 11.4493C123.84 11.5616 123.931 11.6526 124.043 11.6526Z" fill="url(#paint4_linear_16598_269342)"/>
<path d="M197.5 3.82129V4.39551C197.5 5.18412 196.86 5.82307 196.071 5.82307H195.497V3.82129H197.5Z" fill="#3B4CBF"/>
<path d="M196.071 5.8231H197.5V17.5498H195.497V3.83105H197.5V4.39554C197.5 5.18414 196.86 5.8231 196.071 5.8231Z" fill="#3B4CBF"/>
<path d="M197.5 3.82129H195.497V3.83103H197.5V3.82129Z" fill="#3B4CBF"/>
<path fill-rule="evenodd" clip-rule="evenodd" d="M26.1346 0C25.3676 0 24.8489 0.55348 24.8489 1.37567V6.33127C24.0862 5.61095 23.0771 5.20941 22.028 5.20889C18.563 5.20889 16.7501 8.42434 16.7501 11.598C16.7501 14.7704 18.563 17.9839 22.028 17.9839C23.2854 17.9839 24.2426 17.6175 24.9003 16.9085C25.0128 17.5545 25.4673 17.9839 26.1346 17.9839C26.9009 17.9839 27.4177 17.4311 27.4177 16.607V1.37567C27.4177 0.55348 26.9009 0 26.1346 0ZM19.3151 11.598C19.3151 9.73251 20.0673 7.55909 22.1836 7.55909C24.3011 7.55909 25.0475 9.73187 25.0475 11.598C25.0475 13.4622 24.3011 15.6324 22.1836 15.6324C20.0666 15.6324 19.3151 13.4629 19.3151 11.598ZM57.0232 7.55909C57.6982 7.55909 58.0556 7.73265 58.3976 7.90429C58.6805 8.04314 58.9679 8.18328 59.3594 8.18328C60.0215 8.18328 60.4631 7.58544 60.4631 7.03068C60.4631 5.94236 59.0823 5.20889 57.0239 5.20889C53.1796 5.20889 51.4599 8.41856 51.4599 11.598C51.4599 14.7768 53.1802 17.9839 57.0232 17.9839C59.2372 17.9839 60.3982 17.0454 60.3982 16.1184C60.3982 15.4293 59.9701 14.9665 59.3369 14.9665C59.0103 14.9665 58.7621 15.0995 58.4986 15.241C58.145 15.4254 57.7548 15.6324 57.0232 15.6324C54.6562 15.6324 54.0256 13.0965 54.0256 11.598C54.0256 10.097 54.6556 7.55909 57.0232 7.55909ZM11.1496 2.52184C10.9541 2.00114 10.5967 1.05489 9.4865 1.05489C8.38464 1.05489 8.0375 1.95293 7.82986 2.49355C7.82214 2.51027 5.99321 7.51409 4.55579 11.4392H1.80436C0.843929 11.4392 0.5 12.0596 0.5 12.5906C0.5 13.1434 0.845214 13.7348 1.805 13.7348H3.72264C3.21414 15.115 2.87214 16.0516 2.87214 16.0516C2.78729 16.2624 2.69021 16.6057 2.69021 16.8873C2.69021 17.4414 3.09393 18 3.86729 18C4.67921 18 4.94279 17.4574 5.13371 17.0647L5.17743 16.9766L6.20343 14.1301L6.34293 13.7361H9.51286C10.4765 13.7361 10.8198 13.144 10.8198 12.5912C10.8198 12.0602 10.4765 11.4405 9.51286 11.4405H7.16643C7.77843 9.7383 8.87707 6.6874 9.48714 4.99804C10.1364 6.80247 12.2431 12.6677 12.2476 12.6696C12.2476 12.6741 12.7625 14.125 12.7625 14.125C12.7625 14.1301 13.7789 16.9509 13.7789 16.9509C13.9113 17.2955 14.1736 18 15.098 18C15.8746 18 16.2776 17.4407 16.2776 16.8879C16.2776 16.6057 16.1799 16.2643 16.0867 16.0361C16.0931 16.0516 11.1496 2.52184 11.1496 2.52184ZM46.8378 7.55909C47.5128 7.55909 47.8715 7.73265 48.2122 7.90429C48.4944 8.04314 48.7818 8.18328 49.1739 8.18328C49.8354 8.18328 50.2777 7.58544 50.2777 7.03068C50.2777 5.94236 48.8956 5.20889 46.8378 5.20889C42.9954 5.20889 41.2771 8.41856 41.2771 11.598C41.2771 14.7768 42.9954 17.9839 46.8378 17.9839C49.0582 17.9839 50.2173 17.0454 50.2173 16.1184C50.2173 15.4293 49.7904 14.9665 49.1508 14.9665C48.8281 14.9665 48.5748 15.0995 48.3164 15.241C47.9654 15.4254 47.5706 15.6324 46.8378 15.6324C44.474 15.6324 43.844 13.0965 43.844 11.598C43.844 10.097 44.474 7.55909 46.8378 7.55909ZM67.073 5.20889C63.509 5.20889 61.6421 8.42434 61.6421 11.598C61.6421 14.7704 63.509 17.9839 67.073 17.9839C70.6357 17.9839 72.5 14.7698 72.5 11.598C72.5 8.42434 70.6357 5.20889 67.073 5.20889ZM67.073 15.6324C64.9593 15.6324 64.2104 13.4629 64.2104 11.598C64.2104 9.73251 64.9593 7.55909 67.073 7.55909C69.1944 7.55909 69.944 9.73187 69.944 11.598C69.944 13.4622 69.1944 15.6324 67.073 15.6324ZM39.938 11.31C39.938 8.31056 37.9477 5.20953 34.6113 5.20953C30.9772 5.20953 29.0724 8.42434 29.0724 11.598C29.0724 14.5441 30.5555 17.9839 34.7212 17.9839C36.9976 17.9839 39.6937 16.4893 39.6937 15.2275C39.6937 14.4509 39.1679 14.0318 38.6754 14.0318C38.3167 14.0318 38.0146 14.2696 37.6687 14.5441C37.0927 15.0063 36.3007 15.6324 34.745 15.6324C32.9913 15.6324 31.7981 14.4573 31.6625 12.6831H38.543C39.4951 12.6831 39.938 12.246 39.938 11.31ZM31.6619 10.5579C31.766 9.52937 32.2616 7.47038 34.6049 7.55909C36.4756 7.55909 37.2374 9.24781 37.3473 10.5586L31.6619 10.5579Z" fill="#DA291C"/>
<path d="M83.2008 13.2367C83.2624 13.2984 83.297 13.382 83.297 13.4692C83.297 13.5563 83.2624 13.6399 83.2008 13.7016C83.1391 13.7632 83.0555 13.7979 82.9683 13.7979C82.8812 13.7979 82.7976 13.7632 82.7359 13.7016L80.9999 11.965L79.2633 13.701C79.2016 13.7627 79.118 13.7973 79.0308 13.7973C78.9437 13.7973 78.8601 13.7627 78.7984 13.701C78.7368 13.6394 78.7021 13.5558 78.7021 13.4686C78.7021 13.3814 78.7368 13.2978 78.7984 13.2362L80.535 11.5001L78.799 9.76354C78.7373 9.7019 78.7027 9.61829 78.7027 9.53112C78.7027 9.44394 78.7373 9.36034 78.799 9.29869C78.8606 9.23705 78.9442 9.20242 79.0314 9.20242C79.1186 9.20242 79.2022 9.23705 79.2638 9.29869L80.9999 11.0353L82.7365 9.29842C82.7981 9.23678 82.8817 9.20215 82.9689 9.20215C83.0561 9.20215 83.1397 9.23678 83.2013 9.29842C83.263 9.36006 83.2976 9.44367 83.2976 9.53084C83.2976 9.61802 83.263 9.70162 83.2013 9.76326L81.4647 11.5001L83.2008 13.2367Z" fill="url(#paint5_linear_16598_269342)"/>
<defs>
<linearGradient id="paint0_linear_16598_269342" x1="97.6463" y1="-1.28513" x2="123.981" y2="20.7394" gradientUnits="userSpaceOnUse">
<stop stop-color="#263BC7"/>
<stop offset="0.16" stop-color="#483FC5"/>
<stop offset="0.49" stop-color="#864CEF"/>
<stop offset="0.75" stop-color="#327FFF"/>
<stop offset="0.99" stop-color="#005B97"/>
</linearGradient>
<linearGradient id="paint1_linear_16598_269342" x1="139.558" y1="-1.28869" x2="157.869" y2="5.95133" gradientUnits="userSpaceOnUse">
<stop stop-color="#263BC7"/>
<stop offset="0.16" stop-color="#483FC5"/>
<stop offset="0.49" stop-color="#864CEF"/>
<stop offset="0.75" stop-color="#327FFF"/>
<stop offset="0.99" stop-color="#005B97"/>
</linearGradient>
<linearGradient id="paint2_linear_16598_269342" x1="116.517" y1="4.45119" x2="124.883" y2="9.84776" gradientUnits="userSpaceOnUse">
<stop stop-color="#263BC7"/>
<stop offset="0.16" stop-color="#483FC5"/>
<stop offset="0.49" stop-color="#864CEF"/>
<stop offset="0.75" stop-color="#327FFF"/>
<stop offset="0.99" stop-color="#005B97"/>
</linearGradient>
<linearGradient id="paint3_linear_16598_269342" x1="142.771" y1="4.23964" x2="150.803" y2="9.41467" gradientUnits="userSpaceOnUse">
<stop stop-color="#263BC7"/>
<stop offset="0.16" stop-color="#483FC5"/>
<stop offset="0.49" stop-color="#864CEF"/>
<stop offset="0.75" stop-color="#327FFF"/>
<stop offset="0.99" stop-color="#005B97"/>
</linearGradient>
<linearGradient id="paint4_linear_16598_269342" x1="123.931" y1="11.5112" x2="124.168" y2="11.3324" gradientUnits="userSpaceOnUse">
<stop stop-color="#483FC5"/>
<stop offset="1" stop-color="#864CEF"/>
</linearGradient>
<linearGradient id="paint5_linear_16598_269342" x1="79.7362" y1="12.1996" x2="82.4081" y2="10.1781" gradientUnits="userSpaceOnUse">
<stop stop-color="#483FC5"/>
<stop offset="0.5" stop-color="#897BFF"/>
<stop offset="1" stop-color="#C4A3FF"/>
</linearGradient>
</defs>
</svg>
