<svg width="15" height="18" viewBox="0 0 15 18" fill="none" xmlns="http://www.w3.org/2000/svg">
<path d="M7.5 2.625C6.01664 2.625 4.5666 3.06487 3.33323 3.88898C2.09986 4.71309 1.13856 5.88443 0.570907 7.25487C0.00324965 8.62532 -0.145275 10.1333 0.144114 11.5882C0.433503 13.043 1.14781 14.3794 2.1967 15.4283C3.2456 16.4772 4.58197 17.1915 6.03683 17.4809C7.49168 17.7703 8.99968 17.6218 10.3701 17.0541C11.7406 16.4864 12.9119 15.5251 13.736 14.2918C14.5601 13.0584 15 11.6084 15 10.125C14.9977 8.13657 14.2068 6.23024 12.8008 4.82421C11.3948 3.41818 9.48843 2.62727 7.5 2.625ZM7.5 16.375C6.26387 16.375 5.0555 16.0084 4.02769 15.3217C2.99988 14.6349 2.1988 13.6588 1.72576 12.5168C1.25271 11.3747 1.12894 10.1181 1.3701 8.90569C1.61125 7.69331 2.20651 6.57966 3.08059 5.70558C3.95466 4.8315 5.06831 4.23625 6.28069 3.99509C7.49307 3.75393 8.74974 3.87771 9.89178 4.35075C11.0338 4.8238 12.0099 5.62488 12.6967 6.65269C13.3834 7.68049 13.75 8.88887 13.75 10.125C13.7481 11.782 13.0891 13.3707 11.9174 14.5424C10.7457 15.7141 9.15704 16.3731 7.5 16.375ZM11.0672 6.55781C11.1253 6.61586 11.1714 6.68479 11.2029 6.76066C11.2343 6.83654 11.2505 6.91787 11.2505 7C11.2505 7.08214 11.2343 7.16346 11.2029 7.23934C11.1714 7.31521 11.1253 7.38414 11.0672 7.44219L7.94219 10.5672C7.88412 10.6253 7.81518 10.6713 7.73931 10.7027C7.66344 10.7342 7.58213 10.7503 7.5 10.7503C7.41788 10.7503 7.33656 10.7342 7.26069 10.7027C7.18482 10.6713 7.11588 10.6253 7.05782 10.5672C6.99975 10.5091 6.95368 10.4402 6.92226 10.3643C6.89083 10.2884 6.87466 10.2071 6.87466 10.125C6.87466 10.0429 6.89083 9.96156 6.92226 9.88569C6.95368 9.80982 6.99975 9.74088 7.05782 9.68281L10.1828 6.55781C10.2409 6.4997 10.3098 6.4536 10.3857 6.42215C10.4615 6.3907 10.5429 6.37451 10.625 6.37451C10.7071 6.37451 10.7885 6.3907 10.8643 6.42215C10.9402 6.4536 11.0091 6.4997 11.0672 6.55781ZM5 0.75C5 0.58424 5.06585 0.425269 5.18306 0.308058C5.30027 0.190848 5.45924 0.125 5.625 0.125H9.375C9.54076 0.125 9.69974 0.190848 9.81695 0.308058C9.93416 0.425269 10 0.58424 10 0.75C10 0.91576 9.93416 1.07473 9.81695 1.19194C9.69974 1.30915 9.54076 1.375 9.375 1.375H5.625C5.45924 1.375 5.30027 1.30915 5.18306 1.19194C5.06585 1.07473 5 0.91576 5 0.75Z" fill="#323130"/>
</svg>
