<svg width="16" height="16" viewBox="0 0 16 16" fill="none" xmlns="http://www.w3.org/2000/svg">
<path d="M10.3537 5.6465C10.4002 5.69294 10.4371 5.74808 10.4623 5.80878C10.4874 5.86948 10.5004 5.93455 10.5004 6.00025C10.5004 6.06596 10.4874 6.13102 10.4623 6.19172C10.4371 6.25242 10.4002 6.30757 10.3537 6.354L6.35375 10.354C6.30729 10.4005 6.25214 10.4373 6.19144 10.4624C6.13075 10.4876 6.06569 10.5005 6 10.5005C5.9343 10.5005 5.86924 10.4876 5.80855 10.4624C5.74785 10.4373 5.6927 10.4005 5.64625 10.354C5.59979 10.3075 5.56294 10.2524 5.5378 10.1917C5.51266 10.131 5.49972 10.066 5.49972 10.0003C5.49972 9.93456 5.51266 9.8695 5.5378 9.8088C5.56294 9.74811 5.59979 9.69296 5.64625 9.6465L9.64625 5.6465C9.69268 5.60001 9.74783 5.56313 9.80853 5.53797C9.86922 5.51281 9.93429 5.49986 10 5.49986C10.0657 5.49986 10.1308 5.51281 10.1915 5.53797C10.2522 5.56313 10.3073 5.60001 10.3537 5.6465ZM13.475 2.52525C13.15 2.20021 12.7641 1.94237 12.3395 1.76646C11.9148 1.59054 11.4597 1.5 11 1.5C10.5403 1.5 10.0852 1.59054 9.66052 1.76646C9.23586 1.94237 8.85 2.20021 8.52499 2.52525L6.64625 4.40338C6.55242 4.4972 6.49972 4.62445 6.49972 4.75713C6.49972 4.88981 6.55242 5.01706 6.64625 5.11088C6.74007 5.2047 6.86731 5.25741 7 5.25741C7.13268 5.25741 7.25992 5.2047 7.35375 5.11088L9.2325 3.23588C9.70305 2.77566 10.3361 2.51957 10.9943 2.5232C11.6525 2.52682 12.2827 2.78987 12.7481 3.25524C13.2136 3.72061 13.4767 4.35077 13.4805 5.00895C13.4842 5.66714 13.2283 6.30024 12.7681 6.77088L10.8887 8.64963C10.7949 8.74337 10.7422 8.87053 10.7421 9.00316C10.7421 9.13578 10.7947 9.26299 10.8884 9.35682C10.9822 9.45064 11.1093 9.50338 11.242 9.50344C11.3746 9.50349 11.5018 9.45087 11.5956 9.35713L13.475 7.47525C13.8 7.15024 14.0579 6.76439 14.2338 6.33973C14.4097 5.91506 14.5002 5.45991 14.5002 5.00025C14.5002 4.5406 14.4097 4.08544 14.2338 3.66078C14.0579 3.23612 13.8 2.85026 13.475 2.52525ZM8.64625 10.889L6.7675 12.7678C6.53629 13.0041 6.2605 13.1923 5.95607 13.3214C5.65164 13.4505 5.32463 13.5179 4.99398 13.5197C4.66332 13.5215 4.33559 13.4577 4.02976 13.332C3.72393 13.2063 3.44608 13.0212 3.21229 12.7873C2.9785 12.5535 2.79342 12.2756 2.66776 11.9698C2.54211 11.6639 2.47837 11.3362 2.48025 11.0055C2.48213 10.6749 2.54959 10.3479 2.67871 10.0435C2.80783 9.73905 2.99606 9.46329 3.2325 9.23213L5.11062 7.354C5.20444 7.26018 5.25715 7.13293 5.25715 7.00025C5.25715 6.86757 5.20444 6.74032 5.11062 6.6465C5.0168 6.55268 4.88955 6.49997 4.75687 6.49997C4.62419 6.49997 4.49694 6.55268 4.40312 6.6465L2.525 8.52525C1.86858 9.18166 1.49982 10.0719 1.49982 11.0003C1.49982 11.9286 1.86858 12.8188 2.525 13.4753C3.18141 14.1317 4.07169 14.5004 5 14.5004C5.9283 14.5004 6.81858 14.1317 7.475 13.4753L9.35375 11.5959C9.44748 11.5021 9.50011 11.3748 9.50005 11.2422C9.49999 11.1096 9.44725 10.9824 9.35343 10.8887C9.25961 10.795 9.1324 10.7423 8.99977 10.7424C8.86715 10.7424 8.73998 10.7952 8.64625 10.889Z" fill="#323130"/>
</svg>
