<svg width="16" height="16" viewBox="0 0 16 16" fill="none" xmlns="http://www.w3.org/2000/svg">
<path d="M14.2506 8.00019C14.2506 8.1991 14.1716 8.38987 14.0309 8.53052C13.8903 8.67117 13.6995 8.75019 13.5006 8.75019H4.31309L7.53309 11.9696C7.67399 12.1105 7.75314 12.3016 7.75314 12.5008C7.75314 12.7001 7.67399 12.8912 7.53309 13.0321C7.39219 13.173 7.2011 13.2521 7.00184 13.2521C6.80258 13.2521 6.61149 13.173 6.47059 13.0321L1.97059 8.53206C1.90067 8.46238 1.84519 8.37959 1.80734 8.28843C1.76949 8.19726 1.75 8.09952 1.75 8.00081C1.75 7.9021 1.76949 7.80436 1.80734 7.7132C1.84519 7.62204 1.90067 7.53924 1.97059 7.46956L6.47059 2.96956C6.54036 2.8998 6.62318 2.84446 6.71433 2.8067C6.80548 2.76894 6.90318 2.74951 7.00184 2.74951C7.1005 2.74951 7.1982 2.76894 7.28935 2.8067C7.3805 2.84446 7.46333 2.8998 7.53309 2.96956C7.60286 3.03933 7.6582 3.12215 7.69595 3.2133C7.73371 3.30445 7.75314 3.40215 7.75314 3.50081C7.75314 3.59947 7.73371 3.69717 7.69595 3.78832C7.6582 3.87948 7.60286 3.9623 7.53309 4.03206L4.31309 7.25019H13.5006C13.6995 7.25019 13.8903 7.32921 14.0309 7.46986C14.1716 7.61051 14.2506 7.80128 14.2506 8.00019Z" fill="white"/>
</svg>
