<svg width="20" height="20" viewBox="0 0 20 20" fill="none" xmlns="http://www.w3.org/2000/svg">
<g id="behance logo_icon 1" clip-path="url(#clip0_1397_190787)">
<path id="Vector" fill-rule="evenodd" clip-rule="evenodd" d="M17.5565 0C18.9051 0 20 1.09492 20 2.44352V17.5565C20 18.9051 18.9051 20 17.5565 20H2.44352C1.09492 20 0 18.9051 0 17.5565V2.44352C0 1.09492 1.09488 0 2.44352 0L17.5565 0ZM17.8004 12.9163C17.8363 12.3763 17.7923 11.8607 17.6673 11.367C17.5412 10.8725 17.3389 10.4317 17.0556 10.0463C16.7719 9.6602 16.4106 9.35176 15.9705 9.12395C15.5282 8.89316 15.013 8.78 14.4242 8.78C13.8909 8.78 13.4094 8.87469 12.9726 9.06293C12.5362 9.25227 12.1616 9.51117 11.8454 9.83922C11.5299 10.1654 11.2895 10.5545 11.1164 11.0053C10.9463 11.4546 10.8594 11.9406 10.8594 12.461C10.8594 12.9991 10.943 13.4958 11.109 13.9444C11.2769 14.3952 11.5125 14.7791 11.8158 15.1038C12.1272 15.4274 12.497 15.6752 12.9397 15.8523C13.3828 16.0269 13.8761 16.1157 14.4242 16.1157C15.2109 16.1157 15.8854 15.9355 16.4391 15.5742C16.9994 15.214 17.4095 14.616 17.6802 13.7783H15.9968C15.9316 13.9936 15.763 14.2011 15.486 14.3952C15.2064 14.5897 14.8736 14.687 14.4882 14.687C13.9519 14.687 13.5381 14.5465 13.2515 14.2669C12.9645 13.9873 12.7788 13.4666 12.7788 12.9163H17.8004ZM6.8452 15.9355C7.27645 15.9355 7.69695 15.8812 8.10188 15.7739C8.51168 15.6663 8.87668 15.5006 9.19512 15.2754C9.51098 15.052 9.76727 14.7625 9.95551 14.4052C10.1423 14.052 10.2355 13.6326 10.2355 13.1452C10.2355 12.5438 10.0923 12.0312 9.80055 11.6026C9.51023 11.1769 9.0716 10.8777 8.48098 10.7076C8.91481 10.502 9.23988 10.2375 9.46102 9.91504C9.68109 9.5918 9.79055 9.18758 9.79055 8.70383C9.79055 8.25668 9.71695 7.87836 9.57086 7.57621C9.4207 7.26961 9.21102 7.02625 8.94328 6.84316C8.67105 6.66012 8.34969 6.5266 7.97246 6.44672C7.59336 6.36426 7.1784 6.32469 6.71871 6.32469H2.1875V15.9355H6.8452ZM6.60406 11.6521C7.05934 11.6521 7.42953 11.7568 7.70766 11.9676C7.98465 12.181 8.12445 12.5331 8.12445 13.0283C8.12445 13.2809 8.0834 13.4902 7.99797 13.6515C7.91289 13.8134 7.79531 13.9414 7.65402 14.0346C7.51199 14.1315 7.34445 14.1973 7.15512 14.2384C6.96871 14.2802 6.77047 14.2987 6.56227 14.2987H4.30332V11.6521H6.60406ZM15.4479 10.6103C15.2205 10.3592 14.8362 10.2231 14.3669 10.2231C14.0614 10.2231 13.8088 10.2745 13.6061 10.3792C13.4079 10.4827 13.2459 10.6111 13.122 10.7627C12.9985 10.9165 12.9149 11.0793 12.8657 11.2531C12.8169 11.4225 12.7873 11.5759 12.7788 11.7117H15.8884C15.8429 11.2243 15.6761 10.8637 15.4479 10.6103ZM6.2834 7.96191C6.47094 7.96195 6.65328 7.97523 6.82781 8.00926C7.00496 8.03996 7.15809 8.09617 7.29344 8.17793C7.42953 8.25668 7.53789 8.36875 7.61961 8.51227C7.6984 8.65574 7.73723 8.84066 7.73723 9.06402C7.73723 9.46715 7.61961 9.76043 7.37629 9.93832C7.13035 10.1188 6.81969 10.2076 6.44504 10.2076H4.30332V7.96191H6.2834ZM16.2834 7.91793V6.96965H12.3875V7.91793H16.2834Z" fill="#007AFF"/>
</g>
<defs>
<clipPath id="clip0_1397_190787">
<rect width="20" height="20" fill="white"/>
</clipPath>
</defs>
</svg>
