<svg width="17" height="18" viewBox="0 0 17 18" fill="none" xmlns="http://www.w3.org/2000/svg">
<path d="M7.93612 12.7514L2.62362 7.43888C2.47392 7.28918 2.38981 7.08614 2.38981 6.87443C2.38981 6.66272 2.47392 6.45968 2.62362 6.30998C2.77332 6.16027 2.97636 6.07617 3.18807 6.07617C3.39978 6.07617 3.60282 6.16027 3.75252 6.30998L8.49991 11.0587L13.2486 6.3113C13.3227 6.23718 13.4107 6.17838 13.5076 6.13826C13.6044 6.09815 13.7082 6.0775 13.8131 6.0775C13.9179 6.0775 14.0217 6.09815 14.1186 6.13826C14.2154 6.17838 14.3034 6.23718 14.3775 6.3113C14.4516 6.38543 14.5104 6.47343 14.5506 6.57028C14.5907 6.66713 14.6113 6.77093 14.6113 6.87576C14.6113 6.98059 14.5907 7.08439 14.5506 7.18124C14.5104 7.27809 14.4516 7.36609 14.3775 7.44021L9.06502 12.7527C8.9909 12.8269 8.90287 12.8858 8.80596 12.9259C8.70905 12.966 8.60518 12.9865 8.50029 12.9864C8.39541 12.9863 8.29159 12.9655 8.19478 12.9251C8.09796 12.8848 8.01006 12.8258 7.93612 12.7514Z" fill="white"/>
</svg>
