<svg width="32" height="33" viewBox="0 0 32 33" fill="none" xmlns="http://www.w3.org/2000/svg">
<path d="M10 8.5C10 8.23478 10.1054 7.98043 10.2929 7.79289C10.4804 7.60536 10.7348 7.5 11 7.5H27C27.2652 7.5 27.5196 7.60536 27.7071 7.79289C27.8946 7.98043 28 8.23478 28 8.5C28 8.76522 27.8946 9.01957 27.7071 9.20711C27.5196 9.39464 27.2652 9.5 27 9.5H11C10.7348 9.5 10.4804 9.39464 10.2929 9.20711C10.1054 9.01957 10 8.76522 10 8.5ZM27 15.5H11C10.7348 15.5 10.4804 15.6054 10.2929 15.7929C10.1054 15.9804 10 16.2348 10 16.5C10 16.7652 10.1054 17.0196 10.2929 17.2071C10.4804 17.3946 10.7348 17.5 11 17.5H27C27.2652 17.5 27.5196 17.3946 27.7071 17.2071C27.8946 17.0196 28 16.7652 28 16.5C28 16.2348 27.8946 15.9804 27.7071 15.7929C27.5196 15.6054 27.2652 15.5 27 15.5ZM27 23.5H11C10.7348 23.5 10.4804 23.6054 10.2929 23.7929C10.1054 23.9804 10 24.2348 10 24.5C10 24.7652 10.1054 25.0196 10.2929 25.2071C10.4804 25.3946 10.7348 25.5 11 25.5H27C27.2652 25.5 27.5196 25.3946 27.7071 25.2071C27.8946 25.0196 28 24.7652 28 24.5C28 24.2348 27.8946 23.9804 27.7071 23.7929C27.5196 23.6054 27.2652 23.5 27 23.5ZM5.5 7C5.20333 7 4.91332 7.08797 4.66665 7.2528C4.41997 7.41762 4.22771 7.65189 4.11418 7.92597C4.00065 8.20006 3.97094 8.50166 4.02882 8.79264C4.0867 9.08361 4.22956 9.35088 4.43934 9.56066C4.64912 9.77044 4.91639 9.9133 5.20737 9.97118C5.49834 10.0291 5.79994 9.99935 6.07403 9.88582C6.34811 9.77229 6.58238 9.58003 6.74721 9.33335C6.91203 9.08668 7 8.79667 7 8.5C7 8.10218 6.84197 7.72064 6.56066 7.43934C6.27936 7.15804 5.89783 7 5.5 7ZM5.5 15C5.20333 15 4.91332 15.088 4.66665 15.2528C4.41997 15.4176 4.22771 15.6519 4.11418 15.926C4.00065 16.2001 3.97094 16.5017 4.02882 16.7926C4.0867 17.0836 4.22956 17.3509 4.43934 17.5607C4.64912 17.7704 4.91639 17.9133 5.20737 17.9712C5.49834 18.0291 5.79994 17.9993 6.07403 17.8858C6.34811 17.7723 6.58238 17.58 6.74721 17.3334C6.91203 17.0867 7 16.7967 7 16.5C7 16.1022 6.84197 15.7206 6.56066 15.4393C6.27936 15.158 5.89783 15 5.5 15ZM5.5 23C5.20333 23 4.91332 23.088 4.66665 23.2528C4.41997 23.4176 4.22771 23.6519 4.11418 23.926C4.00065 24.2001 3.97094 24.5017 4.02882 24.7926C4.0867 25.0836 4.22956 25.3509 4.43934 25.5607C4.64912 25.7704 4.91639 25.9133 5.20737 25.9712C5.49834 26.0291 5.79994 25.9993 6.07403 25.8858C6.34811 25.7723 6.58238 25.58 6.74721 25.3334C6.91203 25.0867 7 24.7967 7 24.5C7 24.1022 6.84197 23.7206 6.56066 23.4393C6.27936 23.158 5.89783 23 5.5 23Z" fill="#343330"/>
</svg>
