<svg width="40" height="41" viewBox="0 0 40 41" fill="none" xmlns="http://www.w3.org/2000/svg">
<path d="M24.7502 12.06V10.5C24.7502 10.09 24.4102 9.75 24.0002 9.75C23.5902 9.75 23.2502 10.09 23.2502 10.5V12H16.7502V10.5C16.7502 10.09 16.4102 9.75 16.0002 9.75C15.5902 9.75 15.2502 10.09 15.2502 10.5V12.06C12.5502 12.31 11.2402 13.92 11.0402 16.31C11.0202 16.6 11.2602 16.84 11.5402 16.84H28.4602C28.7502 16.84 28.9902 16.59 28.9602 16.31C28.7602 13.92 27.4502 12.31 24.7502 12.06Z" fill="#3B4CBF"/>
<path opacity="0.4" d="M28 18.3398C28.55 18.3398 29 18.7898 29 19.3398V25.4998C29 28.4998 27.5 30.4998 24 30.4998H16C12.5 30.4998 11 28.4998 11 25.4998V19.3398C11 18.7898 11.45 18.3398 12 18.3398H28Z" fill="#3B4CBF"/>
<path d="M16.5 23.4999C16.24 23.4999 15.98 23.3899 15.79 23.2099C15.61 23.0199 15.5 22.7599 15.5 22.4999C15.5 22.2399 15.61 21.9799 15.79 21.7899C16.07 21.5099 16.51 21.4199 16.88 21.5799C17.01 21.6299 17.12 21.6999 17.21 21.7899C17.39 21.9799 17.5 22.2399 17.5 22.4999C17.5 22.7599 17.39 23.0199 17.21 23.2099C17.02 23.3899 16.76 23.4999 16.5 23.4999Z" fill="#3B4CBF"/>
<path d="M20 23.4999C19.74 23.4999 19.48 23.3899 19.29 23.2099C19.11 23.0199 19 22.7599 19 22.4999C19 22.2399 19.11 21.9799 19.29 21.7899C19.38 21.6999 19.49 21.6299 19.62 21.5799C19.99 21.4199 20.43 21.5099 20.71 21.7899C20.89 21.9799 21 22.2399 21 22.4999C21 22.7599 20.89 23.0199 20.71 23.2099C20.66 23.2499 20.61 23.2899 20.56 23.3299C20.5 23.3699 20.44 23.3999 20.38 23.4199C20.32 23.4499 20.26 23.4699 20.2 23.4799C20.13 23.4899 20.07 23.4999 20 23.4999Z" fill="#3B4CBF"/>
<path d="M23.5 23.5C23.24 23.5 22.98 23.39 22.79 23.21C22.61 23.02 22.5 22.76 22.5 22.5C22.5 22.24 22.61 21.98 22.79 21.79C22.89 21.7 22.99 21.63 23.12 21.58C23.3 21.5 23.5 21.48 23.7 21.52C23.76 21.53 23.82 21.55 23.88 21.58C23.94 21.6 24 21.63 24.06 21.67C24.11 21.71 24.16 21.75 24.21 21.79C24.39 21.98 24.5 22.24 24.5 22.5C24.5 22.76 24.39 23.02 24.21 23.21C24.16 23.25 24.11 23.29 24.06 23.33C24 23.37 23.94 23.4 23.88 23.42C23.82 23.45 23.76 23.47 23.7 23.48C23.63 23.49 23.56 23.5 23.5 23.5Z" fill="#3B4CBF"/>
<path d="M16.5 27C16.37 27 16.24 26.97 16.12 26.92C15.99 26.87 15.89 26.8 15.79 26.71C15.61 26.52 15.5 26.26 15.5 26C15.5 25.74 15.61 25.48 15.79 25.29C15.89 25.2 15.99 25.13 16.12 25.08C16.3 25 16.5 24.98 16.7 25.02C16.76 25.03 16.82 25.05 16.88 25.08C16.94 25.1 17 25.13 17.06 25.17C17.11 25.21 17.16 25.25 17.21 25.29C17.39 25.48 17.5 25.74 17.5 26C17.5 26.26 17.39 26.52 17.21 26.71C17.16 26.75 17.11 26.8 17.06 26.83C17 26.87 16.94 26.9 16.88 26.92C16.82 26.95 16.76 26.97 16.7 26.98C16.63 26.99 16.57 27 16.5 27Z" fill="#3B4CBF"/>
<path d="M20 27.0002C19.74 27.0002 19.48 26.8902 19.29 26.7102C19.11 26.5202 19 26.2602 19 26.0002C19 25.7402 19.11 25.4802 19.29 25.2902C19.66 24.9202 20.34 24.9202 20.71 25.2902C20.89 25.4802 21 25.7402 21 26.0002C21 26.2602 20.89 26.5202 20.71 26.7102C20.52 26.8902 20.26 27.0002 20 27.0002Z" fill="#3B4CBF"/>
<path d="M23.5 27.0002C23.24 27.0002 22.98 26.8902 22.79 26.7102C22.61 26.5202 22.5 26.2602 22.5 26.0002C22.5 25.7402 22.61 25.4802 22.79 25.2902C23.16 24.9202 23.84 24.9202 24.21 25.2902C24.39 25.4802 24.5 25.7402 24.5 26.0002C24.5 26.2602 24.39 26.5202 24.21 26.7102C24.02 26.8902 23.76 27.0002 23.5 27.0002Z" fill="#3B4CBF"/>
</svg>
