<svg width="21" height="21" viewBox="0 0 21 21" fill="none" xmlns="http://www.w3.org/2000/svg">
<g id="ChatTeardropText">
<path id="Vector" d="M14.1094 9.1875C14.1094 9.36155 14.0402 9.52847 13.9172 9.65154C13.7941 9.77461 13.6272 9.84375 13.4531 9.84375H7.875C7.70095 9.84375 7.53403 9.77461 7.41096 9.65154C7.28789 9.52847 7.21875 9.36155 7.21875 9.1875C7.21875 9.01345 7.28789 8.84653 7.41096 8.72346C7.53403 8.60039 7.70095 8.53125 7.875 8.53125H13.4531C13.6272 8.53125 13.7941 8.60039 13.9172 8.72346C14.0402 8.84653 14.1094 9.01345 14.1094 9.1875ZM13.4531 11.1562H7.875C7.70095 11.1562 7.53403 11.2254 7.41096 11.3485C7.28789 11.4715 7.21875 11.6385 7.21875 11.8125C7.21875 11.9865 7.28789 12.1535 7.41096 12.2765C7.53403 12.3996 7.70095 12.4688 7.875 12.4688H13.4531C13.6272 12.4688 13.7941 12.3996 13.9172 12.2765C14.0402 12.1535 14.1094 11.9865 14.1094 11.8125C14.1094 11.6385 14.0402 11.4715 13.9172 11.3485C13.7941 11.2254 13.6272 11.1562 13.4531 11.1562ZM19.0312 10.1719C19.0289 12.3467 18.1638 14.4319 16.626 15.9697C15.0881 17.5076 13.003 18.3726 10.8281 18.375H3.9375C3.5894 18.375 3.25556 18.2367 3.00942 17.9906C2.76328 17.7444 2.625 17.4106 2.625 17.0625V10.1719C2.625 7.99627 3.48926 5.90977 5.02764 4.37139C6.56602 2.83301 8.65252 1.96875 10.8281 1.96875C13.0037 1.96875 15.0902 2.83301 16.6286 4.37139C18.167 5.90977 19.0312 7.99627 19.0312 10.1719ZM17.7188 10.1719C17.7188 8.34437 16.9928 6.59171 15.7005 5.29947C14.4083 4.00722 12.6556 3.28125 10.8281 3.28125C9.00062 3.28125 7.24796 4.00722 5.95572 5.29947C4.66347 6.59171 3.9375 8.34437 3.9375 10.1719V17.0625H10.8281C12.655 17.0605 14.4066 16.3339 15.6984 15.0421C16.9902 13.7503 17.7168 11.9988 17.7188 10.1719Z" fill="white"/>
</g>
</svg>
