<svg width="14" height="14" viewBox="0 0 14 14" fill="none" xmlns="http://www.w3.org/2000/svg">
<path d="M5.75 7.67188C5.90342 7.67188 6.0507 7.73234 6.15918 7.84082C6.26766 7.9493 6.32812 8.09658 6.32812 8.25C6.32812 8.40342 6.26766 8.5507 6.15918 8.65918L2.22559 12.5918L2.14551 12.6719H4.5C4.65333 12.6719 4.80076 12.7324 4.90918 12.8408C5.0176 12.9492 5.07812 13.0967 5.07812 13.25C5.07812 13.4033 5.0176 13.5508 4.90918 13.6592C4.80076 13.7676 4.65333 13.8281 4.5 13.8281H0.75C0.596672 13.8281 0.44924 13.7676 0.34082 13.6592C0.232401 13.5508 0.171875 13.4033 0.171875 13.25V9.5C0.171875 9.34667 0.232401 9.19924 0.34082 9.09082C0.44924 8.9824 0.596672 8.92188 0.75 8.92188C0.903328 8.92188 1.05076 8.9824 1.15918 9.09082C1.2676 9.19924 1.32812 9.34667 1.32812 9.5V11.8545L1.4082 11.7744L5.34082 7.84082C5.4493 7.73234 5.59658 7.67188 5.75 7.67188ZM9.5 0.171875H13.25C13.4033 0.171875 13.5508 0.232401 13.6592 0.34082C13.7676 0.44924 13.8281 0.596672 13.8281 0.75V4.5C13.8281 4.65333 13.7676 4.80076 13.6592 4.90918C13.5508 5.0176 13.4033 5.07812 13.25 5.07812C13.0967 5.07812 12.9492 5.0176 12.8408 4.90918C12.7324 4.80076 12.6719 4.65333 12.6719 4.5V2.14551L12.5918 2.22559L8.65918 6.15918C8.5507 6.26766 8.40342 6.32812 8.25 6.32812C8.09658 6.32812 7.9493 6.26766 7.84082 6.15918C7.73234 6.0507 7.67188 5.90342 7.67188 5.75C7.67188 5.59658 7.73234 5.4493 7.84082 5.34082L11.7744 1.4082L11.8545 1.32812H9.5C9.34667 1.32812 9.19924 1.2676 9.09082 1.15918C8.9824 1.05076 8.92188 0.903328 8.92188 0.75C8.92188 0.596672 8.9824 0.44924 9.09082 0.34082C9.19924 0.232401 9.34667 0.171875 9.5 0.171875Z" fill="white" stroke="white" stroke-width="0.09375"/>
</svg>
