<svg width="11" height="11" viewBox="0 0 11 11" fill="none" xmlns="http://www.w3.org/2000/svg">
<path d="M10.5306 9.469C10.6715 9.60989 10.7506 9.80099 10.7506 10.0002C10.7506 10.1995 10.6715 10.3906 10.5306 10.5315C10.3897 10.6724 10.1986 10.7515 9.99935 10.7515C9.80009 10.7515 9.60899 10.6724 9.4681 10.5315L5.49997 6.56212L1.5306 10.5302C1.3897 10.6711 1.19861 10.7503 0.999348 10.7503C0.800091 10.7503 0.608994 10.6711 0.468098 10.5302C0.327202 10.3894 0.248047 10.1983 0.248047 9.999C0.248047 9.79974 0.327202 9.60864 0.468098 9.46775L4.43747 5.49962L0.469348 1.53025C0.328451 1.38935 0.249297 1.19825 0.249297 0.998996C0.249297 0.799739 0.328451 0.608643 0.469348 0.467746C0.610244 0.32685 0.80134 0.247695 1.0006 0.247695C1.19986 0.247695 1.39095 0.32685 1.53185 0.467746L5.49997 4.43712L9.46935 0.467121C9.61024 0.326225 9.80134 0.24707 10.0006 0.24707C10.1999 0.24707 10.391 0.326225 10.5318 0.467121C10.6727 0.608017 10.7519 0.799114 10.7519 0.998371C10.7519 1.19763 10.6727 1.38873 10.5318 1.52962L6.56247 5.49962L10.5306 9.469Z" fill="#3B4CBF"/>
</svg>
