<svg width="32" height="32" viewBox="0 0 32 32" fill="none" xmlns="http://www.w3.org/2000/svg">
<rect width="32" height="32" rx="8" fill="url(#paint0_linear_17397_280613)"/>
<path d="M21.625 9.79688C21.7783 9.79688 21.9257 9.85755 22.0342 9.96582C22.1426 10.0742 22.204 10.2217 22.2041 10.375C22.2041 10.5284 22.1427 10.6757 22.0342 10.7842L16.8506 15.9668L16.8174 16L16.8506 16.0332L22.0342 21.2158C22.0879 21.2695 22.1311 21.3341 22.1602 21.4043C22.1891 21.4743 22.2041 21.5493 22.2041 21.625C22.2041 21.7009 22.1892 21.7765 22.1602 21.8467C22.1311 21.9169 22.0879 21.9805 22.0342 22.0342C21.9805 22.0879 21.9169 22.1311 21.8467 22.1602C21.7765 22.1892 21.7009 22.2041 21.625 22.2041C21.5493 22.2041 21.4743 22.1891 21.4043 22.1602C21.3341 22.1311 21.2695 22.0879 21.2158 22.0342L16.0332 16.8506L16 16.8174L15.9668 16.8506L10.7842 22.0342C10.6757 22.1427 10.5284 22.2041 10.375 22.2041C10.2217 22.204 10.0742 22.1426 9.96582 22.0342C9.85755 21.9257 9.79688 21.7783 9.79688 21.625C9.79697 21.4717 9.85742 21.3242 9.96582 21.2158L15.1494 16.0332L15.1826 16L15.1494 15.9668L9.96582 10.7842C9.85755 10.6757 9.79688 10.5283 9.79688 10.375C9.79697 10.2217 9.85742 10.0742 9.96582 9.96582C10.0742 9.85742 10.2217 9.79697 10.375 9.79688C10.5283 9.79688 10.6757 9.85755 10.7842 9.96582L15.9668 15.1494L16 15.1826L16.0332 15.1494L21.2158 9.96582C21.3242 9.85742 21.4717 9.79697 21.625 9.79688Z" fill="white" stroke="white" stroke-width="0.09375"/>
<defs>
<linearGradient id="paint0_linear_17397_280613" x1="7.20048" y1="20.8713" x2="25.8056" y2="6.79451" gradientUnits="userSpaceOnUse">
<stop stop-color="#483FC5"/>
<stop offset="0.5" stop-color="#897BFF"/>
<stop offset="1" stop-color="#C4A3FF"/>
</linearGradient>
</defs>
</svg>
