<svg width="8" height="7" viewBox="0 0 8 7" fill="none" xmlns="http://www.w3.org/2000/svg">
<path d="M6.20174 5.23674C6.26338 5.29838 6.29801 5.38199 6.29801 5.46916C6.29801 5.55634 6.26338 5.63994 6.20174 5.70158C6.1401 5.76323 6.05649 5.79786 5.96932 5.79786C5.88214 5.79786 5.79854 5.76323 5.7369 5.70158L4.00084 3.96498L2.26424 5.70104C2.2026 5.76268 2.11899 5.79731 2.03182 5.79731C1.94464 5.79731 1.86104 5.76268 1.7994 5.70104C1.73776 5.6394 1.70313 5.55579 1.70312 5.46862C1.70312 5.38144 1.73776 5.29784 1.7994 5.23619L3.536 3.50014L1.79994 1.76354C1.7383 1.7019 1.70367 1.61829 1.70367 1.53112C1.70367 1.44394 1.7383 1.36034 1.79994 1.29869C1.86159 1.23705 1.94519 1.20242 2.03237 1.20242C2.11954 1.20242 2.20315 1.23705 2.26479 1.29869L4.00084 3.0353L5.73744 1.29842C5.79909 1.23678 5.88269 1.20215 5.96987 1.20215C6.05704 1.20215 6.14065 1.23678 6.20229 1.29842C6.26393 1.36006 6.29856 1.44367 6.29856 1.53084C6.29856 1.61802 6.26393 1.70162 6.20229 1.76326L4.46569 3.50014L6.20174 5.23674Z" fill="url(#paint0_linear_16598_269358)"/>
<defs>
<linearGradient id="paint0_linear_16598_269358" x1="2.73717" y1="4.19961" x2="5.40911" y2="2.1781" gradientUnits="userSpaceOnUse">
<stop stop-color="#483FC5"/>
<stop offset="0.5" stop-color="#897BFF"/>
<stop offset="1" stop-color="#C4A3FF"/>
</linearGradient>
</defs>
</svg>
