<svg xmlns="http://www.w3.org/2000/svg" width="46" height="47" viewBox="0 0 46 47" fill="none">
  <path d="M32.7125 16.5747V15.5564C32.7125 10.9715 26.1514 7.5127 17.45 7.5127C8.74864 7.5127 2.1875 10.9715 2.1875 15.5564V22.8689C2.1875 26.6879 6.74023 29.7226 13.2875 30.6312V31.6439C13.2875 36.2289 19.8486 39.6877 28.55 39.6877C37.2514 39.6877 43.8125 36.2289 43.8125 31.6439V24.3314C43.8125 20.5472 39.4037 17.5089 32.7125 16.5747ZM41.0375 24.3314C41.0375 26.7482 35.6974 29.4502 28.55 29.4502C27.9031 29.4502 27.2614 29.4264 26.6283 29.3826C30.3694 27.9456 32.7125 25.6111 32.7125 22.8689V19.5308C37.8931 20.3443 41.0375 22.5527 41.0375 24.3314ZM13.2875 27.6678V23.3187C14.6677 23.5082 16.0582 23.6023 17.45 23.6002C18.8418 23.6023 20.2323 23.5082 21.6125 23.3187V27.6678C20.2344 27.8824 18.8431 27.9893 17.45 27.9877C16.0569 27.9893 14.6656 27.8824 13.2875 27.6678ZM29.9375 20.2968V22.8689C29.9375 24.4027 27.7851 26.0499 24.3875 27.0499V22.7775C26.6266 22.2053 28.5223 21.3534 29.9375 20.2968ZM17.45 10.4377C24.5974 10.4377 29.9375 13.1397 29.9375 15.5564C29.9375 17.9732 24.5974 20.6752 17.45 20.6752C10.3026 20.6752 4.9625 17.9732 4.9625 15.5564C4.9625 13.1397 10.3026 10.4377 17.45 10.4377ZM4.9625 22.8689V20.2968C6.37775 21.3534 8.27342 22.2053 10.5125 22.7775V27.0499C7.11486 26.0499 4.9625 24.4027 4.9625 22.8689ZM16.0625 31.6439V30.8816C16.5186 30.8999 16.98 30.9127 17.45 30.9127C18.1229 30.9127 18.7803 30.8889 19.4255 30.8487C20.1422 31.1192 20.8723 31.3486 21.6125 31.5361V35.8249C18.2149 34.8249 16.0625 33.1777 16.0625 31.6439ZM24.3875 36.4428V32.0827C25.7672 32.2782 27.1579 32.3759 28.55 32.3752C29.9418 32.3773 31.3323 32.2832 32.7125 32.0937V36.4428C29.9523 36.8693 27.1477 36.8693 24.3875 36.4428ZM35.4875 35.8249V31.5525C37.7266 30.9803 39.6223 30.1284 41.0375 29.0718V31.6439C41.0375 33.1777 38.8851 34.8249 35.4875 35.8249Z" fill="#72481E"/>
  <path d="M16.1597 30.8098V31.5722C16.1597 33.106 18.312 34.7531 21.7097 35.7531V31.4643C20.9694 31.2769 20.2394 31.0474 19.5226 30.7769C18.8774 30.8172 18.2201 30.8409 17.5472 30.8409C17.0772 30.8409 16.6158 30.8281 16.1597 30.8098Z" fill="#C98F05"/>
  <path d="M24.4847 32.0109V36.371C27.2449 36.7976 30.0494 36.7976 32.8097 36.371V32.0219C31.4295 32.2115 30.039 32.3055 28.6472 32.3034C27.255 32.3041 25.8644 32.2064 24.4847 32.0109Z" fill="#C98F05"/>
  <path d="M35.5847 31.4808V35.7531C38.9823 34.7531 41.1347 33.106 41.1347 31.5722V29C39.7194 30.0567 37.8237 30.9086 35.5847 31.4808Z" fill="#C98F05"/>
  <path d="M29.48 15.5598C29.48 13.2935 24.3483 10.7598 17.48 10.7598C10.6116 10.7598 5.47998 13.2935 5.47998 15.5598C5.47998 17.8261 10.6116 20.3598 17.48 20.3598C24.3483 20.3598 29.48 17.8261 29.48 15.5598Z" fill="#FED85D"/>
  <path d="M13.2049 23.3818V27.7309C14.583 27.9455 15.9743 28.0524 17.3674 28.0508C18.7605 28.0524 20.1518 27.9455 21.5299 27.7309V23.3818C20.1497 23.5713 18.7592 23.6654 17.3674 23.6633C15.9755 23.6654 14.5851 23.5713 13.2049 23.3818Z" fill="#E8A608"/>
  <path d="M29.8549 22.932V20.3599C28.4396 21.4165 26.544 22.2684 24.3049 22.8406V27.113C27.7025 26.113 29.8549 24.4658 29.8549 22.932Z" fill="#E8A608"/>
  <path d="M4.87988 20.3599V22.932C4.87988 24.4658 7.03224 26.113 10.4299 27.113V22.8406C8.1908 22.2684 6.29513 21.4165 4.87988 20.3599Z" fill="#E8A608"/>
  <path d="M30.2983 29.3598C36.9118 29.3598 41.0002 26.3455 41.0002 24.2C41.0002 22.6209 37.6106 20.482 32.817 19.7598V22.7233C32.817 25.1577 30.6618 28.0841 27.2002 29.3598C27.786 29.3987 29.6997 29.3598 30.2983 29.3598Z" fill="#FED85D"/>
</svg>