<svg width="14" height="14" viewBox="0 0 14 14" fill="none" xmlns="http://www.w3.org/2000/svg">
<path d="M13.1112 11.3749H12.251V5.24993C12.251 5.01786 12.1588 4.7953 11.9947 4.63121C11.8306 4.46711 11.608 4.37493 11.376 4.37493H8.96971C8.9117 4.37493 8.85606 4.39797 8.81503 4.439C8.77401 4.48002 8.75096 4.53566 8.75096 4.59368V11.3749H7.87596V1.77235C7.87741 1.63606 7.84783 1.50122 7.78947 1.37805C7.7311 1.25488 7.64548 1.1466 7.53909 1.06141C7.39406 0.948337 7.21709 0.883833 7.03331 0.877059C6.84954 0.870285 6.6683 0.921586 6.51534 1.02368L2.14034 3.93743C2.02032 4.0175 1.92196 4.12601 1.85403 4.25329C1.78609 4.38057 1.75069 4.52268 1.75096 4.66696V11.3749H0.890727C0.777669 11.3733 0.668173 11.4145 0.584266 11.4903C0.500358 11.566 0.448263 11.6708 0.438461 11.7834C0.434488 11.8433 0.442861 11.9033 0.463061 11.9598C0.483262 12.0163 0.514857 12.068 0.555886 12.1117C0.596914 12.1555 0.6465 12.1903 0.701561 12.2141C0.756623 12.2379 0.815985 12.2501 0.875961 12.2499H13.126C13.1859 12.2501 13.2453 12.2379 13.3004 12.2141C13.3554 12.1903 13.405 12.1555 13.446 12.1117C13.4871 12.068 13.5187 12.0163 13.5389 11.9598C13.5591 11.9033 13.5674 11.8433 13.5635 11.7834C13.5537 11.6708 13.5016 11.566 13.4177 11.4903C13.3337 11.4145 13.2243 11.3733 13.1112 11.3749ZM4.15721 10.0624C4.15734 10.1224 4.14514 10.1818 4.12137 10.2368C4.09759 10.2919 4.06275 10.3415 4.019 10.3825C3.97525 10.4235 3.92354 10.4551 3.86707 10.4753C3.81059 10.4955 3.75057 10.5039 3.69073 10.4999C3.57799 10.4901 3.47315 10.4379 3.39735 10.3539C3.32154 10.2699 3.2804 10.1603 3.28221 10.0471V9.20219C3.28067 9.08917 3.32192 8.97974 3.39769 8.89587C3.47345 8.81199 3.57813 8.75985 3.69073 8.74993C3.75057 8.74595 3.81059 8.75433 3.86707 8.77453C3.92354 8.79473 3.97525 8.82632 4.019 8.86735C4.06275 8.90838 4.09759 8.95797 4.12137 9.01303C4.14514 9.06809 4.15734 9.12745 4.15721 9.18743V10.0624ZM4.15721 6.99993C4.15734 7.0599 4.14514 7.11927 4.12137 7.17433C4.09759 7.22939 4.06275 7.27897 4.019 7.32C3.97525 7.36103 3.92354 7.39263 3.86707 7.41283C3.81059 7.43303 3.75057 7.4414 3.69073 7.43743C3.57804 7.42749 3.47328 7.37528 3.3975 7.29129C3.32172 7.20729 3.28053 7.09773 3.28221 6.98461V6.13969C3.28067 6.02667 3.32192 5.91724 3.39769 5.83336C3.47345 5.74948 3.57813 5.69735 3.69073 5.68743C3.75057 5.68345 3.81059 5.69183 3.86707 5.71203C3.92354 5.73223 3.97525 5.76382 4.019 5.80485C4.06275 5.84588 4.09759 5.89547 4.12137 5.95053C4.14514 6.00559 4.15734 6.06495 4.15721 6.12493V6.99993ZM6.34471 10.0624C6.34484 10.1224 6.33264 10.1818 6.30887 10.2368C6.28509 10.2919 6.25025 10.3415 6.2065 10.3825C6.16275 10.4235 6.11104 10.4551 6.05457 10.4753C5.99809 10.4955 5.93807 10.5039 5.87823 10.4999C5.76568 10.4901 5.661 10.4381 5.58523 10.3543C5.50945 10.2705 5.46818 10.1612 5.46971 10.0482V9.20219C5.46831 9.08926 5.50962 8.97997 5.58537 8.89621C5.66113 8.81245 5.76573 8.76039 5.87823 8.75047C5.93807 8.7465 5.99809 8.75487 6.05457 8.77507C6.11104 8.79527 6.16275 8.82687 6.2065 8.8679C6.25025 8.90893 6.28509 8.95851 6.30887 9.01357C6.33264 9.06864 6.34484 9.128 6.34471 9.18797V10.0624ZM6.34471 6.99993C6.34484 7.0599 6.33264 7.11927 6.30887 7.17433C6.28509 7.22939 6.25025 7.27897 6.2065 7.32C6.16275 7.36103 6.11104 7.39263 6.05457 7.41283C5.99809 7.43303 5.93807 7.4414 5.87823 7.43743C5.76573 7.42751 5.66113 7.37545 5.58537 7.29169C5.50962 7.20793 5.46831 7.09864 5.46971 6.98571V6.13969C5.46831 6.02676 5.50962 5.91747 5.58537 5.83371C5.66113 5.74995 5.76573 5.69789 5.87823 5.68797C5.93807 5.684 5.99809 5.69237 6.05457 5.71257C6.11104 5.73277 6.16275 5.76437 6.2065 5.8054C6.25025 5.84643 6.28509 5.89601 6.30887 5.95107C6.33264 6.00614 6.34484 6.0655 6.34471 6.12547V6.99993Z" fill="#8E8E93"/>
</svg>
