<svg width="24" height="24" viewBox="0 0 24 24" fill="none" xmlns="http://www.w3.org/2000/svg">
<rect width="24" height="24" rx="12" fill="url(#paint0_linear_16008_10226)"/>
<path d="M9.06348 5.55371C9.26745 5.52887 9.47403 5.57074 9.65234 5.67285C9.7861 5.74947 9.89905 5.85684 9.98145 5.98535L10.0537 6.12109L11.3721 9.05957V9.06934L11.376 9.07812C11.4378 9.22249 11.4629 9.3797 11.4492 9.53613C11.4389 9.65362 11.4072 9.76779 11.3555 9.87305L11.2979 9.97461C11.2879 9.98958 11.2773 10.0039 11.2656 10.0186L9.9668 11.5625L9.94727 11.5859L9.95996 11.6133C10.4327 12.574 11.4361 13.5694 12.4092 14.042L12.4365 14.0557L12.46 14.0352L13.9805 12.7393L14.0234 12.707C14.1553 12.6191 14.3071 12.5653 14.4648 12.5508C14.6224 12.5362 14.7812 12.5609 14.9268 12.623L14.9346 12.627L17.8789 13.9463H17.8799C18.0683 14.0282 18.2251 14.1693 18.3271 14.3477C18.4036 14.4813 18.4461 14.6308 18.4521 14.7832L18.4463 14.9365C18.3363 15.7719 17.9259 16.5387 17.292 17.0938C16.6579 17.6489 15.8428 17.9546 15 17.9531C10.0634 17.9531 6.04694 13.9366 6.04688 9C6.04536 8.15719 6.3511 7.34214 6.90625 6.70801C7.39199 6.15332 8.03985 5.77021 8.75391 5.60938L9.06348 5.55371ZM9.17285 6.45312C8.55673 6.5356 7.99148 6.84002 7.58301 7.30859C7.17462 7.77718 6.95074 8.37842 6.95312 9L6.96387 9.39844C7.06446 11.3867 7.89814 13.2731 9.3125 14.6875C10.8211 16.196 12.8666 17.0445 15 17.0469C15.6224 17.0489 16.2247 16.8246 16.6934 16.415C17.1621 16.0055 17.4655 15.4384 17.5469 14.8213L17.5537 14.7686H17.5039L14.5752 13.457L14.5479 13.4453L14.5254 13.4639L13.0059 14.7607L12.9639 14.792C12.8267 14.8835 12.6683 14.9383 12.5039 14.9502C12.3397 14.9621 12.1751 14.9309 12.0264 14.8604C10.8651 14.2993 9.70515 13.1486 9.14355 12H9.14453C9.07306 11.8522 9.04034 11.6883 9.05078 11.5244C9.05863 11.4016 9.09052 11.282 9.14355 11.1719L9.2041 11.0645C9.21341 11.0496 9.22384 11.0347 9.23535 11.0215H9.23633L10.5283 9.47461L10.5469 9.45215L10.5352 9.42578L9.22559 6.49609L9.23145 6.44531L9.17285 6.45312Z" fill="white" stroke="white" stroke-width="0.09375"/>
<defs>
<linearGradient id="paint0_linear_16008_10226" x1="5.40036" y1="15.6535" x2="19.3542" y2="5.09588" gradientUnits="userSpaceOnUse">
<stop stop-color="#483FC5"/>
<stop offset="1" stop-color="#864CEF"/>
</linearGradient>
</defs>
</svg>
