<svg width="16" height="16" viewBox="0 0 16 16" fill="none" xmlns="http://www.w3.org/2000/svg">
<path d="M14 3H2C1.73478 3 1.48043 3.10536 1.29289 3.29289C1.10536 3.48043 1 3.73478 1 4V12C1 12.2652 1.10536 12.5196 1.29289 12.7071C1.48043 12.8946 1.73478 13 2 13H14C14.2652 13 14.5196 12.8946 14.7071 12.7071C14.8946 12.5196 15 12.2652 15 12V4C15 3.73478 14.8946 3.48043 14.7071 3.29289C14.5196 3.10536 14.2652 3 14 3ZM14 12H2V4H14V12ZM13 8C13 8.13261 12.9473 8.25979 12.8536 8.35355C12.7598 8.44732 12.6326 8.5 12.5 8.5H3.5C3.36739 8.5 3.24021 8.44732 3.14645 8.35355C3.05268 8.25979 3 8.13261 3 8C3 7.86739 3.05268 7.74021 3.14645 7.64645C3.24021 7.55268 3.36739 7.5 3.5 7.5H12.5C12.6326 7.5 12.7598 7.55268 12.8536 7.64645C12.9473 7.74021 13 7.86739 13 8ZM13 6C13 6.13261 12.9473 6.25979 12.8536 6.35355C12.7598 6.44732 12.6326 6.5 12.5 6.5H3.5C3.36739 6.5 3.24021 6.44732 3.14645 6.35355C3.05268 6.25979 3 6.13261 3 6C3 5.86739 3.05268 5.74021 3.14645 5.64645C3.24021 5.55268 3.36739 5.5 3.5 5.5H12.5C12.6326 5.5 12.7598 5.55268 12.8536 5.64645C12.9473 5.74021 13 5.86739 13 6ZM4.5 10C4.5 10.1326 4.44732 10.2598 4.35355 10.3536C4.25979 10.4473 4.13261 10.5 4 10.5H3.5C3.36739 10.5 3.24021 10.4473 3.14645 10.3536C3.05268 10.2598 3 10.1326 3 10C3 9.86739 3.05268 9.74021 3.14645 9.64645C3.24021 9.55268 3.36739 9.5 3.5 9.5H4C4.13261 9.5 4.25979 9.55268 4.35355 9.64645C4.44732 9.74021 4.5 9.86739 4.5 10ZM10.5 10C10.5 10.1326 10.4473 10.2598 10.3536 10.3536C10.2598 10.4473 10.1326 10.5 10 10.5H6C5.86739 10.5 5.74021 10.4473 5.64645 10.3536C5.55268 10.2598 5.5 10.1326 5.5 10C5.5 9.86739 5.55268 9.74021 5.64645 9.64645C5.74021 9.55268 5.86739 9.5 6 9.5H10C10.1326 9.5 10.2598 9.55268 10.3536 9.64645C10.4473 9.74021 10.5 9.86739 10.5 10ZM13 10C13 10.1326 12.9473 10.2598 12.8536 10.3536C12.7598 10.4473 12.6326 10.5 12.5 10.5H12C11.8674 10.5 11.7402 10.4473 11.6464 10.3536C11.5527 10.2598 11.5 10.1326 11.5 10C11.5 9.86739 11.5527 9.74021 11.6464 9.64645C11.7402 9.55268 11.8674 9.5 12 9.5H12.5C12.6326 9.5 12.7598 9.55268 12.8536 9.64645C12.9473 9.74021 13 9.86739 13 10Z" fill="#1E293B"/>
</svg>
