<svg width="18" height="20" viewBox="0 0 18 20" fill="none" xmlns="http://www.w3.org/2000/svg">
<path d="M17.25 3.1875H0.75C0.600816 3.1875 0.457742 3.24676 0.352252 3.35225C0.246763 3.45774 0.1875 3.60082 0.1875 3.75C0.1875 3.89918 0.246763 4.04226 0.352252 4.14775C0.457742 4.25324 0.600816 4.3125 0.75 4.3125H1.6875V18C1.6875 18.3481 1.82578 18.6819 2.07192 18.9281C2.31806 19.1742 2.6519 19.3125 3 19.3125H15C15.3481 19.3125 15.6819 19.1742 15.9281 18.9281C16.1742 18.6819 16.3125 18.3481 16.3125 18V4.3125H17.25C17.3992 4.3125 17.5423 4.25324 17.6477 4.14775C17.7532 4.04226 17.8125 3.89918 17.8125 3.75C17.8125 3.60082 17.7532 3.45774 17.6477 3.35225C17.5423 3.24676 17.3992 3.1875 17.25 3.1875ZM15.1875 18C15.1875 18.0497 15.1677 18.0974 15.1326 18.1326C15.0974 18.1677 15.0497 18.1875 15 18.1875H3C2.95027 18.1875 2.90258 18.1677 2.86742 18.1326C2.83225 18.0974 2.8125 18.0497 2.8125 18V4.3125H15.1875V18ZM4.6875 0.75C4.6875 0.600816 4.74676 0.457742 4.85225 0.352252C4.95774 0.246763 5.10082 0.1875 5.25 0.1875H12.75C12.8992 0.1875 13.0423 0.246763 13.1477 0.352252C13.2532 0.457742 13.3125 0.600816 13.3125 0.75C13.3125 0.899184 13.2532 1.04226 13.1477 1.14775C13.0423 1.25324 12.8992 1.3125 12.75 1.3125H5.25C5.10082 1.3125 4.95774 1.25324 4.85225 1.14775C4.74676 1.04226 4.6875 0.899184 4.6875 0.75Z" fill="url(#paint0_linear_16435_94)"/>
<defs>
<linearGradient id="paint0_linear_16435_94" x1="4.15339" y1="12.6614" x2="14.9956" y2="5.10144" gradientUnits="userSpaceOnUse">
<stop stop-color="#483FC5"/>
<stop offset="0.5" stop-color="#897BFF"/>
<stop offset="1" stop-color="#C4A3FF"/>
</linearGradient>
</defs>
</svg>
