<svg width="18" height="19" viewBox="0 0 18 19" fill="none" xmlns="http://www.w3.org/2000/svg">
<path d="M17.25 4.3125C17.25 4.49484 17.1776 4.6697 17.0486 4.79864C16.9197 4.92757 16.7448 5 16.5625 5H15.875V17.375C15.875 17.7397 15.7301 18.0894 15.4723 18.3473C15.2144 18.6051 14.8647 18.75 14.5 18.75H3.5C3.13533 18.75 2.78559 18.6051 2.52773 18.3473C2.26987 18.0894 2.125 17.7397 2.125 17.375V5H1.4375C1.25516 5 1.0803 4.92757 0.951364 4.79864C0.822433 4.6697 0.75 4.49484 0.75 4.3125C0.75 4.13016 0.822433 3.9553 0.951364 3.82636C1.0803 3.69743 1.25516 3.625 1.4375 3.625H16.5625C16.7448 3.625 16.9197 3.69743 17.0486 3.82636C17.1776 3.9553 17.25 4.13016 17.25 4.3125ZM5.5625 2.25H12.4375C12.6198 2.25 12.7947 2.17757 12.9236 2.04864C13.0526 1.9197 13.125 1.74484 13.125 1.5625C13.125 1.38016 13.0526 1.2053 12.9236 1.07636C12.7947 0.947433 12.6198 0.875 12.4375 0.875H5.5625C5.38016 0.875 5.2053 0.947433 5.07636 1.07636C4.94743 1.2053 4.875 1.38016 4.875 1.5625C4.875 1.74484 4.94743 1.9197 5.07636 2.04864C5.2053 2.17757 5.38016 2.25 5.5625 2.25Z" fill="white"/>
</svg>
