<svg width="12" height="13" viewBox="0 0 12 13" fill="none" xmlns="http://www.w3.org/2000/svg">
<path d="M12 2.5C12 2.63261 11.9473 2.75979 11.8536 2.85355C11.7598 2.94732 11.6326 3 11.5 3H11V12C11 12.2652 10.8946 12.5196 10.7071 12.7071C10.5196 12.8946 10.2652 13 10 13H2C1.73478 13 1.48043 12.8946 1.29289 12.7071C1.10536 12.5196 1 12.2652 1 12V3H0.5C0.367392 3 0.240215 2.94732 0.146447 2.85355C0.0526785 2.75979 0 2.63261 0 2.5C0 2.36739 0.0526785 2.24021 0.146447 2.14645C0.240215 2.05268 0.367392 2 0.5 2H11.5C11.6326 2 11.7598 2.05268 11.8536 2.14645C11.9473 2.24021 12 2.36739 12 2.5ZM3.5 1H8.5C8.63261 1 8.75979 0.947322 8.85355 0.853553C8.94732 0.759785 9 0.632608 9 0.5C9 0.367392 8.94732 0.240215 8.85355 0.146447C8.75979 0.0526784 8.63261 0 8.5 0H3.5C3.36739 0 3.24021 0.0526784 3.14645 0.146447C3.05268 0.240215 3 0.367392 3 0.5C3 0.632608 3.05268 0.759785 3.14645 0.853553C3.24021 0.947322 3.36739 1 3.5 1Z" fill="#D94439"/>
</svg>
