<svg width="11" height="11" viewBox="0 0 11 11" fill="none" xmlns="http://www.w3.org/2000/svg">
<g id="Binoculars">
<path id="Vector" d="M10.3555 6.47325C10.3555 6.47325 10.3555 6.47325 10.3555 6.4711C10.3246 6.38441 10.2882 6.29974 10.2468 6.21758L8.46183 2.15618C8.43606 2.09769 8.39963 2.04451 8.35441 1.99934C8.21077 1.85565 8.04022 1.74166 7.85251 1.66389C7.6648 1.58612 7.46361 1.54609 7.26043 1.54609C7.05725 1.54609 6.85606 1.58612 6.66835 1.66389C6.48064 1.74166 6.31009 1.85565 6.16644 1.99934C6.06998 2.09591 6.01574 2.22679 6.01562 2.36328V3.26563H4.98437V2.36328C4.98437 2.22664 4.93012 2.09559 4.83355 1.99891C4.68991 1.85522 4.51936 1.74123 4.33165 1.66346C4.14394 1.58569 3.94275 1.54566 3.73957 1.54566C3.53639 1.54566 3.3352 1.58569 3.14749 1.66346C2.95978 1.74123 2.78923 1.85522 2.64558 1.99891C2.60037 2.04408 2.56394 2.09726 2.53816 2.15575L0.753241 6.21758C0.71175 6.29974 0.675442 6.38441 0.64453 6.4711C0.64453 6.4711 0.64453 6.4711 0.64453 6.47325C0.535521 6.78011 0.494905 7.10708 0.525524 7.43129C0.556144 7.75549 0.65726 8.06908 0.821792 8.35011C0.986324 8.63113 1.2103 8.8728 1.47803 9.05818C1.74575 9.24356 2.05077 9.36818 2.37172 9.42331C2.69266 9.47845 3.02178 9.46276 3.33603 9.37735C3.65027 9.29194 3.94205 9.13887 4.19093 8.92887C4.43982 8.71886 4.63979 8.45699 4.77684 8.16159C4.9139 7.86619 4.98473 7.5444 4.98437 7.21875V4.29688H6.01562V7.21875C6.01527 7.5444 6.0861 7.86619 6.22315 8.16159C6.36021 8.45699 6.56018 8.71886 6.80906 8.92887C7.05795 9.13887 7.34973 9.29194 7.66397 9.37735C7.97822 9.46276 8.30734 9.47845 8.62828 9.42331C8.94923 9.36818 9.25424 9.24356 9.52197 9.05818C9.7897 8.8728 10.0137 8.63113 10.1782 8.35011C10.3427 8.06908 10.4439 7.75549 10.4745 7.43129C10.5051 7.10708 10.4645 6.78011 10.3555 6.47325ZM3.4375 2.6761C3.51117 2.62262 3.59768 2.5896 3.68825 2.58039C3.77881 2.57119 3.8702 2.58612 3.95312 2.62368V5.33715C3.49597 5.04379 2.94745 4.92736 2.41055 5.00973L3.4375 2.6761ZM2.75 8.42188C2.51204 8.42188 2.27943 8.35132 2.08158 8.21912C1.88373 8.08691 1.72952 7.89901 1.63846 7.67917C1.54739 7.45933 1.52357 7.21742 1.56999 6.98404C1.61641 6.75065 1.731 6.53628 1.89926 6.36802C2.06752 6.19976 2.2819 6.08517 2.51528 6.03875C2.74866 5.99232 2.99057 6.01615 3.21041 6.10721C3.43026 6.19827 3.61816 6.35248 3.75036 6.55033C3.88256 6.74819 3.95312 6.9808 3.95312 7.21875C3.95312 7.53784 3.82637 7.84386 3.60074 8.06949C3.37511 8.29512 3.06909 8.42188 2.75 8.42188ZM7.04687 2.62368C7.12986 2.58638 7.2212 2.57159 7.31171 2.58079C7.40222 2.59 7.48872 2.62287 7.5625 2.6761L8.58816 5.00973C8.05125 4.92736 7.50274 5.04379 7.04558 5.33715L7.04687 2.62368ZM8.25 8.42188C8.01204 8.42188 7.77943 8.35132 7.58158 8.21912C7.38373 8.08691 7.22952 7.89901 7.13846 7.67917C7.04739 7.45933 7.02357 7.21742 7.06999 6.98404C7.11641 6.75065 7.231 6.53628 7.39926 6.36802C7.56752 6.19976 7.7819 6.08517 8.01528 6.03875C8.24866 5.99232 8.49057 6.01615 8.71041 6.10721C8.93026 6.19827 9.11816 6.35248 9.25036 6.55033C9.38256 6.74819 9.45312 6.9808 9.45312 7.21875C9.45312 7.53784 9.32637 7.84386 9.10074 8.06949C8.87511 8.29512 8.56909 8.42188 8.25 8.42188Z" fill="#3B4CBF"/>
</g>
</svg>
