<svg width="11" height="11" viewBox="0 0 11 11" fill="none" xmlns="http://www.w3.org/2000/svg">
<g id="Binoculars">
<path id="Vector" d="M10.3555 6.47324C10.3555 6.47324 10.3555 6.47324 10.3555 6.47109C10.3246 6.3844 10.2882 6.29973 10.2468 6.21757L8.46183 2.15617C8.43606 2.09768 8.39963 2.0445 8.35441 1.99933C8.21077 1.85564 8.04022 1.74165 7.85251 1.66388C7.6648 1.58611 7.46361 1.54608 7.26043 1.54608C7.05725 1.54608 6.85606 1.58611 6.66835 1.66388C6.48064 1.74165 6.31009 1.85564 6.16644 1.99933C6.06998 2.0959 6.01574 2.22678 6.01562 2.36328V3.26562H4.98437V2.36328C4.98437 2.22663 4.93012 2.09558 4.83355 1.9989C4.68991 1.85521 4.51936 1.74122 4.33165 1.66345C4.14394 1.58568 3.94275 1.54565 3.73957 1.54565C3.53639 1.54565 3.3352 1.58568 3.14749 1.66345C2.95978 1.74122 2.78923 1.85521 2.64558 1.9989C2.60037 2.04407 2.56394 2.09725 2.53816 2.15574L0.753241 6.21757C0.71175 6.29973 0.675442 6.3844 0.64453 6.47109C0.64453 6.47109 0.64453 6.47109 0.64453 6.47324C0.535521 6.7801 0.494905 7.10708 0.525524 7.43128C0.556144 7.75548 0.65726 8.06908 0.821792 8.3501C0.986324 8.63112 1.2103 8.87279 1.47803 9.05817C1.74575 9.24355 2.05077 9.36817 2.37172 9.42331C2.69266 9.47844 3.02178 9.46275 3.33603 9.37734C3.65027 9.29193 3.94205 9.13887 4.19093 8.92886C4.43982 8.71885 4.63979 8.45698 4.77684 8.16158C4.9139 7.86618 4.98473 7.54439 4.98437 7.21875V4.29687H6.01562V7.21875C6.01527 7.54439 6.0861 7.86618 6.22315 8.16158C6.36021 8.45698 6.56018 8.71885 6.80906 8.92886C7.05795 9.13887 7.34973 9.29193 7.66397 9.37734C7.97822 9.46275 8.30734 9.47844 8.62828 9.42331C8.94923 9.36817 9.25424 9.24355 9.52197 9.05817C9.7897 8.87279 10.0137 8.63112 10.1782 8.3501C10.3427 8.06908 10.4439 7.75548 10.4745 7.43128C10.5051 7.10708 10.4645 6.7801 10.3555 6.47324ZM3.4375 2.67609C3.51117 2.62261 3.59768 2.58959 3.68825 2.58039C3.77881 2.57118 3.8702 2.58611 3.95312 2.62367V5.33714C3.49597 5.04378 2.94745 4.92735 2.41055 5.00972L3.4375 2.67609ZM2.75 8.42187C2.51204 8.42187 2.27943 8.35131 2.08158 8.21911C1.88373 8.08691 1.72952 7.899 1.63846 7.67916C1.54739 7.45932 1.52357 7.21741 1.56999 6.98403C1.61641 6.75064 1.731 6.53627 1.89926 6.36801C2.06752 6.19975 2.2819 6.08516 2.51528 6.03874C2.74866 5.99232 2.99057 6.01614 3.21041 6.1072C3.43026 6.19827 3.61816 6.35247 3.75036 6.55033C3.88256 6.74818 3.95312 6.98079 3.95312 7.21875C3.95312 7.53783 3.82637 7.84385 3.60074 8.06948C3.37511 8.29511 3.06909 8.42187 2.75 8.42187ZM7.04687 2.62367C7.12986 2.58637 7.2212 2.57158 7.31171 2.58079C7.40222 2.58999 7.48872 2.62286 7.5625 2.67609L8.58816 5.00972C8.05125 4.92735 7.50274 5.04378 7.04558 5.33714L7.04687 2.62367ZM8.25 8.42187C8.01204 8.42187 7.77943 8.35131 7.58158 8.21911C7.38373 8.08691 7.22952 7.899 7.13846 7.67916C7.04739 7.45932 7.02357 7.21741 7.06999 6.98403C7.11641 6.75064 7.231 6.53627 7.39926 6.36801C7.56752 6.19975 7.7819 6.08516 8.01528 6.03874C8.24866 5.99232 8.49057 6.01614 8.71041 6.1072C8.93026 6.19827 9.11816 6.35247 9.25036 6.55033C9.38256 6.74818 9.45312 6.98079 9.45312 7.21875C9.45312 7.53783 9.32637 7.84385 9.10074 8.06948C8.87511 8.29511 8.56909 8.42187 8.25 8.42187Z" fill="white"/>
</g>
</svg>
