<svg width="18" height="11" viewBox="0 0 18 11" fill="none" xmlns="http://www.w3.org/2000/svg">
<path d="M17.2949 2.79586L9.79492 10.2959C9.6904 10.4007 9.56621 10.484 9.42947 10.5407C9.29272 10.5975 9.14611 10.6267 8.99804 10.6267C8.84998 10.6267 8.70337 10.5975 8.56662 10.5407C8.42988 10.484 8.30569 10.4007 8.20117 10.2959L0.70117 2.79586C0.489826 2.58451 0.371094 2.29787 0.371094 1.99898C0.371094 1.7001 0.489826 1.41345 0.70117 1.20211C0.912515 0.990763 1.19916 0.872031 1.49805 0.872031C1.79693 0.872031 2.08358 0.990763 2.29492 1.20211L8.99898 7.90617L15.703 1.20117C15.9144 0.989826 16.201 0.871094 16.4999 0.871094C16.7988 0.871094 17.0854 0.989826 17.2968 1.20117C17.5081 1.41252 17.6269 1.69916 17.6269 1.99805C17.6269 2.29693 17.5081 2.58358 17.2968 2.79492L17.2949 2.79586Z" fill="#1E293B"/>
</svg>
