<svg width="14" height="14" viewBox="0 0 14 14" fill="none" xmlns="http://www.w3.org/2000/svg">
<g id="Coins">
<path id="Vector" d="M10.0625 4.89836V4.59375C10.0625 3.22219 7.99367 2.1875 5.25 2.1875C2.50633 2.1875 0.4375 3.22219 0.4375 4.59375V6.78125C0.4375 7.92367 1.87305 8.83148 3.9375 9.10328V9.40625C3.9375 10.7778 6.00633 11.8125 8.75 11.8125C11.4937 11.8125 13.5625 10.7778 13.5625 9.40625V7.21875C13.5625 6.08672 12.1723 5.17781 10.0625 4.89836ZM12.6875 7.21875C12.6875 7.94172 11.0037 8.75 8.75 8.75C8.54602 8.75 8.34367 8.74289 8.14406 8.72977C9.32367 8.29992 10.0625 7.60156 10.0625 6.78125V5.78266C11.696 6.02602 12.6875 6.68664 12.6875 7.21875ZM3.9375 8.2168V6.91578C4.37269 6.97249 4.81113 7.00062 5.25 7C5.68887 7.00062 6.12731 6.97249 6.5625 6.91578V8.2168C6.12796 8.28099 5.68926 8.31298 5.25 8.3125C4.81074 8.31298 4.37204 8.28099 3.9375 8.2168ZM9.1875 6.0118V6.78125C9.1875 7.24008 8.50883 7.73281 7.4375 8.03195V6.75391C8.14352 6.58273 8.74125 6.32789 9.1875 6.0118ZM5.25 3.0625C7.50367 3.0625 9.1875 3.87078 9.1875 4.59375C9.1875 5.31672 7.50367 6.125 5.25 6.125C2.99633 6.125 1.3125 5.31672 1.3125 4.59375C1.3125 3.87078 2.99633 3.0625 5.25 3.0625ZM1.3125 6.78125V6.0118C1.75875 6.32789 2.35648 6.58273 3.0625 6.75391V8.03195C1.99117 7.73281 1.3125 7.24008 1.3125 6.78125ZM4.8125 9.40625V9.1782C4.95633 9.18367 5.1018 9.1875 5.25 9.1875C5.46219 9.1875 5.66945 9.18039 5.87289 9.16836C6.09889 9.24926 6.3291 9.31791 6.5625 9.37398V10.657C5.49117 10.3578 4.8125 9.86508 4.8125 9.40625ZM7.4375 10.8418V9.5375C7.87255 9.59598 8.31104 9.62522 8.75 9.625C9.18887 9.62562 9.62731 9.59749 10.0625 9.54078V10.8418C9.19215 10.9694 8.30785 10.9694 7.4375 10.8418ZM10.9375 10.657V9.37891C11.6435 9.20773 12.2413 8.95289 12.6875 8.6368V9.40625C12.6875 9.86508 12.0088 10.3578 10.9375 10.657Z" fill="#323130"/>
</g>
</svg>
