<svg width="14" height="14" viewBox="0 0 14 14" fill="none" xmlns="http://www.w3.org/2000/svg">
<g id="ArrowSquareOut">
<path id="Vector" d="M12.25 5.6875C12.25 5.80353 12.2039 5.91481 12.1219 5.99686C12.0398 6.07891 11.9285 6.125 11.8125 6.125C11.6965 6.125 11.5852 6.07891 11.5031 5.99686C11.4211 5.91481 11.375 5.80353 11.375 5.6875V3.24406L7.74758 6.87203C7.66549 6.95412 7.55414 7.00024 7.43805 7.00024C7.32195 7.00024 7.21061 6.95412 7.12852 6.87203C7.04642 6.78994 7.0003 6.6786 7.0003 6.5625C7.0003 6.4464 7.04642 6.33506 7.12852 6.25297L10.7559 2.625H8.3125C8.19647 2.625 8.08519 2.57891 8.00314 2.49686C7.92109 2.41481 7.875 2.30353 7.875 2.1875C7.875 2.07147 7.92109 1.96019 8.00314 1.87814C8.08519 1.79609 8.19647 1.75 8.3125 1.75H11.8125C11.9285 1.75 12.0398 1.79609 12.1219 1.87814C12.2039 1.96019 12.25 2.07147 12.25 2.1875V5.6875ZM10.0625 7C9.94647 7 9.83519 7.04609 9.75314 7.12814C9.67109 7.21019 9.625 7.32147 9.625 7.4375V11.375H2.625V4.375H6.5625C6.67853 4.375 6.78981 4.32891 6.87186 4.24686C6.95391 4.16481 7 4.05353 7 3.9375C7 3.82147 6.95391 3.71019 6.87186 3.62814C6.78981 3.54609 6.67853 3.5 6.5625 3.5H2.625C2.39294 3.5 2.17038 3.59219 2.00628 3.75628C1.84219 3.92038 1.75 4.14294 1.75 4.375V11.375C1.75 11.6071 1.84219 11.8296 2.00628 11.9937C2.17038 12.1578 2.39294 12.25 2.625 12.25H9.625C9.85706 12.25 10.0796 12.1578 10.2437 11.9937C10.4078 11.8296 10.5 11.6071 10.5 11.375V7.4375C10.5 7.32147 10.4539 7.21019 10.3719 7.12814C10.2898 7.04609 10.1785 7 10.0625 7Z" fill="#1E293B"/>
</g>
</svg>
