<svg width="14" height="14" viewBox="0 0 14 14" fill="none" xmlns="http://www.w3.org/2000/svg">
<g id="SignOut">
<path id="Vector" d="M6.5625 11.8125C6.5625 11.9285 6.51641 12.0398 6.43436 12.1219C6.35231 12.2039 6.24103 12.25 6.125 12.25H2.625C2.50897 12.25 2.39769 12.2039 2.31564 12.1219C2.23359 12.0398 2.1875 11.9285 2.1875 11.8125V2.1875C2.1875 2.07147 2.23359 1.96019 2.31564 1.87814C2.39769 1.79609 2.50897 1.75 2.625 1.75H6.125C6.24103 1.75 6.35231 1.79609 6.43436 1.87814C6.51641 1.96019 6.5625 2.07147 6.5625 2.1875C6.5625 2.30353 6.51641 2.41481 6.43436 2.49686C6.35231 2.57891 6.24103 2.625 6.125 2.625H3.0625V11.375H6.125C6.24103 11.375 6.35231 11.4211 6.43436 11.5031C6.51641 11.5852 6.5625 11.6965 6.5625 11.8125ZM12.5595 6.69047L10.372 4.50297C10.2899 4.42088 10.1786 4.37476 10.0625 4.37476C9.9464 4.37476 9.83506 4.42088 9.75297 4.50297C9.67088 4.58506 9.62476 4.6964 9.62476 4.8125C9.62476 4.9286 9.67088 5.03994 9.75297 5.12203L11.194 6.5625H6.125C6.00897 6.5625 5.89769 6.60859 5.81564 6.69064C5.73359 6.77269 5.6875 6.88397 5.6875 7C5.6875 7.11603 5.73359 7.22731 5.81564 7.30936C5.89769 7.39141 6.00897 7.4375 6.125 7.4375H11.194L9.75297 8.87797C9.67088 8.96006 9.62476 9.0714 9.62476 9.1875C9.62476 9.3036 9.67088 9.41494 9.75297 9.49703C9.83506 9.57912 9.9464 9.62524 10.0625 9.62524C10.1786 9.62524 10.2899 9.57912 10.372 9.49703L12.5595 7.30953C12.6002 7.2689 12.6325 7.22065 12.6545 7.16754C12.6765 7.11442 12.6878 7.05749 12.6878 7C12.6878 6.94251 12.6765 6.88558 12.6545 6.83246C12.6325 6.77935 12.6002 6.7311 12.5595 6.69047Z" fill="#1E293B"/>
</g>
</svg>
