<svg width="16" height="16" viewBox="0 0 16 16" fill="none" xmlns="http://www.w3.org/2000/svg">
<path d="M14.3844 4.40848L11.5913 1.61598C11.3568 1.38164 11.039 1.25 10.7075 1.25C10.376 1.25 10.0582 1.38164 9.82375 1.61598L2.11625 9.32286C1.99978 9.43861 1.90744 9.57633 1.84457 9.72803C1.7817 9.87973 1.74956 10.0424 1.75 10.2066V12.9997C1.75 13.3313 1.8817 13.6492 2.11612 13.8836C2.35054 14.118 2.66848 14.2497 3 14.2497H13.5C13.6989 14.2497 13.8897 14.1707 14.0303 14.0301C14.171 13.8894 14.25 13.6986 14.25 13.4997C14.25 13.3008 14.171 13.1101 14.0303 12.9694C13.8897 12.8288 13.6989 12.7497 13.5 12.7497H7.8125L14.3844 6.17661C14.5005 6.06053 14.5926 5.92271 14.6555 5.77102C14.7183 5.61933 14.7507 5.45674 14.7507 5.29255C14.7507 5.12835 14.7183 4.96576 14.6555 4.81407C14.5926 4.66238 14.5005 4.52456 14.3844 4.40848ZM5.6875 12.7497H3.25V10.3122L8.5 5.06223L10.9375 7.49973L5.6875 12.7497ZM12 6.43723L9.5625 3.99973L10.7088 2.85348L13.1463 5.29098L12 6.43723Z" fill="url(#paint0_linear_17473_4324)"/>
<defs>
<linearGradient id="paint0_linear_17473_4324" x1="4.67535" y1="9.72881" x2="12.2337" y2="4.00969" gradientUnits="userSpaceOnUse">
<stop stop-color="#483FC5"/>
<stop offset="1" stop-color="#864CEF"/>
</linearGradient>
</defs>
</svg>
