<svg width="14" height="14" viewBox="0 0 14 14" fill="none" xmlns="http://www.w3.org/2000/svg">
<path d="M13.3838 3.90844L10.5913 1.11532C10.4752 0.999192 10.3374 0.907072 10.1857 0.844222C10.034 0.781372 9.87139 0.749023 9.70719 0.749023C9.543 0.749023 9.38041 0.781372 9.22872 0.844222C9.07703 0.907072 8.93921 0.999192 8.82313 1.11532L1.11626 8.82282C0.999757 8.93855 0.907394 9.07627 0.844523 9.22797C0.781653 9.37968 0.749526 9.54235 0.750005 9.70657V12.4997C0.750005 12.8312 0.881701 13.1492 1.11612 13.3836C1.35054 13.618 1.66848 13.7497 2.00001 13.7497H4.79313C4.95734 13.7501 5.12001 13.718 5.27171 13.6551C5.42341 13.5923 5.56112 13.4999 5.67688 13.3834L13.3838 5.67594C13.6181 5.44153 13.7497 5.12365 13.7497 4.79219C13.7497 4.46074 13.6181 4.14285 13.3838 3.90844ZM4.68751 12.2497H2.25001V9.81219L7.5 4.56219L9.9375 6.99969L4.68751 12.2497ZM11 5.93719L8.5625 3.49969L9.70875 2.35344L12.1463 4.79094L11 5.93719Z" fill="#3B4CBF"/>
</svg>
