<svg width="13" height="13" viewBox="0 0 13 13" fill="none" xmlns="http://www.w3.org/2000/svg">
<path d="M12.4854 3.13295L9.8668 0.514984C9.64704 0.295292 9.34903 0.171875 9.03829 0.171875C8.72755 0.171875 8.42953 0.295292 8.20977 0.514984L0.983989 7.74018C0.874797 7.8487 0.788225 7.97781 0.729285 8.12003C0.670346 8.26225 0.640212 8.41475 0.640629 8.5687V11.1873C0.640629 11.4981 0.764094 11.7961 0.983864 12.0159C1.20363 12.2357 1.5017 12.3591 1.8125 12.3591H11.6563C11.8427 12.3591 12.0216 12.285 12.1534 12.1532C12.2853 12.0213 12.3594 11.8425 12.3594 11.656C12.3594 11.4695 12.2853 11.2907 12.1534 11.1588C12.0216 11.027 11.8427 10.9529 11.6563 10.9529H6.32422L12.4854 4.79057C12.5942 4.68175 12.6806 4.55254 12.7395 4.41033C12.7984 4.26812 12.8288 4.11569 12.8288 3.96176C12.8288 3.80783 12.7984 3.6554 12.7395 3.51319C12.6806 3.37099 12.5942 3.24178 12.4854 3.13295ZM4.33204 10.9529H2.04688V8.66772L6.96875 3.74584L9.25391 6.031L4.33204 10.9529ZM10.25 5.03491L7.96485 2.74975L9.03946 1.67514L11.3246 3.9603L10.25 5.03491Z" fill="white"/>
</svg>
