<svg width="16" height="16" viewBox="0 0 16 16" fill="none" xmlns="http://www.w3.org/2000/svg">
<path fill-rule="evenodd" clip-rule="evenodd" d="M10.5827 2.74399C10.739 2.58776 10.9509 2.5 11.1719 2.5C11.3929 2.5 11.6048 2.58776 11.7611 2.74399L13.2552 4.23816C13.4114 4.39443 13.4992 4.60635 13.4992 4.82732C13.4992 5.04829 13.4114 5.26022 13.2552 5.41649L11.6277 7.04401L5.49481 13.1769C5.33856 13.3332 5.12664 13.421 4.90564 13.421H3.41147C3.19046 13.421 2.9785 13.3332 2.82222 13.177C2.66594 13.0207 2.57814 12.8087 2.57814 12.5877V11.0935C2.57819 10.8726 2.66602 10.6606 2.82231 10.5044L8.95439 4.3715L10.5827 2.74399ZM9.83855 4.66651L11.3327 6.16067L12.6661 4.82732L11.1719 3.33316L9.83855 4.66651ZM10.7436 6.74984L9.24939 5.25567L3.41147 11.0935V12.5877H4.90564L10.7436 6.74984Z" fill="#323130"/>
</svg>
