<svg width="17" height="17" viewBox="0 0 17 17" fill="none" xmlns="http://www.w3.org/2000/svg">
<path d="M11.3838 0.921875C11.5418 0.921875 11.6987 0.953192 11.8447 1.01367C11.9905 1.07411 12.1228 1.16283 12.2344 1.27441L15.7266 4.76465C15.8383 4.87637 15.9268 5.00929 15.9873 5.15527C16.0478 5.30126 16.0791 5.45819 16.0791 5.61621C16.0791 5.77403 16.0477 5.93035 15.9873 6.07617C15.9268 6.22212 15.8383 6.35509 15.7266 6.4668L6.89648 15.2969H14.875C15.0283 15.2969 15.1758 15.3574 15.2842 15.4658C15.3925 15.5742 15.4531 15.7217 15.4531 15.875C15.4531 16.0281 15.3923 16.1749 15.2842 16.2832C15.1758 16.3916 15.0283 16.4531 14.875 16.4531H1.75C1.43096 16.4531 1.12503 16.3262 0.899414 16.1006C0.673828 15.875 0.546924 15.569 0.546875 15.25V11.7578C0.54643 11.6 0.577257 11.4436 0.637695 11.2979C0.698206 11.1519 0.787275 11.0195 0.899414 10.9082L10.5332 1.27441C10.6449 1.16266 10.7778 1.07415 10.9238 1.01367C11.0697 0.953273 11.2259 0.921901 11.3838 0.921875ZM1.70312 11.7393V15.2969H5.26074L12.1826 8.375L8.625 4.81738L1.70312 11.7393ZM9.44336 4L9.47656 4.0332L12.9668 7.52441L13 7.55762L14.9414 5.61621L14.9082 5.58301L11.418 2.0918L11.3848 2.05859L9.44336 4Z" fill="url(#paint0_linear_17261_756)" stroke="url(#paint1_linear_17261_756)" stroke-width="0.09375"/>
<defs>
<linearGradient id="paint0_linear_17261_756" x1="4.016" y1="11.066" x2="13.1005" y2="4.19216" gradientUnits="userSpaceOnUse">
<stop stop-color="#483FC5"/>
<stop offset="1" stop-color="#864CEF"/>
</linearGradient>
<linearGradient id="paint1_linear_17261_756" x1="4.016" y1="11.066" x2="13.1005" y2="4.19216" gradientUnits="userSpaceOnUse">
<stop stop-color="#483FC5"/>
<stop offset="1" stop-color="#864CEF"/>
</linearGradient>
</defs>
</svg>
