<svg width="14" height="11" viewBox="0 0 14 11" fill="none" xmlns="http://www.w3.org/2000/svg">
<path d="M13 0.25H1C0.801088 0.25 0.610322 0.329018 0.46967 0.46967C0.329018 0.610322 0.25 0.801088 0.25 1V9.5C0.25 9.83152 0.381696 10.1495 0.616117 10.3839C0.850537 10.6183 1.16848 10.75 1.5 10.75H12.5C12.8315 10.75 13.1495 10.6183 13.3839 10.3839C13.6183 10.1495 13.75 9.83152 13.75 9.5V1C13.75 0.801088 13.671 0.610322 13.5303 0.46967C13.3897 0.329018 13.1989 0.25 13 0.25ZM11.0719 1.75L7 5.4825L2.92812 1.75H11.0719ZM1.75 9.25V2.705L6.49312 7.05313C6.63146 7.17997 6.81232 7.25033 7 7.25033C7.18768 7.25033 7.36854 7.17997 7.50688 7.05313L12.25 2.705V9.25H1.75Z" fill="#3B4CBF"/>
</svg>
