<svg width="32" height="32" viewBox="0 0 32 32" fill="none" xmlns="http://www.w3.org/2000/svg">
<rect width="32" height="32" rx="8" fill="url(#paint0_linear_16706_17866)"/>
<path d="M14.75 16.6719C14.9034 16.6719 15.0507 16.7323 15.1592 16.8408C15.2677 16.9493 15.3281 17.0966 15.3281 17.25C15.3281 17.4034 15.2677 17.5507 15.1592 17.6592L11.2256 21.5918L11.1455 21.6719H13.5C13.6533 21.6719 13.8008 21.7324 13.9092 21.8408C14.0176 21.9492 14.0781 22.0967 14.0781 22.25C14.0781 22.4033 14.0176 22.5508 13.9092 22.6592C13.8008 22.7676 13.6533 22.8281 13.5 22.8281H9.75C9.59667 22.8281 9.44924 22.7676 9.34082 22.6592C9.2324 22.5508 9.17188 22.4033 9.17188 22.25V18.5C9.17188 18.3467 9.2324 18.1992 9.34082 18.0908C9.44924 17.9824 9.59667 17.9219 9.75 17.9219C9.90333 17.9219 10.0508 17.9824 10.1592 18.0908C10.2676 18.1992 10.3281 18.3467 10.3281 18.5V20.8545L10.4082 20.7744L14.3408 16.8408C14.4493 16.7323 14.5966 16.6719 14.75 16.6719ZM18.5 9.17188H22.25C22.4033 9.17188 22.5508 9.2324 22.6592 9.34082C22.7676 9.44924 22.8281 9.59667 22.8281 9.75V13.5C22.8281 13.6533 22.7676 13.8008 22.6592 13.9092C22.5508 14.0176 22.4033 14.0781 22.25 14.0781C22.0967 14.0781 21.9492 14.0176 21.8408 13.9092C21.7324 13.8008 21.6719 13.6533 21.6719 13.5V11.1455L21.5918 11.2256L17.6592 15.1592C17.5507 15.2677 17.4034 15.3281 17.25 15.3281C17.0966 15.3281 16.9493 15.2677 16.8408 15.1592C16.7323 15.0507 16.6719 14.9034 16.6719 14.75C16.6719 14.5966 16.7323 14.4493 16.8408 14.3408L20.7744 10.4082L20.8545 10.3281H18.5C18.3467 10.3281 18.1992 10.2676 18.0908 10.1592C17.9824 10.0508 17.9219 9.90333 17.9219 9.75C17.9219 9.59667 17.9824 9.44924 18.0908 9.34082C18.1992 9.2324 18.3467 9.17188 18.5 9.17188Z" fill="white" stroke="white" stroke-width="0.09375"/>
<defs>
<linearGradient id="paint0_linear_16706_17866" x1="7.20048" y1="20.8713" x2="25.8056" y2="6.79451" gradientUnits="userSpaceOnUse">
<stop stop-color="#483FC5"/>
<stop offset="0.5" stop-color="#897BFF"/>
<stop offset="1" stop-color="#C4A3FF"/>
</linearGradient>
</defs>
</svg>
