<svg width="20" height="20" viewBox="0 0 20 20" fill="none" xmlns="http://www.w3.org/2000/svg">
<g id="UploadSimple">
<path id="Vector" d="M17.5 11.2495V16.2495C17.5 16.4153 17.4342 16.5742 17.3169 16.6915C17.1997 16.8087 17.0408 16.8745 16.875 16.8745H3.125C2.95924 16.8745 2.80027 16.8087 2.68306 16.6915C2.56585 16.5742 2.5 16.4153 2.5 16.2495V11.2495C2.5 11.0838 2.56585 10.9248 2.68306 10.8076C2.80027 10.6904 2.95924 10.6245 3.125 10.6245C3.29076 10.6245 3.44973 10.6904 3.56694 10.8076C3.68415 10.9248 3.75 11.0838 3.75 11.2495V15.6245H16.25V11.2495C16.25 11.0838 16.3158 10.9248 16.4331 10.8076C16.5503 10.6904 16.7092 10.6245 16.875 10.6245C17.0408 10.6245 17.1997 10.6904 17.3169 10.8076C17.4342 10.9248 17.5 11.0838 17.5 11.2495ZM7.31719 6.0667L9.375 4.00811V11.2495C9.375 11.4153 9.44085 11.5742 9.55806 11.6915C9.67527 11.8087 9.83424 11.8745 10 11.8745C10.1658 11.8745 10.3247 11.8087 10.4419 11.6915C10.5592 11.5742 10.625 11.4153 10.625 11.2495V4.00811L12.6828 6.0667C12.8001 6.18398 12.9591 6.24986 13.125 6.24986C13.2909 6.24986 13.4499 6.18398 13.5672 6.0667C13.6845 5.94943 13.7503 5.79037 13.7503 5.62452C13.7503 5.45866 13.6845 5.2996 13.5672 5.18233L10.4422 2.05733C10.3841 1.99922 10.3152 1.95312 10.2393 1.92167C10.1635 1.89021 10.0821 1.87402 10 1.87402C9.91787 1.87402 9.83654 1.89021 9.76066 1.92167C9.68479 1.95312 9.61586 1.99922 9.55781 2.05733L6.43281 5.18233C6.31554 5.2996 6.24965 5.45866 6.24965 5.62452C6.24965 5.79037 6.31554 5.94943 6.43281 6.0667C6.55009 6.18398 6.70915 6.24986 6.875 6.24986C7.04085 6.24986 7.19991 6.18398 7.31719 6.0667Z" fill="#1E293B"/>
</g>
</svg>
