<svg width="24" height="24" viewBox="0 0 24 24" fill="none" xmlns="http://www.w3.org/2000/svg">
<g id="icon">
<path id="Rectangle 437" d="M5.25 7.5C5.25 6.25736 6.25736 5.25 7.5 5.25H16.5C17.7426 5.25 18.75 6.25736 18.75 7.5V16.5C18.75 17.7426 17.7426 18.75 16.5 18.75H7.5C6.25736 18.75 5.25 17.7426 5.25 16.5V7.5Z" stroke="#3B4CBF" stroke-width="1.5" stroke-linecap="round" stroke-linejoin="round"/>
<path id="Rectangle 438" d="M5.25 7.5C5.25 6.25736 6.25736 5.25 7.5 5.25H16.5C17.7426 5.25 18.75 6.25736 18.75 7.5V16.5C18.75 17.7426 17.7426 18.75 16.5 18.75H7.5C6.25736 18.75 5.25 17.7426 5.25 16.5V7.5Z" fill="#3B4CBF"/>
<path id="Vector" d="M9 12L11.25 14.25L15 9" stroke="white" stroke-width="1.5" stroke-linecap="round" stroke-linejoin="round"/>
</g>
</svg>
