<svg width="20" height="20" viewBox="0 0 20 20" fill="none" xmlns="http://www.w3.org/2000/svg">
<g id="diploma_icon 1" clip-path="url(#clip0_1397_190865)">
<path id="Vector" d="M5.83341 9.58333C5.83341 9.25181 5.96511 8.93387 6.19953 8.69945C6.43395 8.46503 6.75189 8.33333 7.08341 8.33333H9.58341C9.91494 8.33333 10.2329 8.46503 10.4673 8.69945C10.7017 8.93387 10.8334 9.25181 10.8334 9.58333C10.8334 9.91485 10.7017 10.2328 10.4673 10.4672C10.2329 10.7016 9.91494 10.8333 9.58341 10.8333H7.08341C6.75189 10.8333 6.43395 10.7016 6.19953 10.4672C5.96511 10.2328 5.83341 9.91485 5.83341 9.58333ZM7.08341 6.66667H12.9167C13.2483 6.66667 13.5662 6.53497 13.8006 6.30055C14.0351 6.06613 14.1667 5.74819 14.1667 5.41667C14.1667 5.08515 14.0351 4.7672 13.8006 4.53278C13.5662 4.29836 13.2483 4.16667 12.9167 4.16667H7.08341C6.75189 4.16667 6.43395 4.29836 6.19953 4.53278C5.96511 4.7672 5.83341 5.08515 5.83341 5.41667C5.83341 5.74819 5.96511 6.06613 6.19953 6.30055C6.43395 6.53497 6.75189 6.66667 7.08341 6.66667ZM17.5001 16.645V19.0967C17.5001 19.275 17.4472 19.4493 17.3481 19.5975C17.249 19.7458 17.1082 19.8613 16.9434 19.9296C16.7787 19.9978 16.5974 20.0156 16.4225 19.9809C16.2477 19.9461 16.087 19.8602 15.9609 19.7342L15.0001 18.7733L14.0392 19.7342C13.9131 19.8602 13.7525 19.9461 13.5776 19.9809C13.4027 20.0156 13.2215 19.9978 13.0567 19.9296C12.892 19.8613 12.7512 19.7458 12.6521 19.5975C12.553 19.4493 12.5001 19.275 12.5001 19.0967V16.645C11.746 16.0775 11.2074 15.2703 10.9729 14.3561C10.7384 13.4419 10.822 12.4751 11.2098 11.6147C11.5977 10.7542 12.2667 10.0514 13.107 9.62163C13.9473 9.19188 14.9088 9.06082 15.8334 9.25V4.58333C15.8334 4.0308 15.6139 3.5009 15.2232 3.11019C14.8325 2.71949 14.3026 2.5 13.7501 2.5L6.25591 2.53167C5.98184 2.5309 5.7103 2.58422 5.45687 2.68857C5.20343 2.79293 4.97308 2.94626 4.779 3.13979C4.58493 3.33333 4.43095 3.56325 4.32589 3.81639C4.22083 4.06954 4.16675 4.34092 4.16675 4.615V14.5833C4.16675 15.1359 4.38624 15.6658 4.77694 16.0565C5.16764 16.4472 5.69755 16.6667 6.25008 16.6667H9.58341C9.91494 16.6667 10.2329 16.7984 10.4673 17.0328C10.7017 17.2672 10.8334 17.5851 10.8334 17.9167C10.8334 18.2482 10.7017 18.5661 10.4673 18.8006C10.2329 19.035 9.91494 19.1667 9.58341 19.1667H6.25008C5.03498 19.1651 3.87009 18.6817 3.01088 17.8225C2.15167 16.9633 1.66829 15.7984 1.66675 14.5833V4.615C1.66829 3.3999 2.15167 2.23501 3.01088 1.3758C3.87009 0.516591 5.03498 0.0332102 6.25008 0.0316667L13.7442 0C14.9602 0.000439829 16.1264 0.483281 16.9867 1.34256C17.8471 2.20184 18.3314 3.36736 18.3334 4.58333V10.8592C18.6616 11.2926 18.9005 11.7869 19.0364 12.3133C19.1722 12.8398 19.2022 13.3879 19.1247 13.9261C19.0472 14.4642 18.8637 14.9816 18.5848 15.4483C18.306 15.915 17.9373 16.3218 17.5001 16.645ZM13.3334 13.3333C13.3334 13.663 13.4312 13.9852 13.6143 14.2593C13.7974 14.5334 14.0577 14.747 14.3623 14.8731C14.6668 14.9993 15.0019 15.0323 15.3252 14.968C15.6485 14.9037 15.9455 14.7449 16.1786 14.5118C16.4117 14.2788 16.5704 13.9818 16.6347 13.6585C16.699 13.3352 16.666 13.0001 16.5399 12.6955C16.4137 12.391 16.2001 12.1307 15.926 11.9476C15.6519 11.7644 15.3297 11.6667 15.0001 11.6667C14.5581 11.6667 14.1341 11.8423 13.8216 12.1548C13.509 12.4674 13.3334 12.8913 13.3334 13.3333Z" fill="#323130" stroke="#F1F2F4"/>
</g>
<defs>
<clipPath id="clip0_1397_190865">
<rect width="20" height="20" fill="white"/>
</clipPath>
</defs>
</svg>
