<svg width="32" height="32" viewBox="0 0 32 32" fill="none" xmlns="http://www.w3.org/2000/svg">
<g id="bell">
<path id="Vector" d="M19.8091 22.7756C22.3352 22.476 24.7711 21.8821 27.0815 21.0292C25.1658 18.9027 23.9997 16.0875 23.9997 13V12.0656C23.9999 12.0437 24 12.0219 24 12C24 7.58172 20.4183 4 16 4C11.5817 4 8 7.58172 8 12L7.99974 13C7.99974 16.0875 6.8337 18.9027 4.91797 21.0292C7.22854 21.8821 9.66458 22.4761 12.1908 22.7757M19.8091 22.7756C18.56 22.9238 17.2888 23 15.9997 23C14.7109 23 13.4398 22.9238 12.1908 22.7757M19.8091 22.7756C19.9331 23.1615 20 23.5729 20 24C20 26.2091 18.2091 28 16 28C13.7909 28 12 26.2091 12 24C12 23.573 12.0669 23.1615 12.1908 22.7757" stroke="#3B4CBF" stroke-width="1.5" stroke-linecap="round" stroke-linejoin="round"/>
</g>
</svg>
