<svg width="30" height="30" viewBox="0 0 30 30" fill="none" xmlns="http://www.w3.org/2000/svg">
<path d="M25.0498 8.52511L17.8498 3.48761C15.8873 2.11261 12.8748 2.18761 10.9873 3.65011L4.7248 8.5376C3.4748 9.5126 2.4873 11.5126 2.4873 13.0876V21.7126C2.4873 24.9001 5.0748 27.5001 8.2623 27.5001H21.7373C24.9248 27.5001 27.5123 24.9126 27.5123 21.7251V13.2501C27.5123 11.5626 26.4248 9.48761 25.0498 8.52511Z" fill="url(#paint0_linear_15167_1840)"/>
<path d="M15 23.4375C14.4875 23.4375 14.0625 23.0125 14.0625 22.5V18.75C14.0625 18.2375 14.4875 17.8125 15 17.8125C15.5125 17.8125 15.9375 18.2375 15.9375 18.75V22.5C15.9375 23.0125 15.5125 23.4375 15 23.4375Z" fill="white"/>
<defs>
<linearGradient id="paint0_linear_15167_1840" x1="8.11831" y1="18.8068" x2="22.6563" y2="7.79498" gradientUnits="userSpaceOnUse">
<stop stop-color="#483FC5"/>
<stop offset="1" stop-color="#864CEF"/>
</linearGradient>
</defs>
</svg>
