<svg width="16" height="16" viewBox="0 0 16 16" fill="none" xmlns="http://www.w3.org/2000/svg">
<path d="M9.50087 4.99977C9.50087 4.86716 9.55355 4.73998 9.64732 4.64622C9.74109 4.55245 9.86826 4.49977 10.0009 4.49977H15.5009C15.6335 4.49977 15.7607 4.55245 15.8544 4.64622C15.9482 4.73998 16.0009 4.86716 16.0009 4.99977C16.0009 5.13238 15.9482 5.25955 15.8544 5.35332C15.7607 5.44709 15.6335 5.49977 15.5009 5.49977H10.0009C9.86826 5.49977 9.74109 5.44709 9.64732 5.35332C9.55355 5.25955 9.50087 5.13238 9.50087 4.99977ZM15.5009 7.49977H10.0009C9.86826 7.49977 9.74109 7.55245 9.64732 7.64622C9.55355 7.73998 9.50087 7.86716 9.50087 7.99977C9.50087 8.13238 9.55355 8.25956 9.64732 8.35332C9.74109 8.44709 9.86826 8.49977 10.0009 8.49977H15.5009C15.6335 8.49977 15.7607 8.44709 15.8544 8.35332C15.9482 8.25956 16.0009 8.13238 16.0009 7.99977C16.0009 7.86716 15.9482 7.73998 15.8544 7.64622C15.7607 7.55245 15.6335 7.49977 15.5009 7.49977ZM15.5009 10.4998H11.5009C11.3683 10.4998 11.2411 10.5524 11.1473 10.6462C11.0535 10.74 11.0009 10.8672 11.0009 10.9998C11.0009 11.1324 11.0535 11.2596 11.1473 11.3533C11.2411 11.4471 11.3683 11.4998 11.5009 11.4998H15.5009C15.6335 11.4998 15.7607 11.4471 15.8544 11.3533C15.9482 11.2596 16.0009 11.1324 16.0009 10.9998C16.0009 10.8672 15.9482 10.74 15.8544 10.6462C15.7607 10.5524 15.6335 10.4998 15.5009 10.4998ZM9.48525 11.8748C9.50159 11.9384 9.50524 12.0046 9.496 12.0696C9.48675 12.1346 9.46478 12.1972 9.43135 12.2537C9.39792 12.3103 9.35368 12.3596 9.30116 12.3991C9.24864 12.4385 9.18886 12.4672 9.12525 12.4835C9.08449 12.4945 9.04245 12.5 9.00025 12.4998C8.88935 12.4998 8.78159 12.463 8.69391 12.3951C8.60622 12.3272 8.54359 12.2321 8.51587 12.1248C8.13087 10.6285 6.61962 9.49977 5.00025 9.49977C3.38087 9.49977 1.86962 10.6279 1.48462 12.1248C1.45147 12.2532 1.36864 12.3633 1.25436 12.4307C1.14008 12.4981 1.00371 12.5173 0.875245 12.4841C0.746781 12.451 0.636748 12.3682 0.569352 12.2539C0.501956 12.1396 0.482718 12.0032 0.51587 11.8748C0.865245 10.5179 1.88087 9.41915 3.16962 8.87477C2.67339 8.49256 2.30924 7.96461 2.12824 7.36497C1.94723 6.76533 1.95846 6.12407 2.16034 5.53114C2.36222 4.9382 2.74462 4.42332 3.25393 4.05871C3.76323 3.6941 4.37388 3.49805 5.00025 3.49805C5.62661 3.49805 6.23726 3.6941 6.74657 4.05871C7.25587 4.42332 7.63828 4.9382 7.84016 5.53114C8.04203 6.12407 8.05326 6.76533 7.87226 7.36497C7.69125 7.96461 7.3271 8.49256 6.83087 8.87477C8.12025 9.41915 9.13587 10.5179 9.48525 11.8748ZM5.00087 8.49977C5.39643 8.49977 5.78311 8.38247 6.11201 8.16271C6.44091 7.94295 6.69725 7.63059 6.84863 7.26514C7.00001 6.89968 7.03961 6.49755 6.96244 6.10959C6.88527 5.72163 6.69479 5.36526 6.41508 5.08556C6.13538 4.80585 5.77901 4.61537 5.39105 4.5382C5.00309 4.46103 4.60096 4.50064 4.2355 4.65201C3.87005 4.80339 3.55769 5.05973 3.33793 5.38863C3.11817 5.71753 3.00087 6.10421 3.00087 6.49977C3.00087 7.0302 3.21158 7.53891 3.58666 7.91398C3.96173 8.28906 4.47044 8.49977 5.00087 8.49977Z" fill="#1E293B"/>
</svg>
