<svg width="15" height="16" viewBox="0 0 15 16" fill="none" xmlns="http://www.w3.org/2000/svg">
<g id="Globe">
<path id="Vector" d="M7.5 1.90625C6.29477 1.90625 5.11661 2.26364 4.1145 2.93323C3.11238 3.60282 2.33133 4.55454 1.87011 5.66802C1.40889 6.78151 1.28821 8.00676 1.52334 9.18883C1.75847 10.3709 2.33884 11.4567 3.19107 12.3089C4.0433 13.1612 5.1291 13.7415 6.31117 13.9767C7.49324 14.2118 8.71849 14.0911 9.83198 13.6299C10.9455 13.1687 11.8972 12.3876 12.5668 11.3855C13.2364 10.3834 13.5938 9.20523 13.5938 8C13.5919 6.38441 12.9493 4.83552 11.8069 3.69312C10.6645 2.55073 9.11559 1.90811 7.5 1.90625ZM12.6563 8C12.6567 8.47552 12.591 8.9488 12.4611 9.40625H10.2047C10.3484 8.47426 10.3484 7.52574 10.2047 6.59375H12.4611C12.591 7.0512 12.6567 7.52448 12.6563 8ZM5.97656 10.3437H9.02344C8.72327 11.3273 8.20218 12.2292 7.5 12.9805C6.79809 12.229 6.27704 11.3272 5.97656 10.3437ZM5.74805 9.40625C5.58712 8.47566 5.58712 7.52434 5.74805 6.59375H9.25664C9.41757 7.52434 9.41757 8.47566 9.25664 9.40625H5.74805ZM2.34375 8C2.34334 7.52448 2.40901 7.0512 2.53887 6.59375H4.79531C4.65156 7.52574 4.65156 8.47426 4.79531 9.40625H2.53887C2.40901 8.9488 2.34334 8.47552 2.34375 8ZM9.02344 5.65625H5.97656C6.27673 4.6727 6.79783 3.77081 7.5 3.01953C8.20191 3.77101 8.72297 4.67283 9.02344 5.65625ZM12.0897 5.65625H10.0025C9.73949 4.69116 9.29614 3.78458 8.6959 2.98438C9.42112 3.15859 10.1001 3.48756 10.6863 3.94874C11.2725 4.40992 11.752 4.9924 12.092 5.65625H12.0897ZM6.3041 2.98438C5.70387 3.78458 5.26052 4.69116 4.99746 5.65625H2.90801C3.24801 4.9924 3.72754 4.40992 4.31373 3.94874C4.89991 3.48756 5.57888 3.15859 6.3041 2.98438ZM2.90801 10.3437H4.99746C5.26052 11.3088 5.70387 12.2154 6.3041 13.0156C5.57888 12.8414 4.89991 12.5124 4.31373 12.0513C3.72754 11.5901 3.24801 11.0076 2.90801 10.3437ZM8.6959 13.0156C9.29614 12.2154 9.73949 11.3088 10.0025 10.3437H12.092C11.752 11.0076 11.2725 11.5901 10.6863 12.0513C10.1001 12.5124 9.42112 12.8414 8.6959 13.0156Z" fill="#3B4CBF"/>
</g>
</svg>
