<svg width="11" height="11" viewBox="0 0 11 11" fill="none" xmlns="http://www.w3.org/2000/svg">
<g id="GlobeSimple">
<path id="Vector" d="M5.5 0.859375C4.58217 0.859375 3.68496 1.13154 2.92181 1.64146C2.15866 2.15138 1.56386 2.87615 1.21262 3.72411C0.861386 4.57207 0.769486 5.50515 0.948545 6.40534C1.1276 7.30553 1.56958 8.13241 2.21858 8.78142C2.86759 9.43042 3.69447 9.8724 4.59466 10.0515C5.49485 10.2305 6.42793 10.1386 7.27589 9.78738C8.12386 9.43614 8.84862 8.84134 9.35854 8.07819C9.86846 7.31505 10.1406 6.41783 10.1406 5.5C10.1393 4.26965 9.6499 3.09008 8.77991 2.22009C7.90992 1.3501 6.73035 0.86074 5.5 0.859375ZM9.07199 4.98438H7.71547C7.6473 3.97322 7.33232 2.99418 6.79809 2.13297C7.39562 2.36438 7.92099 2.7503 8.32051 3.25128C8.72002 3.75225 8.97935 4.35033 9.07199 4.98438ZM5.5 8.89453C5.09781 8.43004 4.44899 7.47098 4.32051 6.01562H6.68121C6.61702 6.81858 6.3652 7.59524 5.94602 8.28309C5.81415 8.49864 5.66498 8.70313 5.5 8.89453ZM4.32051 4.98438C4.3847 4.18142 4.63652 3.40476 5.05571 2.71691C5.18703 2.50142 5.33562 2.29694 5.5 2.10547C5.90219 2.56996 6.55102 3.52902 6.67949 4.98438H4.32051ZM4.20192 2.13297C3.66769 2.99418 3.3527 3.97322 3.28453 4.98438H1.92801C2.02065 4.35033 2.27998 3.75225 2.6795 3.25128C3.07901 2.7503 3.60439 2.36438 4.20192 2.13297ZM1.92801 6.01562H3.28453C3.3527 7.02678 3.66769 8.00582 4.20192 8.86703C3.60439 8.63562 3.07901 8.24971 2.6795 7.74873C2.27998 7.24775 2.02065 6.64967 1.92801 6.01562ZM6.79809 8.86703C7.33232 8.00582 7.6473 7.02678 7.71547 6.01562H9.07199C8.97935 6.64967 8.72002 7.24775 8.32051 7.74873C7.92099 8.24971 7.39562 8.63562 6.79809 8.86703Z" fill="white"/>
</g>
</svg>
