<svg width="9" height="15" viewBox="0 0 9 15" fill="none" xmlns="http://www.w3.org/2000/svg">
<path d="M7.49805 0.350586C7.73675 0.350586 7.96597 0.44547 8.13477 0.614258C8.30356 0.783053 8.39844 1.01226 8.39844 1.25098C8.39835 1.4895 8.30339 1.71802 8.13477 1.88672L2.5498 7.47266L2.52246 7.5L2.5498 7.52734L8.13477 13.1143C8.30356 13.2831 8.39844 13.5123 8.39844 13.751C8.39835 13.9895 8.30339 14.218 8.13477 14.3867C7.96597 14.5555 7.73676 14.6504 7.49805 14.6504C7.25946 14.6503 7.03102 14.5554 6.8623 14.3867L0.612305 8.13672C0.528546 8.05325 0.461362 7.95393 0.416016 7.84473C0.37085 7.73577 0.347699 7.61893 0.347656 7.50098C0.347656 7.38281 0.370733 7.26539 0.416016 7.15625C0.461362 7.04704 0.528546 6.94773 0.612305 6.86426L6.8623 0.614258C7.031 0.445639 7.25953 0.350678 7.49805 0.350586Z" fill="#D1D1D6" stroke="#D1D1D6" stroke-width="0.078125"/>
</svg>
