<svg width="20" height="18" viewBox="0 0 20 18" fill="none" xmlns="http://www.w3.org/2000/svg">
<path id="Vector" d="M2.64827 5.53736C1.80209 6.53767 1.15639 7.71301 0.773163 9.00136C1.95685 12.9765 5.63952 15.875 9.99918 15.875C10.909 15.875 11.7894 15.7488 12.6237 15.5128M4.70866 3.70866C6.2269 2.70762 8.0454 2.125 9.99998 2.125C14.3596 2.125 18.0423 5.02354 19.226 8.99864C18.5734 11.1925 17.1597 13.0587 15.291 14.291M4.70866 3.70866L1.75 0.75M4.70866 3.70866L8.05546 7.05546M15.291 14.291L18.25 17.25M15.291 14.291L11.9445 10.9445M11.9445 10.9445C12.4422 10.4469 12.75 9.75939 12.75 9C12.75 7.48122 11.5188 6.25 10 6.25C9.24061 6.25 8.55311 6.5578 8.05546 7.05546M11.9445 10.9445L8.05546 7.05546" stroke="#0F172A" stroke-width="1.5" stroke-linecap="round" stroke-linejoin="round"/>
</svg>
