<svg width="22" height="22" viewBox="0 0 22 22" fill="none" xmlns="http://www.w3.org/2000/svg">
<g id="Icons Line">
<path id="Vector" d="M19.9375 6.1875V15.8125C19.9375 16.9516 19.0141 17.875 17.875 17.875H4.125C2.98591 17.875 2.0625 16.9516 2.0625 15.8125V6.1875M19.9375 6.1875C19.9375 5.04841 19.0141 4.125 17.875 4.125H4.125C2.98591 4.125 2.0625 5.04841 2.0625 6.1875M19.9375 6.1875V6.40998C19.9375 7.12621 19.5659 7.79116 18.956 8.16653L12.081 12.3973C11.418 12.8052 10.582 12.8052 9.91905 12.3973L3.04405 8.16653C2.43407 7.79116 2.0625 7.12621 2.0625 6.40998V6.1875" stroke="#323130" stroke-width="1.5" stroke-linecap="round" stroke-linejoin="round"/>
</g>
</svg>
