<svg width="232" height="36" viewBox="0 0 232 36" fill="none" xmlns="http://www.w3.org/2000/svg">
<g id="Layer 1">
<path id="Vector" d="M4.29698 31.5599H14.4542V35.3558H0.0662087V6.12627H4.23077V31.4936V31.5599H4.29698Z" fill="#3B4CBF" stroke="#3B4CBF" stroke-width="0.132417"/>
<path id="Vector_2" d="M100.996 6.12627H106.118L94.7055 20.5808L94.6734 20.6215L94.7052 20.6625L106.12 35.3558H100.996L89.8672 20.6222L100.996 6.12627ZM89.6401 6.12627V35.3558H85.4755V6.12627H89.6401Z" fill="#3B4CBF" stroke="#3B4CBF" stroke-width="0.132417"/>
<path id="Vector_3" d="M183.781 15.838L181.431 12.9976L185.066 10.0038L185.208 9.88683L185.024 9.88645L178.482 9.87304L178.416 9.87291V9.93925V35.3081H174.251V9.93925V9.87304H174.185H163.478H163.412V9.93925V24.3521C163.412 26.9659 162.91 29.1087 161.911 30.7819L161.911 30.782C160.911 32.4607 159.57 33.7058 157.891 34.5223C156.208 35.3397 154.324 35.7506 152.236 35.7506C150.148 35.7506 148.346 35.3399 146.664 34.5223C144.984 33.7059 143.658 32.461 142.686 30.7827L142.686 30.7826C141.714 29.1093 141.227 26.9662 141.227 24.3521V6.09203H145.29V24.3938C145.29 26.1582 145.576 27.6129 146.156 28.7543C146.736 29.8951 147.564 30.7429 148.639 31.2934L148.639 31.2934C149.713 31.8426 150.939 32.117 152.319 32.117C153.699 32.117 154.996 31.8429 156.042 31.2931L156.042 31.2931C157.089 30.7424 157.903 29.8947 158.483 28.7543L158.483 28.7542C159.061 27.6129 159.349 26.1582 159.349 24.3938V6.09203H163.17H163.236V6.07869L185.091 6.09948L185.276 6.09965L185.133 5.98216L181.431 2.93323L183.781 0.0931661L191.02 6.07042V9.93463L183.781 15.838Z" fill="#3B4CBF" stroke="#3B4CBF" stroke-width="0.132417"/>
<path id="Vector_4" d="M212.771 6.12627L223.899 35.3558H219.463L216.218 26.7479L216.202 26.7051H216.156H205.574H205.528L205.512 26.7479L202.266 35.3558H197.874L209.002 6.12627H212.771ZM211.008 11.5942L210.992 11.5489H210.945H210.866H210.818L210.803 11.594L207.024 22.8234L206.995 22.9107H207.087H214.685H214.776L214.747 22.8235L211.008 11.5942Z" fill="#3B4CBF" stroke="#3B4CBF" stroke-width="0.132417"/>
<path id="Vector_5" d="M64.8818 5.50488C57.7979 5.50488 51.7056 10.3047 50.0985 17.3375C49.4369 17.0351 48.7454 16.8817 48.03 16.8817C47.3997 16.8817 46.8112 17.0038 46.2795 17.1901C44.7441 10.5758 38.749 5.50488 31.2274 5.50488C22.9531 5.50488 16.0304 12.0521 16.0304 21.0588C16.0304 28.9944 22.9531 35.9781 31.1079 35.9781C39.781 35.9781 46.6633 29.4309 46.6633 20.5434C46.6633 20.1263 46.6454 19.7121 46.6111 19.3025C47.0352 19.1073 47.5192 18.9673 48.0314 18.9673H48.0434C48.6244 18.9702 49.1979 19.1594 49.755 19.5319C49.7102 20.0324 49.6863 20.5404 49.6863 21.0588C49.6863 28.9944 56.609 35.9781 64.7638 35.9781C73.4369 35.9781 80.3193 29.4309 80.3193 20.5434C80.3193 12.3694 73.6356 5.50488 64.8833 5.50488H64.8818ZM31.3469 32.0498C24.6244 32.0498 20.3274 26.5349 20.3274 20.6223C20.3274 16.2575 23.5893 9.43321 31.5455 9.43321C37.7513 9.43321 42.3664 14.7499 42.3664 20.8204C42.3664 26.1774 38.3084 32.0498 31.3469 32.0498ZM65.0013 32.0498C58.2788 32.0498 53.9818 26.5349 53.9818 20.6223C53.9818 16.2575 57.2437 9.43321 65.1999 9.43321C71.4057 9.43321 76.0208 14.7499 76.0208 20.8204C76.0208 26.1774 71.9628 32.0498 65.0013 32.0498Z" fill="url(#paint0_linear_1701_200152)"/>
<path id="Vector_6" d="M130.243 28.875L135.206 34.0636" stroke="#3B4CBF" stroke-width="0.132417"/>
<path id="Vector_7" d="M136.612 32.7261L132.775 28.7158C134.639 26.2832 135.738 23.201 135.738 19.7449C135.738 12.0044 129.41 5.50488 121.122 5.50488C113.287 5.50488 106.731 11.705 106.731 20.2335C106.731 27.7475 113.287 34.3618 121.008 34.3618C124.417 34.3618 127.534 33.2922 130.013 31.4405L133.801 35.4001C134.182 35.7993 134.694 36.0005 135.206 36.0005C135.687 36.0005 136.171 35.8232 136.546 35.4657C137.321 34.7268 137.351 33.5007 136.61 32.7276L136.612 32.7261ZM110.8 19.8209C110.8 15.6884 113.889 9.22465 121.424 9.22465C127.301 9.22465 131.671 14.2598 131.671 20.0086C131.671 25.081 127.828 30.642 121.235 30.642C114.643 30.642 110.8 25.4191 110.8 19.8209Z" fill="url(#paint1_linear_1701_200152)"/>
<path id="Vector_8" d="M57.9651 14.6915C60.1083 12.0696 63.542 10.8391 66.8667 11.5021C71.3429 12.3944 74.5033 16.4925 74.2195 21.0376" stroke="#3B4CBF" stroke-width="0.397252" stroke-miterlimit="10" stroke-linecap="round"/>
<path id="Vector_9" d="M114.316 13.9566C116.368 11.4464 119.655 10.2681 122.839 10.9027C127.126 11.7578 130.152 15.6816 129.88 20.033" stroke="#3B4CBF" stroke-width="0.397252" stroke-miterlimit="10" stroke-linecap="round"/>
<path id="Vector_10" d="M74.3356 22.2529C74.3356 22.361 74.2477 22.4489 74.1389 22.4489C74.0301 22.4489 73.9422 22.361 73.9422 22.2529C73.9422 22.1448 74.0301 22.0569 74.1389 22.0569C74.2477 22.0569 74.3356 22.1448 74.3356 22.2529Z" fill="#3B4CBF" stroke="#3B4CBF" stroke-width="0.132417"/>
<path id="Vector_11" d="M231.684 6.10527V7.26806C231.684 8.91912 230.341 10.2572 228.685 10.2572H227.519V6.10527H231.684Z" fill="#3B4CBF" stroke="#3B4CBF" stroke-width="0.132417"/>
<path id="Vector_12" d="M228.685 10.2574V10.3236V10.3898H231.684V35.3558H227.519V6.12627H231.684V7.2682C231.684 8.91926 230.341 10.2574 228.685 10.2574Z" fill="#3B4CBF" stroke="#3B4CBF" stroke-width="0.132417"/>
<g id="Vector_13">
<mask id="path-13-inside-1_1701_200152" fill="white">
<path d="M231.75 6.03906H227.453V6.05992H231.75V6.03906Z"/>
</mask>
<path d="M231.75 6.03906H227.453V6.05992H231.75V6.03906Z" fill="#3B4CBF"/>
<path d="M227.453 6.03906V5.90665H227.321V6.03906H227.453ZM231.75 6.03906H231.882V5.90665H231.75V6.03906ZM231.75 6.05992V6.19234H231.882V6.05992H231.75ZM227.453 6.05992H227.321V6.19234H227.453V6.05992ZM227.453 6.17148H231.75V5.90665H227.453V6.17148ZM231.618 6.03906V6.05992H231.882V6.03906H231.618ZM231.75 5.9275H227.453V6.19234H231.75V5.9275ZM227.585 6.05992V6.03906H227.321V6.05992H227.585Z" fill="#3B4CBF" mask="url(#path-13-inside-1_1701_200152)"/>
</g>
</g>
<defs>
<linearGradient id="paint0_linear_1701_200152" x1="17.4821" y1="-4.89022" x2="73.8704" y2="42.3921" gradientUnits="userSpaceOnUse">
<stop stop-color="#263BC7"/>
<stop offset="0.16" stop-color="#483FC5"/>
<stop offset="0.49" stop-color="#864CEF"/>
<stop offset="0.75" stop-color="#327FFF"/>
<stop offset="0.99" stop-color="#005B97"/>
</linearGradient>
<linearGradient id="paint1_linear_1701_200152" x1="107.418" y1="-4.89784" x2="146.683" y2="10.6674" gradientUnits="userSpaceOnUse">
<stop stop-color="#263BC7"/>
<stop offset="0.16" stop-color="#483FC5"/>
<stop offset="0.49" stop-color="#864CEF"/>
<stop offset="0.75" stop-color="#327FFF"/>
<stop offset="0.99" stop-color="#005B97"/>
</linearGradient>
</defs>
</svg>
