<svg width="206" height="32" viewBox="0 0 206 32" fill="none" xmlns="http://www.w3.org/2000/svg">
<g id="LookOut AI LOGO" clip-path="url(#clip0_96_9628)">
<g id="Layer 1">
<path id="Vector" d="M3.81954 28.0606H12.8408V31.42H0.0662087V5.45293H3.75333V27.9944V28.0606H3.81954Z" fill="#3B4CBF" stroke="#3B4CBF" stroke-width="0.132417"/>
<path id="Vector_2" d="M89.7777 5.45293H94.3122L84.1769 18.2895L84.1448 18.3302L84.1766 18.3711L94.3136 31.42H89.7781L79.8912 18.3308L89.7777 5.45293ZM79.6727 5.45293V31.42H75.9856V5.45293H79.6727Z" fill="#3B4CBF" stroke="#3B4CBF" stroke-width="0.132417"/>
<path id="Vector_3" d="M163.362 14.0679L161.282 11.5544L164.508 8.89791L164.65 8.78098L164.466 8.7806L158.651 8.76868L158.585 8.76855V8.83489V31.3776H154.897V8.83489V8.76868H154.831H145.314H145.247V8.83489V21.6463C145.247 23.9688 144.801 25.8721 143.915 27.3579L143.914 27.358C143.026 28.849 141.835 29.9548 140.345 30.6798C138.849 31.4059 137.176 31.7709 135.321 31.7709C133.466 31.7709 131.866 31.4061 130.371 30.6798C128.879 29.9549 127.702 28.8493 126.839 27.3587L126.839 27.3586C125.975 25.8727 125.543 23.9691 125.543 21.6463V5.42249H129.139V21.6834C129.139 23.2524 129.394 24.5468 129.91 25.5627C130.426 26.5781 131.163 27.3328 132.12 27.8229L132.12 27.8229C133.076 28.3117 134.167 28.5558 135.395 28.5558C136.622 28.5558 137.776 28.312 138.708 27.8226L138.708 27.8226C139.64 27.3323 140.365 26.5776 140.88 25.5627L140.88 25.5627C141.395 24.5468 141.651 23.2525 141.651 21.6834V5.42249H145.04H145.106V5.41064L164.525 5.42912L164.71 5.42929L164.568 5.3118L161.282 2.60632L163.362 0.0931661L169.788 5.3994V8.82729L163.362 14.0679Z" fill="#3B4CBF" stroke="#3B4CBF" stroke-width="0.132417"/>
<path id="Vector_4" d="M189.124 5.45293L199.011 31.42H195.084L192.2 23.7734L192.184 23.7305H192.138H182.732H182.687L182.67 23.7734L179.787 31.42H175.898L185.785 5.45293H189.124ZM187.569 10.3036L187.554 10.2584H187.506H187.436H187.388L187.373 10.3034L184.014 20.2851L183.985 20.3724H184.077H190.831H190.923L190.894 20.2853L187.569 10.3036Z" fill="#3B4CBF" stroke="#3B4CBF" stroke-width="0.132417"/>
<path id="Vector_5" d="M57.6728 4.89282C51.3759 4.89282 45.9606 9.15931 44.5321 15.4107C43.9439 15.1419 43.3292 15.0055 42.6933 15.0055C42.1331 15.0055 41.61 15.1141 41.1374 15.2796C39.7726 9.40031 34.4436 4.89282 27.7577 4.89282C20.4027 4.89282 14.2493 10.7126 14.2493 18.7185C14.2493 25.7724 20.4027 31.9801 27.6515 31.9801C35.3609 31.9801 41.4786 26.1604 41.4786 18.2604C41.4786 17.8896 41.4626 17.5215 41.4321 17.1573C41.8091 16.9839 42.2393 16.8594 42.6946 16.8594H42.7053C43.2217 16.862 43.7315 17.0302 44.2267 17.3612C44.1869 17.8062 44.1656 18.2577 44.1656 18.7185C44.1656 25.7724 50.3191 31.9801 57.5679 31.9801C65.2773 31.9801 71.3949 26.1604 71.3949 18.2604C71.3949 10.9946 65.4539 4.89282 57.6741 4.89282H57.6728ZM27.8639 28.4883C21.8883 28.4883 18.0688 23.5862 18.0688 18.3305C18.0688 14.4507 20.9683 8.38467 28.0405 8.38467C33.5567 8.38467 37.659 13.1106 37.659 18.5067C37.659 23.2684 34.0519 28.4883 27.8639 28.4883ZM57.779 28.4883C51.8034 28.4883 47.9838 23.5862 47.9838 18.3305C47.9838 14.4507 50.8834 8.38467 57.9555 8.38467C63.4718 8.38467 67.5741 13.1106 67.5741 18.5067C67.5741 23.2684 63.967 28.4883 57.779 28.4883Z" fill="url(#paint0_linear_96_9628)"/>
<path id="Vector_6" d="M115.772 25.6665L120.183 30.2786" stroke="#3B4CBF" stroke-width="0.132417"/>
<path id="Vector_7" d="M121.433 29.0895L118.022 25.5248C119.679 23.3624 120.656 20.6227 120.656 17.5506C120.656 10.6702 115.031 4.89282 107.664 4.89282C100.699 4.89282 94.8724 10.404 94.8724 17.9849C94.8724 24.6641 100.699 30.5434 107.563 30.5434C110.593 30.5434 113.363 29.5926 115.567 27.9467L118.934 31.4664C119.273 31.8212 119.728 32 120.183 32C120.611 32 121.041 31.8424 121.374 31.5246C122.063 30.8678 122.09 29.778 121.431 29.0908L121.433 29.0895ZM98.4888 17.6181C98.4888 13.9449 101.234 8.19929 107.932 8.19929C113.156 8.19929 117.041 12.675 117.041 17.785C117.041 22.2938 113.625 27.2369 107.765 27.2369C101.905 27.2369 98.4888 22.5944 98.4888 17.6181Z" fill="url(#paint1_linear_96_9628)"/>
<path id="Vector_8" d="M51.5245 13.059C53.4297 10.7284 56.4818 9.63467 59.4371 10.2239C63.4159 11.0171 66.2252 14.6599 65.9729 18.7" stroke="#3B4CBF" stroke-width="0.397252" stroke-miterlimit="10" stroke-linecap="round"/>
<path id="Vector_9" d="M101.614 12.4062C103.438 10.1749 106.36 9.12751 109.191 9.69161C113.001 10.4517 115.691 13.9396 115.449 17.8075" stroke="#3B4CBF" stroke-width="0.397252" stroke-miterlimit="10" stroke-linecap="round"/>
<path id="Vector_10" d="M66.0687 19.7805C66.0687 19.8725 65.9939 19.9474 65.9013 19.9474C65.8086 19.9474 65.7338 19.8725 65.7338 19.7805C65.7338 19.6886 65.8086 19.6137 65.9013 19.6137C65.9939 19.6137 66.0687 19.6886 66.0687 19.7805Z" fill="#3B4CBF" stroke="#3B4CBF" stroke-width="0.132417"/>
<path id="Vector_11" d="M205.934 5.43443V6.46067C205.934 7.92419 204.744 9.11034 203.276 9.11034H202.247V5.43443H205.934Z" fill="#3B4CBF" stroke="#3B4CBF" stroke-width="0.132417"/>
<path id="Vector_12" d="M203.276 9.1103V9.17651V9.24271H205.934V31.42H202.247V5.45293H205.934V6.46062C205.934 7.92414 204.744 9.1103 203.276 9.1103Z" fill="#3B4CBF" stroke="#3B4CBF" stroke-width="0.132417"/>
<g id="Vector_13">
<mask id="path-13-inside-1_96_9628" fill="white">
<path d="M206 5.36823H202.18V5.38676H206V5.36823Z"/>
</mask>
<path d="M206 5.36823H202.18V5.38676H206V5.36823Z" fill="#3B4CBF"/>
<path d="M202.18 5.36823V5.23581H202.048V5.36823H202.18ZM206 5.36823H206.132V5.23581H206V5.36823ZM206 5.38676V5.51918H206.132V5.38676H206ZM202.18 5.38676H202.048V5.51918H202.18V5.38676ZM202.18 5.50064H206V5.23581H202.18V5.50064ZM205.868 5.36823V5.38676H206.132V5.36823H205.868ZM206 5.25435H202.18V5.51918H206V5.25435ZM202.313 5.38676V5.36823H202.048V5.38676H202.313Z" fill="#3B4CBF" mask="url(#path-13-inside-1_96_9628)"/>
</g>
</g>
</g>
<defs>
<linearGradient id="paint0_linear_96_9628" x1="15.5397" y1="-4.34727" x2="65.6626" y2="37.6814" gradientUnits="userSpaceOnUse">
<stop stop-color="#263BC7"/>
<stop offset="0.16" stop-color="#483FC5"/>
<stop offset="0.49" stop-color="#864CEF"/>
<stop offset="0.75" stop-color="#327FFF"/>
<stop offset="0.99" stop-color="#005B97"/>
</linearGradient>
<linearGradient id="paint1_linear_96_9628" x1="95.4829" y1="-4.35404" x2="130.385" y2="9.48169" gradientUnits="userSpaceOnUse">
<stop stop-color="#263BC7"/>
<stop offset="0.16" stop-color="#483FC5"/>
<stop offset="0.49" stop-color="#864CEF"/>
<stop offset="0.75" stop-color="#327FFF"/>
<stop offset="0.99" stop-color="#005B97"/>
</linearGradient>
<clipPath id="clip0_96_9628">
<rect width="206" height="32" fill="white"/>
</clipPath>
</defs>
</svg>
