<svg width="16" height="16" viewBox="0 0 16 16" fill="none" xmlns="http://www.w3.org/2000/svg">
<path d="M14.2381 4.1725L14.2331 4.17812L9.99998 8.69812V12.1663C10.0002 12.3312 9.95967 12.4936 9.88192 12.6391C9.80417 12.7846 9.69164 12.9086 9.55436 13L7.55436 14.3337C7.40364 14.4341 7.22849 14.4917 7.0476 14.5003C6.86672 14.509 6.68688 14.4683 6.5273 14.3827C6.36771 14.2971 6.23437 14.1698 6.1415 14.0143C6.04863 13.8589 5.99972 13.6811 5.99998 13.5V8.69812L1.76686 4.17812L1.76186 4.1725C1.6317 4.02926 1.54591 3.85133 1.51488 3.66029C1.48386 3.46924 1.50894 3.27331 1.58709 3.09624C1.66523 2.91917 1.79308 2.76859 1.95512 2.66275C2.11717 2.55692 2.30644 2.50038 2.49998 2.5H13.5C13.6937 2.50002 13.8832 2.55629 14.0455 2.66199C14.2079 2.76768 14.336 2.91825 14.4144 3.09538C14.4928 3.27252 14.518 3.46861 14.487 3.65982C14.4561 3.85104 14.3702 4.02914 14.24 4.1725H14.2381Z" fill="white"/>
</svg>
