<svg width="20" height="20" viewBox="0 0 20 20" fill="none" xmlns="http://www.w3.org/2000/svg">
<g id="Icons">
<path id="Subtract" d="M10.0001 3.33334C12.0406 3.33334 14.041 3.50522 15.9875 3.83531C16.3822 3.90224 16.6667 4.24708 16.6667 4.64742V5.42076C16.6667 5.86279 16.4911 6.28671 16.1786 6.59927L12.1549 10.623C11.8423 10.9355 11.6667 11.3594 11.6667 11.8015V13.9699C11.6667 14.6012 11.31 15.1783 10.7454 15.4607L8.33337 16.6667V11.8015C8.33337 11.3594 8.15778 10.9355 7.84522 10.623L3.82153 6.59927C3.50897 6.28671 3.33337 5.86278 3.33337 5.42076V4.64744C3.33337 4.24709 3.61788 3.90226 4.01259 3.83533C5.95915 3.50523 7.95954 3.33334 10.0001 3.33334Z" stroke="#323130" stroke-width="1.33333" stroke-linecap="round" stroke-linejoin="round"/>
</g>
</svg>
