<svg width="24" height="24" viewBox="0 0 24 24" fill="none" xmlns="http://www.w3.org/2000/svg">
<g id="heroicons-solid/sparkles">
<path id="Union" fill-rule="evenodd" clip-rule="evenodd" d="M18.7276 2.0681C18.6441 1.73422 18.3442 1.5 18 1.5C17.6558 1.5 17.3559 1.73422 17.2724 2.0681L17.0135 3.10356C16.7784 4.04406 16.0441 4.7784 15.1036 5.01353L14.0681 5.27239C13.7342 5.35586 13.5 5.65585 13.5 6C13.5 6.34415 13.7342 6.64414 14.0681 6.72761L15.1036 6.98647C16.0441 7.2216 16.7784 7.95594 17.0135 8.89644L17.2724 9.9319C17.3559 10.2658 17.6558 10.5 18 10.5C18.3442 10.5 18.6441 10.2658 18.7276 9.9319L18.9865 8.89644C19.2216 7.95594 19.9559 7.2216 20.8964 6.98647L21.9319 6.72761C22.2658 6.64414 22.5 6.34415 22.5 6C22.5 5.65585 22.2658 5.35586 21.9319 5.27239L20.8964 5.01353C19.9559 4.7784 19.2216 4.04406 18.9865 3.10356L18.7276 2.0681ZM9.72114 5.04396C9.62915 4.72198 9.33486 4.5 9 4.5C8.66514 4.5 8.37085 4.72198 8.27886 5.04396L7.46566 7.89015C7.10972 9.13593 6.13593 10.1097 4.89015 10.4657L2.04396 11.2789C1.72198 11.3709 1.5 11.6651 1.5 12C1.5 12.3349 1.72198 12.6291 2.04396 12.7211L4.89015 13.5343C6.13593 13.8903 7.10972 14.8641 7.46566 16.1099L8.27886 18.956C8.37085 19.278 8.66514 19.5 9 19.5C9.33486 19.5 9.62915 19.278 9.72114 18.956L10.5343 16.1099C10.8903 14.8641 11.8641 13.8903 13.1098 13.5343L15.956 12.7211C16.278 12.6291 16.5 12.3349 16.5 12C16.5 11.6651 16.278 11.3709 15.956 11.2789L13.1099 10.4657C11.8641 10.1097 10.8903 9.13593 10.5343 7.89015L9.72114 5.04396ZM16.5 15C16.8228 15 17.1094 15.2066 17.2115 15.5128L17.6058 16.6956C17.7551 17.1435 18.1065 17.4949 18.5544 17.6442L19.7372 18.0385C20.0434 18.1406 20.25 18.4272 20.25 18.75C20.25 19.0728 20.0434 19.3594 19.7372 19.4615L18.5544 19.8558C18.1065 20.0051 17.7551 20.3565 17.6058 20.8044L17.2115 21.9872C17.1094 22.2934 16.8228 22.5 16.5 22.5C16.1772 22.5 15.8906 22.2934 15.7885 21.9872L15.3942 20.8044C15.2449 20.3565 14.8935 20.0051 14.4456 19.8558L13.2628 19.4615C12.9566 19.3594 12.75 19.0728 12.75 18.75C12.75 18.4272 12.9566 18.1406 13.2628 18.0385L14.4456 17.6442C14.8935 17.4949 15.2449 17.1435 15.3942 16.6956L15.7885 15.5128C15.8012 15.4745 15.8169 15.4378 15.8351 15.4029C15.9628 15.1582 16.2175 15 16.5 15Z" fill="url(#paint0_linear_131_6607)"/>
</g>
<defs>
<linearGradient id="paint0_linear_131_6607" x1="1.97421" y1="-5.66357" x2="29.0646" y2="5.10373" gradientUnits="userSpaceOnUse">
<stop stop-color="#263BC7"/>
<stop offset="0.16" stop-color="#483FC5"/>
<stop offset="0.49" stop-color="#864CEF"/>
<stop offset="0.75" stop-color="#327FFF"/>
<stop offset="0.99" stop-color="#005B97"/>
</linearGradient>
</defs>
</svg>
