<svg width="28" height="28" viewBox="0 0 28 28" fill="none" xmlns="http://www.w3.org/2000/svg">
<g id="heroicons-solid/paper-airplane">
<g id="Subtract" filter="url(#filter0_d_155_12611)">
<path d="M5.15577 9.32771C4.96106 9.37555 4.80829 9.52634 4.75793 9.72041C4.70757 9.91448 4.76773 10.1205 4.91461 10.257L9.32106 14.3513L14.6846 11.2547C14.9455 11.1041 15.2791 11.1935 15.4297 11.4544C15.5803 11.7152 15.4909 12.0488 15.23 12.1995L9.86652 15.2961L11.209 21.1592C11.2538 21.3546 11.4022 21.5097 11.5954 21.5632C11.7887 21.6166 11.9956 21.5597 12.1344 21.415C15.6458 17.7534 18.4482 13.559 20.4839 9.04747C20.5562 8.88744 20.5469 8.70244 20.4591 8.5504C20.3714 8.39835 20.2158 8.29786 20.0411 8.28038C15.1161 7.78769 10.0824 8.11746 5.15577 9.32771Z" fill="white"/>
</g>
</g>
<defs>
<filter id="filter0_d_155_12611" x="0.376842" y="2.24237" width="27.4281" height="25.1587" filterUnits="userSpaceOnUse" color-interpolation-filters="sRGB">
<feFlood flood-opacity="0" result="BackgroundImageFix"/>
<feColorMatrix in="SourceAlpha" type="matrix" values="0 0 0 0 0 0 0 0 0 0 0 0 0 0 0 0 0 0 127 0" result="hardAlpha"/>
<feOffset dx="1.45455"/>
<feGaussianBlur stdDeviation="2.90909"/>
<feComposite in2="hardAlpha" operator="out"/>
<feColorMatrix type="matrix" values="0 0 0 0 0 0 0 0 0 0 0 0 0 0 0 0 0 0 0.2 0"/>
<feBlend mode="normal" in2="BackgroundImageFix" result="effect1_dropShadow_155_12611"/>
<feBlend mode="normal" in="SourceGraphic" in2="effect1_dropShadow_155_12611" result="shape"/>
</filter>
</defs>
</svg>
