<svg width="32" height="32" viewBox="0 0 32 32" fill="none" xmlns="http://www.w3.org/2000/svg">
<rect width="32" height="32" rx="8" fill="url(#paint0_linear_16008_240066)"/>
<path d="M12.3271 7.92969C12.5848 7.89823 12.8461 7.95206 13.0713 8.08105C13.2965 8.21004 13.4739 8.40839 13.5771 8.64648V8.64746L15.2275 12.3242V12.334L15.2314 12.3428C15.3094 12.5249 15.3405 12.7235 15.3232 12.9209C15.3059 13.1184 15.2404 13.3087 15.1318 13.4746C15.1191 13.4937 15.1056 13.5118 15.0908 13.5303L13.4668 15.4609L13.4473 15.4844L13.4609 15.5117C14.0507 16.7102 15.3026 17.9523 16.5166 18.542L16.5439 18.5557L16.5674 18.5352L18.4678 16.9141L18.4688 16.915L18.5225 16.874C18.6889 16.763 18.8809 16.6951 19.0801 16.6768C19.2786 16.6585 19.4787 16.6895 19.6621 16.7676V16.7686L19.6729 16.7725V16.7734L23.3535 18.4219V18.4229C23.5915 18.5262 23.7901 18.7035 23.9189 18.9287C24.0316 19.1257 24.0863 19.3498 24.0771 19.5752L24.0693 19.6719C23.9315 20.7191 23.4168 21.6802 22.6221 22.376C21.8273 23.0718 20.8064 23.455 19.75 23.4531C13.5728 23.4531 8.54696 18.4272 8.54688 12.25C8.54498 11.1938 8.92744 10.1727 9.62305 9.37793C10.3189 8.58312 11.2808 8.06848 12.3281 7.93066L12.3271 7.92969ZM12.4678 9.07812C11.7004 9.18082 10.997 9.55995 10.4883 10.1436C9.9795 10.7272 9.70015 11.4757 9.70312 12.25L9.71582 12.748C9.84154 15.2303 10.8836 17.5848 12.6494 19.3506C14.5329 21.2341 17.0863 22.294 19.75 22.2969C20.5251 22.2995 21.2747 22.0197 21.8584 21.5098C22.4422 20.9997 22.8205 20.2939 22.9219 19.5254L22.9287 19.4727H22.877L19.2139 17.832L19.1865 17.8203L19.1641 17.8389L17.2646 19.459C17.2475 19.4735 17.2296 19.4875 17.2109 19.5C17.038 19.6153 16.8382 19.6842 16.6309 19.6992C16.4753 19.7105 16.3193 19.6915 16.1719 19.6436L16.0273 19.5859C14.5735 18.8834 13.1231 17.443 12.4199 16.0049C12.3298 15.8184 12.2886 15.612 12.3018 15.4053C12.3116 15.2503 12.352 15.0991 12.4189 14.96L12.4951 14.8242C12.5071 14.8051 12.5204 14.7865 12.5352 14.7695L12.5361 14.7686L14.1504 12.8359L14.1699 12.8135L14.1572 12.7871L12.5205 9.125L12.5264 9.07031L12.4678 9.07812Z" fill="white" stroke="white" stroke-width="0.09375"/>
<defs>
<linearGradient id="paint0_linear_16008_240066" x1="7.20048" y1="20.8713" x2="25.8056" y2="6.79451" gradientUnits="userSpaceOnUse">
<stop stop-color="#483FC5"/>
<stop offset="1" stop-color="#864CEF"/>
</linearGradient>
</defs>
</svg>
