<svg width="18" height="14" viewBox="0 0 18 14" fill="none" xmlns="http://www.w3.org/2000/svg">
<path d="M1.5 0.796875H16.5C16.6533 0.796875 16.8008 0.857401 16.9092 0.96582C17.0176 1.07424 17.0781 1.22167 17.0781 1.375V12C17.0781 12.3191 16.9512 12.625 16.7256 12.8506C16.5 13.0762 16.1941 13.2031 15.875 13.2031H2.125C1.80591 13.2031 1.50004 13.0762 1.27441 12.8506C1.04878 12.625 0.921875 12.3191 0.921875 12V1.375C0.921875 1.22167 0.982401 1.07424 1.09082 0.96582C1.19924 0.857401 1.34667 0.796875 1.5 0.796875ZM15.8438 2.76172L9.39062 8.67676C9.28401 8.77446 9.14462 8.8291 9 8.8291C8.85538 8.8291 8.71599 8.77446 8.60938 8.67676L2.15625 2.76172L2.07812 2.68945V12.0469H15.9219V2.68945L15.8438 2.76172ZM3.0752 2.03418L8.96875 7.43652L9 7.46582L9.03125 7.43652L14.9248 2.03418L15.0137 1.95312H2.98633L3.0752 2.03418Z" fill="white" stroke="white" stroke-width="0.09375"/>
</svg>
