<svg width="24" height="24" viewBox="0 0 24 24" fill="none" xmlns="http://www.w3.org/2000/svg">
<rect width="24" height="24" rx="12" fill="url(#paint0_linear_16008_10229)"/>
<path d="M6 7.04688H18C18.1202 7.04688 18.2353 7.09471 18.3203 7.17969C18.4053 7.26466 18.4531 7.37982 18.4531 7.5V16C18.4531 16.2528 18.3526 16.4951 18.1738 16.6738C17.9951 16.8526 17.7528 16.9531 17.5 16.9531H6.5C6.24722 16.9531 6.00492 16.8526 5.82617 16.6738C5.64743 16.4951 5.54688 16.2528 5.54688 16V7.5C5.54688 7.37982 5.59471 7.26466 5.67969 7.17969C5.76466 7.09471 5.87982 7.04688 6 7.04688ZM17.4688 8.60254L12.3066 13.334C12.223 13.4107 12.1135 13.4531 12 13.4531C11.8865 13.4531 11.777 13.4107 11.6934 13.334L6.53125 8.60254L6.45312 8.53027V16.0469H17.5469V8.53027L17.4688 8.60254ZM7.25391 8.03418L11.9688 12.3564L12 12.3857L12.0312 12.3564L16.7461 8.03418L16.835 7.95312H7.16504L7.25391 8.03418Z" fill="white" stroke="white" stroke-width="0.09375"/>
<defs>
<linearGradient id="paint0_linear_16008_10229" x1="5.40036" y1="15.6535" x2="19.3542" y2="5.09588" gradientUnits="userSpaceOnUse">
<stop stop-color="#483FC5"/>
<stop offset="1" stop-color="#864CEF"/>
</linearGradient>
</defs>
</svg>
