<svg width="109" height="17" viewBox="0 0 109 17" fill="none" xmlns="http://www.w3.org/2000/svg">
<path d="M0.5 16.5498V2.83105H2.50248V14.7144H7.26681V16.5498H0.5Z" fill="#3B4CBF"/>
<path d="M40.3027 16.5498V2.83105H42.3052V16.5498H40.3027ZM47.5512 16.5498L42.3414 9.63476L47.5512 2.83105H50.0172L44.6592 9.63476L50.0172 16.5498H47.5512Z" fill="#3B4CBF"/>
<path d="M89.5494 2.82171V4.65645L86.141 7.44336L85.0064 6.06869L86.7242 4.65018L83.6756 4.64392V16.528H81.6731V4.64392H76.6833V11.378C76.6833 12.603 76.4487 13.6102 75.9796 14.3981C75.5105 15.1874 74.8813 15.7735 74.0934 16.1577C73.3041 16.5419 72.4215 16.7347 71.4443 16.7347C70.467 16.7347 69.6228 16.5419 68.8342 16.1577C68.0456 15.7735 67.4233 15.1874 66.9674 14.3981C66.5108 13.6102 66.2832 12.603 66.2832 11.378V2.81545H68.2384V11.3975C68.2384 12.2188 68.3713 12.8933 68.6386 13.4209C68.9058 13.9485 69.2873 14.3396 69.7822 14.5937C70.2777 14.8477 70.8443 14.9751 71.4833 14.9751C72.1222 14.9751 72.7215 14.8477 73.2038 14.5937C73.6855 14.3396 74.0607 13.9485 74.3279 13.4209C74.5945 12.8933 74.7281 12.2188 74.7281 11.3975V2.81545H76.5399V2.80918L86.7556 2.81893L85.0064 1.37466L86.141 0L89.5494 2.82171Z" fill="#3B4CBF"/>
<path d="M102.753 16.5498L101.233 12.508H96.3013L94.7811 16.5498H92.668L97.8778 2.83105H99.6763L104.886 16.5498H102.754H102.753ZM98.8042 5.42655H98.7673L97.0063 10.6732H100.547L98.8042 5.42655Z" fill="#3B4CBF"/>
<path d="M30.7365 2.57178C27.4352 2.57178 24.5961 4.81439 23.8472 8.10035C23.5388 7.95906 23.2166 7.88737 22.8832 7.88737C22.5894 7.88737 22.3152 7.94444 22.0674 8.03145C21.3519 4.94107 18.558 2.57178 15.0528 2.57178C11.1968 2.57178 7.9707 5.63083 7.9707 9.83904C7.9707 13.5468 11.1968 16.8098 14.9971 16.8098C19.039 16.8098 22.2463 13.7507 22.2463 9.59821C22.2463 9.40332 22.2379 9.20983 22.2219 9.01842C22.4196 8.92724 22.6451 8.86181 22.8839 8.86181H22.8894C23.1602 8.8632 23.4275 8.9516 23.6871 9.12561C23.6662 9.35947 23.6551 9.59682 23.6551 9.83904C23.6551 13.5468 26.8812 16.8098 30.6815 16.8098C34.7233 16.8098 37.9307 13.7507 37.9307 9.59821C37.9307 5.77909 34.8159 2.57178 30.7372 2.57178H30.7365ZM15.1085 14.9744C11.9757 14.9744 9.97318 12.3976 9.97318 9.6351C9.97318 7.59573 11.4933 4.40721 15.2011 4.40721C18.0931 4.40721 20.2438 6.89135 20.2438 9.72767C20.2438 12.2306 18.3527 14.9744 15.1085 14.9744ZM30.7922 14.9744C27.6593 14.9744 25.6569 12.3976 25.6569 9.6351C25.6569 7.59573 27.177 4.40721 30.8847 4.40721C33.7768 4.40721 35.9275 6.89135 35.9275 9.72767C35.9275 12.2306 34.0364 14.9744 30.7922 14.9744Z" fill="url(#paint0_linear_16598_269343)"/>
<path d="M64.1631 15.2904L62.375 13.4166C63.2436 12.28 63.7559 10.8399 63.7559 9.22514C63.7559 5.60856 60.8068 2.57178 56.9445 2.57178C53.2932 2.57178 50.2383 5.46866 50.2383 9.45344C50.2383 12.9642 53.2932 16.0546 56.8916 16.0546C58.48 16.0546 59.9326 15.5548 61.088 14.6897L62.8531 16.5397C63.0306 16.7263 63.2694 16.8202 63.5081 16.8202C63.7322 16.8202 63.9577 16.7374 64.1325 16.5704C64.4937 16.2251 64.5076 15.6523 64.1624 15.291L64.1631 15.2904ZM52.1343 9.26064C52.1343 7.32985 53.5737 4.30977 57.0851 4.30977C59.824 4.30977 61.8606 6.66235 61.8606 9.34834C61.8606 11.7183 60.0697 14.3166 56.9974 14.3166C53.9252 14.3166 52.1343 11.8763 52.1343 9.26064Z" fill="url(#paint1_linear_16598_269343)"/>
<path d="M35.0875 10.0042C35.0841 10.0042 35.0806 10.0042 35.0764 10.0042C34.9803 9.99793 34.9073 9.9158 34.9135 9.81974C35.0409 7.78316 33.6273 5.94563 31.6269 5.54611C30.1346 5.24821 28.6089 5.79529 27.647 6.97576C27.5864 7.05024 27.4771 7.06137 27.402 7.00082C27.3275 6.94026 27.3164 6.83029 27.3769 6.75581C28.4203 5.47581 30.0747 4.8814 31.6944 5.20506C33.8653 5.63869 35.398 7.63212 35.2602 9.84202C35.2546 9.93459 35.178 10.0049 35.0868 10.0049L35.0875 10.0042Z" fill="url(#paint2_linear_16598_269343)"/>
<path d="M61.0277 9.53468C61.0242 9.53468 61.0207 9.53468 61.0166 9.53468C60.9205 9.52841 60.8474 9.44628 60.8537 9.35023C60.9755 7.40413 59.6245 5.64804 57.7125 5.26522C56.2856 4.97985 54.8281 5.50327 53.9087 6.63153C53.8481 6.70601 53.7382 6.71715 53.6637 6.65659C53.5892 6.59604 53.5781 6.48606 53.6386 6.41159C54.6395 5.18379 56.2265 4.61374 57.78 4.92417C59.8625 5.3404 61.3326 7.25239 61.2003 9.37181C61.1947 9.46438 61.1182 9.53468 61.027 9.53468H61.0277Z" fill="url(#paint3_linear_16598_269343)"/>
<path d="M35.0431 10.6526C35.1553 10.6526 35.2463 10.5616 35.2463 10.4493C35.2463 10.3371 35.1553 10.2461 35.0431 10.2461C34.9308 10.2461 34.8398 10.3371 34.8398 10.4493C34.8398 10.5616 34.9308 10.6526 35.0431 10.6526Z" fill="url(#paint4_linear_16598_269343)"/>
<path d="M108.501 2.82129V3.39551C108.501 4.18412 107.861 4.82307 107.072 4.82307H106.498V2.82129H108.501Z" fill="#3B4CBF"/>
<path d="M107.072 4.8231H108.501V16.5498H106.498V2.83105H108.501V3.39554C108.501 4.18414 107.861 4.8231 107.072 4.8231Z" fill="#3B4CBF"/>
<path d="M108.501 2.82129H106.498V2.83103H108.501V2.82129Z" fill="#3B4CBF"/>
<defs>
<linearGradient id="paint0_linear_16598_269343" x1="8.64725" y1="-2.28513" x2="34.9816" y2="19.7394" gradientUnits="userSpaceOnUse">
<stop stop-color="#263BC7"/>
<stop offset="0.16" stop-color="#483FC5"/>
<stop offset="0.49" stop-color="#864CEF"/>
<stop offset="0.75" stop-color="#327FFF"/>
<stop offset="0.99" stop-color="#005B97"/>
</linearGradient>
<linearGradient id="paint1_linear_16598_269343" x1="50.5584" y1="-2.28869" x2="68.8694" y2="4.95133" gradientUnits="userSpaceOnUse">
<stop stop-color="#263BC7"/>
<stop offset="0.16" stop-color="#483FC5"/>
<stop offset="0.49" stop-color="#864CEF"/>
<stop offset="0.75" stop-color="#327FFF"/>
<stop offset="0.99" stop-color="#005B97"/>
</linearGradient>
<linearGradient id="paint2_linear_16598_269343" x1="27.517" y1="3.45119" x2="35.8831" y2="8.84776" gradientUnits="userSpaceOnUse">
<stop stop-color="#263BC7"/>
<stop offset="0.16" stop-color="#483FC5"/>
<stop offset="0.49" stop-color="#864CEF"/>
<stop offset="0.75" stop-color="#327FFF"/>
<stop offset="0.99" stop-color="#005B97"/>
</linearGradient>
<linearGradient id="paint3_linear_16598_269343" x1="53.7714" y1="3.23964" x2="61.8035" y2="8.41467" gradientUnits="userSpaceOnUse">
<stop stop-color="#263BC7"/>
<stop offset="0.16" stop-color="#483FC5"/>
<stop offset="0.49" stop-color="#864CEF"/>
<stop offset="0.75" stop-color="#327FFF"/>
<stop offset="0.99" stop-color="#005B97"/>
</linearGradient>
<linearGradient id="paint4_linear_16598_269343" x1="34.9313" y1="10.5112" x2="35.1676" y2="10.3324" gradientUnits="userSpaceOnUse">
<stop stop-color="#483FC5"/>
<stop offset="1" stop-color="#864CEF"/>
</linearGradient>
</defs>
</svg>
