<svg
    width="48"
    height="48"
    viewBox="0 0 48 48"
    fill="none"
    xmlns="http://www.w3.org/2000/svg"
>
    <path
        d="M24 4C12.95 4 4 12.95 4 24C4 35.05 12.95 44 24 44C35.05 44 44 35.05 44 24C44 12.95 35.05 4 24 4ZM24 40C15.16 40 8 32.84 8 24C8 15.16 15.16 8 24 8C32.84 8 40 15.16 40 24C40 32.84 32.84 40 24 40Z"
        fill="#E5E7EB"
    />
    <path
        d="M24 20C22.9 20 22 20.9 22 22V30C22 31.1 22.9 32 24 32C25.1 32 26 31.1 26 30V22C26 20.9 25.1 20 24 20Z"
        fill="#9CA3AF"
    />
    <path
        d="M24 16C24.8284 16 25.5 15.3284 25.5 14.5C25.5 13.6716 24.8284 13 24 13C23.1716 13 22.5 13.6716 22.5 14.5C22.5 15.3284 23.1716 16 24 16Z"
        fill="#9CA3AF"
    />
</svg>