<svg width="16" height="16" viewBox="0 0 16 16" fill="none" xmlns="http://www.w3.org/2000/svg">
<path d="M4.48608 2.02359H12.1169C13.6035 2.02359 14.8015 3.2176 14.8015 4.68082V10.5334C14.8014 11.9965 13.6034 13.1896 12.1169 13.1896H7.42651C6.79405 13.1896 6.17145 13.3514 5.61987 13.6593L3.4314 14.882C2.69692 15.292 1.80151 14.761 1.80151 13.9425V4.68082C1.80151 3.2176 2.99956 2.02359 4.48608 2.02359ZM4.63452 6.25601C4.35853 6.25619 4.13452 6.47998 4.13452 6.75601V8.98453C4.13452 9.26056 4.35853 9.48435 4.63452 9.48453C4.91066 9.48453 5.13452 9.26067 5.13452 8.98453V6.75601C5.13452 6.47987 4.91066 6.25601 4.63452 6.25601ZM8.32593 6.25601C8.04979 6.25601 7.82593 6.47987 7.82593 6.75601V8.98453C7.82593 9.26067 8.04979 9.48453 8.32593 9.48453C8.60189 9.48432 8.82593 9.26054 8.82593 8.98453V6.75601C8.82593 6.48 8.60189 6.25622 8.32593 6.25601ZM11.8376 6.25601C11.5615 6.25601 11.3376 6.47987 11.3376 6.75601V8.98453C11.3376 9.26067 11.5615 9.48453 11.8376 9.48453C12.1138 9.4845 12.3376 9.26065 12.3376 8.98453V6.75601C12.3376 6.47989 12.1138 6.25604 11.8376 6.25601ZM6.52124 4.80093C6.2452 4.80105 6.02124 5.02487 6.02124 5.30093V10.3185C6.02139 10.5945 6.24529 10.8184 6.52124 10.8185C6.79729 10.8185 7.02109 10.5945 7.02124 10.3185V5.30093C7.02124 5.02479 6.79738 4.80093 6.52124 4.80093ZM10.0818 4.80093C9.80564 4.80093 9.58179 5.02479 9.58179 5.30093V10.3185C9.58193 10.5945 9.80574 10.8185 10.0818 10.8185C10.3577 10.8184 10.5816 10.5945 10.5818 10.3185V5.30093C10.5818 5.02486 10.3578 4.80105 10.0818 4.80093Z" stroke="white" stroke-linecap="round"/>
</svg>
