<svg width="40" height="41" viewBox="0 0 40 41" fill="none" xmlns="http://www.w3.org/2000/svg">
<path opacity="0.4" d="M30 14.75V19.85C30 21.12 29.58 22.19 28.83 22.93C28.09 23.68 27.02 24.1 25.75 24.1V25.91C25.75 26.59 24.99 27 24.43 26.62L23.46 25.98C23.55 25.67 23.59 25.33 23.59 24.97V20.9C23.59 18.86 22.23 17.5 20.19 17.5H13.4C13.26 17.5 13.13 17.51 13 17.52V14.75C13 12.2 14.7 10.5 17.25 10.5H25.75C28.3 10.5 30 12.2 30 14.75Z" fill="#3B4CBF"/>
<path d="M23.59 20.9V24.97C23.59 25.33 23.55 25.67 23.46 25.98C23.09 27.45 21.87 28.37 20.19 28.37H17.47L14.45 30.38C14 30.69 13.4 30.36 13.4 29.82V28.37C12.38 28.37 11.53 28.03 10.94 27.44C10.34 26.84 10 25.99 10 24.97V20.9C10 19 11.18 17.69 13 17.52C13.13 17.51 13.26 17.5 13.4 17.5H20.19C22.23 17.5 23.59 18.86 23.59 20.9Z" fill="#3B4CBF"/>
</svg>
