<svg width="24" height="20" viewBox="0 0 24 20" fill="none" xmlns="http://www.w3.org/2000/svg">
<g id="Icons Line">
<g id="Vector">
<path d="M12 5.625C11.5858 5.625 11.25 5.34518 11.25 5C11.25 4.65482 11.5858 4.375 12 4.375C12.4142 4.375 12.75 4.65482 12.75 5C12.75 5.34518 12.4142 5.625 12 5.625Z" stroke="#323130" stroke-width="1.5" stroke-linecap="round" stroke-linejoin="round"/>
<path d="M12 10.625C11.5858 10.625 11.25 10.3452 11.25 10C11.25 9.65482 11.5858 9.375 12 9.375C12.4142 9.375 12.75 9.65482 12.75 10C12.75 10.3452 12.4142 10.625 12 10.625Z" stroke="#323130" stroke-width="1.5" stroke-linecap="round" stroke-linejoin="round"/>
<path d="M12 15.625C11.5858 15.625 11.25 15.3452 11.25 15C11.25 14.6548 11.5858 14.375 12 14.375C12.4142 14.375 12.75 14.6548 12.75 15C12.75 15.3452 12.4142 15.625 12 15.625Z" stroke="#323130" stroke-width="1.5" stroke-linecap="round" stroke-linejoin="round"/>
</g>
</g>
</svg>
