<svg width="16" height="16" viewBox="0 0 16 16" fill="none" xmlns="http://www.w3.org/2000/svg">
<path d="M14.001 3.79688C14.1877 3.79698 14.367 3.87091 14.499 4.00293C14.631 4.13496 14.705 4.31428 14.7051 4.50098C14.7051 4.68023 14.6349 4.85109 14.5127 4.98145L14.4971 4.99805L6.49707 12.998C6.43176 13.0636 6.35399 13.1159 6.26855 13.1514C6.1832 13.1867 6.09142 13.2051 5.99902 13.2051C5.953 13.2051 5.90723 13.2003 5.8623 13.1914L5.72949 13.1514C5.68692 13.1337 5.64653 13.1115 5.6084 13.0859L5.50098 12.998L2.00098 9.49805C1.96844 9.46549 1.93954 9.42968 1.91406 9.3916L1.84863 9.26953C1.81324 9.18408 1.79492 9.09249 1.79492 9C1.79493 8.90751 1.81324 8.81592 1.84863 8.73047C1.86639 8.6876 1.88838 8.64678 1.91406 8.6084L2.00098 8.50195C2.0338 8.46913 2.06997 8.4397 2.1084 8.41406L2.22949 8.34961C2.31486 8.31425 2.40663 8.29594 2.49902 8.2959C2.54529 8.2959 2.59156 8.30059 2.63672 8.30957L2.76855 8.34961C2.81122 8.36728 2.85241 8.38854 2.89062 8.41406L2.99707 8.50195L6 11.5049L6.0332 11.4717L13.5029 4.00293C13.635 3.87104 13.8143 3.79688 14.001 3.79688Z" fill="#4F46E5" stroke="#4F46E5" stroke-width="0.09375"/>
</svg>
