<svg width="16" height="16" viewBox="0 0 16 16" fill="none" xmlns="http://www.w3.org/2000/svg">
<path d="M12.501 2.79492C12.6877 2.79502 12.867 2.86896 12.999 3.00098C13.131 3.133 13.205 3.31233 13.2051 3.49902C13.2051 3.63923 13.1636 3.7757 13.0869 3.89062L12.999 3.99707L9.0293 7.96777L8.99609 8.00098L9.0293 8.03418L12.9971 12.0029C13.1291 12.135 13.204 12.3142 13.2041 12.501C13.2041 12.6878 13.1292 12.8669 12.9971 12.999C12.865 13.1311 12.6858 13.2061 12.499 13.2061C12.3589 13.206 12.2232 13.1636 12.1084 13.0869L12.001 12.999L8.0332 9.03027L8 8.99707L7.9668 9.03027L3.99707 12.998C3.86498 13.13 3.68577 13.2041 3.49902 13.2041C3.31232 13.204 3.13301 13.1301 3.00098 12.998C2.86897 12.866 2.79493 12.6867 2.79492 12.5C2.79492 12.36 2.83658 12.2242 2.91309 12.1094L3.00098 12.002L6.9707 8.03418L7.00391 8.00098L6.9707 7.96777L3.00293 3.99805C2.87083 3.86595 2.79591 3.68682 2.7959 3.5C2.7959 3.31317 2.87082 3.13406 3.00293 3.00195C3.13502 2.86996 3.31423 2.7959 3.50098 2.7959C3.64105 2.79597 3.77678 2.83744 3.8916 2.91406L3.99902 3.00195L7.9668 6.97168L8 7.00488L8.0332 6.97168L12.0029 3.00098C12.135 2.86909 12.3143 2.79492 12.501 2.79492Z" fill="#4F46E5" stroke="#4F46E5" stroke-width="0.09375"/>
</svg>
