<?xml version="1.0" encoding="UTF-8"?>
<svg version="1.1" xmlns="http://www.w3.org/2000/svg" width="512" height="512">
<path d="M0 0 C8.24462841 6.30707392 14.12258811 14.68105361 16.625 24.8125 C18.17785389 37.53525056 17.04429127 49.0895637 9.3125 59.625 C2.53108295 67.66807603 -5.73820257 73.90682148 -16.375 75.8125 C-29.47812132 76.7126018 -40.95987804 75.59986923 -51.34765625 66.71484375 C-52.01667969 66.08707031 -52.68570312 65.45929688 -53.375 64.8125 C-54.33212891 63.91724609 -54.33212891 63.91724609 -55.30859375 63.00390625 C-62.65069506 55.40917349 -66.37776784 45.19486698 -66.625 34.6875 C-66.38927786 21.91564589 -61.31323312 11.28167692 -52.1875 2.4375 C-37.27682918 -10.01789741 -16.06375913 -10.46578246 0 0 Z M-42.73828125 22.48828125 C-46.47893465 27.80018763 -46.87691775 32.98233187 -46.02734375 39.25390625 C-44.59656475 44.86564423 -41.76639564 49.05085227 -37.10546875 52.484375 C-31.31675817 55.72969936 -25.94675778 56.95447758 -19.375 55.8125 C-12.38273989 53.69740352 -8.01918069 49.06499678 -4.23828125 42.984375 C-2.12290468 37.66243215 -2.30689201 30.69134901 -4.28515625 25.359375 C-7.45528466 20.01806539 -11.57088641 16.09263881 -17.25 13.5 C-28.28570185 11.07214559 -35.64605715 13.83548918 -42.73828125 22.48828125 Z " fill="#6E6C6C" transform="translate(337.375,313.1875)"/>
<path d="M0 0 C7.2089601 8.66042858 11.4094058 19.36175195 11.21484375 30.66796875 C10.18325669 41.86537739 5.87743012 51.94353738 -2 60 C-11.84194267 67.80702808 -22.36600896 71.60132481 -34.94140625 70.81640625 C-46.03195227 69.4138209 -55.38350129 64.7558959 -63.0234375 56.57421875 C-71.67159214 45.31110826 -73.12592469 33.74732566 -72 20 C-69.67695448 8.62371421 -62.31509359 -0.34433007 -53 -7 C-35.21766408 -16.46516958 -14.68767662 -14.5124757 0 0 Z M-45.3125 12.1875 C-50.26886212 17.37439059 -52.22668311 21.77532359 -52.5 29 C-52.23743548 35.51488217 -50.93090036 40.15174976 -46.19921875 44.75 C-40.82974694 49.08728209 -35.61558813 51.3028851 -28.625 51 C-22.37945664 50.07276063 -17.54090059 46.82523947 -13.359375 42.17578125 C-9.83645175 37.18497331 -8.54972626 32.08329015 -9 26 C-10.39786981 19.8055181 -12.91390615 15.05297118 -18 11.18359375 C-27.41241593 5.61335542 -36.28513691 6.22603381 -45.3125 12.1875 Z " fill="#6E6C6C" transform="translate(230,148)"/>
<path d="M0 0 C0.65411267 -0.00709439 1.30822535 -0.01418877 1.98215961 -0.02149814 C4.16668871 -0.03905388 6.34943261 -0.02098889 8.53393555 -0.00291443 C10.10290333 -0.00805426 11.67186534 -0.01533602 13.24081421 -0.02459717 C17.49713395 -0.04311165 21.75282728 -0.03017262 26.00912094 -0.01050687 C30.46442136 0.00588071 34.91968213 -0.00293341 39.375 -0.00802612 C46.85679122 -0.01254697 54.33833242 0.00332211 61.82006836 0.03126526 C70.46857969 0.06331719 79.1166401 0.06330144 87.76518345 0.04605049 C96.08662632 0.03018375 104.40790395 0.03691989 112.7293396 0.0539875 C116.26993206 0.06085804 119.81039207 0.05982554 123.35098267 0.05244255 C127.52080581 0.04477832 131.69011613 0.05690994 135.85985184 0.08429146 C137.38966983 0.09117499 138.91953572 0.09127355 140.44935226 0.08407593 C142.53890892 0.07537802 144.62688409 0.09133937 146.71630859 0.11352539 C147.88510056 0.11633231 149.05389252 0.11913923 150.25810242 0.12203121 C154.00726735 0.73417237 155.67694067 1.98634345 158.3581543 4.62818909 C159.88932478 8.74320975 159.80389197 12.52557485 158.1706543 16.56568909 C155.50151531 19.60298517 153.47665919 20.53105003 149.42800236 20.88266468 C148.28041163 20.88471755 147.13282091 20.88677042 145.95045471 20.8888855 C144.63115967 20.89597031 143.31186462 20.90305511 141.95259094 20.91035461 C140.49215664 20.90806083 139.03172266 20.90555114 137.57128906 20.90284729 C136.03203077 20.90719487 134.49277464 20.91237817 132.95352173 20.91833496 C128.77377974 20.9317312 124.59412814 20.93230295 120.41436887 20.92977166 C116.92523117 20.92870239 113.4361118 20.93358418 109.94697803 20.93837708 C101.71577742 20.94947438 93.48462244 20.94990839 85.25341797 20.94386292 C76.76121275 20.93782167 68.26917315 20.95013743 59.7769962 20.97143298 C52.48601651 20.98904421 45.19508957 20.99505111 37.90408939 20.99179524 C33.54944827 20.98998151 29.19492529 20.99262755 24.84030342 21.00650978 C20.74529676 21.01907579 16.65054845 21.01715577 12.55554581 21.00409889 C11.05312577 21.00173089 9.55068762 21.00447584 8.04828835 21.01272202 C5.99617113 21.02317278 3.94492349 21.01510344 1.89283752 21.00241089 C0.74486978 21.00257863 -0.40309797 21.00274637 -1.58585262 21.0029192 C-6.05665158 20.45470363 -8.6587403 18.80791557 -11.5168457 15.37818909 C-13.0530679 11.62297927 -12.75134133 9.51142378 -11.6418457 5.62818909 C-8.0073399 1.09308385 -5.76917023 0.00289403 0 0 Z " fill="#6E6C6C" transform="translate(106.641845703125,340.37181091308594)"/>
<path d="M0 0 C0.64579671 -0.00311998 1.29159342 -0.00623996 1.95695972 -0.00945449 C4.11877916 -0.01742552 6.2803172 -0.01111448 8.44213867 -0.00482178 C9.99287073 -0.00753204 11.5436015 -0.01109317 13.09432983 -0.01544189 C17.30500313 -0.02456396 21.51557849 -0.02102239 25.72625351 -0.01468372 C30.13130712 -0.0096228 34.53635231 -0.01431544 38.94140625 -0.01745605 C46.33912666 -0.02109543 53.73680714 -0.01629735 61.13452148 -0.0067749 C69.68919862 0.00410959 78.24378042 0.000584 86.79845524 -0.01042771 C94.14122109 -0.01950141 101.48395822 -0.02078546 108.82672787 -0.01555037 C113.21316529 -0.01243113 117.59955789 -0.0120201 121.98599243 -0.01862335 C126.1096811 -0.02439737 130.23324677 -0.0203989 134.35692215 -0.00883484 C135.87104717 -0.00618855 137.38518252 -0.00695282 138.89930344 -0.01136017 C140.96474736 -0.01681837 143.02979615 -0.00997848 145.09521484 0 C146.82961067 0.00113108 146.82961067 0.00113108 148.5990448 0.002285 C151.51429555 0.25112386 153.14001082 0.63187896 155.54760742 2.25396729 C157.82557384 5.63164163 158.53838509 7.72829422 158.61010742 11.81646729 C157.55465133 15.23117819 156.59029183 17.02137372 153.77169991 19.22059631 C148.50450026 21.66787369 142.15136915 20.92333789 136.44189453 20.86920166 C134.89248548 20.87270483 133.34308003 20.87836563 131.79368591 20.88601685 C127.59525253 20.90024534 123.3974756 20.88322341 119.19910502 20.85973167 C114.80254426 20.83960252 110.4060102 20.84550324 106.00941467 20.84783936 C98.62774853 20.84778581 91.2463386 20.82804433 83.86474609 20.79595947 C75.3327125 20.7590542 66.8010143 20.75028608 58.2689113 20.75725698 C50.0569347 20.7635634 41.845073 20.75280601 33.63311958 20.73329163 C30.14000371 20.72512071 26.64694658 20.7224075 23.15382195 20.72398376 C19.04068501 20.72486309 14.92786653 20.71063369 10.81481361 20.68475723 C9.30595824 20.67759916 7.79706898 20.6755101 6.28820038 20.67887497 C4.22738762 20.68259393 2.16750209 20.66782965 0.10679626 20.64837646 C-1.04594819 20.64464775 -2.19869265 20.64091904 -3.38636875 20.63707733 C-6.80708942 20.20964672 -8.68809166 19.27573872 -11.45239258 17.25396729 C-13.78065633 14.03874591 -13.84950439 11.14566304 -13.45239258 7.25396729 C-10.49156464 0.74014582 -6.82509034 0.00445095 0 0 Z " fill="#6E6C6C" transform="translate(259.452392578125,166.74603271484375)"/>
<path d="M0 0 C0.88464432 -0.00960754 1.76928864 -0.01921509 2.68074036 -0.02911377 C3.63905258 -0.03336365 4.59736481 -0.03761353 5.5847168 -0.04199219 C7.06091743 -0.0505423 7.06091743 -0.0505423 8.56694031 -0.05926514 C10.65252607 -0.06872269 12.73812682 -0.07525211 14.82373047 -0.07910156 C18.01060181 -0.0887962 21.19682534 -0.11980819 24.38354492 -0.15136719 C26.40893171 -0.15789827 28.43432312 -0.16314833 30.4597168 -0.16699219 C31.41195633 -0.17933899 32.36419586 -0.19168579 33.34529114 -0.20440674 C38.26642582 -0.18788868 41.769936 -0.13103932 45.72143555 3.16113281 C47.61584878 6.26108173 47.72467237 8.0688833 47.59643555 11.72363281 C46.6388345 15.48563692 45.76740431 16.83186258 42.72143555 19.16113281 C39.99829935 20.06884488 38.33574387 20.30075027 35.52880859 20.33813477 C34.687509 20.35097 33.84620941 20.36380524 32.97941589 20.37702942 C32.07314957 20.38441635 31.16688324 20.39180328 30.2331543 20.39941406 C29.29719925 20.40748581 28.3612442 20.41555756 27.39692688 20.4238739 C25.41567837 20.43770383 23.43440615 20.44843087 21.453125 20.45629883 C18.4307721 20.47350847 15.40951415 20.51740393 12.38745117 20.56152344 C10.46102691 20.57165107 8.53459336 20.58016695 6.6081543 20.58691406 C5.70796066 20.60442215 4.80776703 20.62193024 3.8802948 20.63996887 C-1.80644056 20.62041341 -4.92293457 19.89993625 -9.27856445 16.16113281 C-10.87943072 12.95940027 -10.77773535 9.63536222 -10.27856445 6.16113281 C-7.32959684 1.54108355 -5.36996015 0.04701398 0 0 Z " fill="#6F6D6D" transform="translate(370.278564453125,340.8388671875)"/>
<path d="M0 0 C0.95910782 -0.00287018 1.91821564 -0.00574036 2.90638733 -0.00869751 C4.93295889 -0.0107372 6.95955018 -0.00521402 8.98608398 0.00732422 C12.08296935 0.02336144 15.17854614 0.00748114 18.27539062 -0.01171875 C20.24609662 -0.00973596 22.21680181 -0.00589154 24.1875 0 C25.11159164 -0.00607269 26.03568329 -0.01214539 26.98777771 -0.0184021 C31.83889383 0.03447156 35.26894731 0.16644179 39.16015625 3.3984375 C41.61944369 7.08736866 41.85321204 10.11485171 41.16015625 14.3984375 C39.03567355 17.84156464 38.01162984 19.11461297 34.16015625 20.3984375 C32.73482131 20.50862404 31.30511373 20.567022 29.87573242 20.59130859 C28.58375191 20.61540298 28.58375191 20.61540298 27.26567078 20.63998413 C23.33198981 20.68458732 19.39847443 20.7254918 15.46459961 20.74853516 C13.39189425 20.76509472 11.31924599 20.79238467 9.24682617 20.83056641 C6.25279223 20.8854153 3.26009409 20.90722061 0.265625 20.921875 C-0.65644241 20.94454437 -1.57850983 20.96721375 -2.52851868 20.99057007 C-6.87207078 20.9763537 -9.91176005 20.82423823 -13.4050293 18.08447266 C-16.43239811 14.74474422 -16.91986016 12.87935674 -16.83984375 8.3984375 C-13.30398616 0.21013571 -8.0641118 -0.0528777 0 0 Z " fill="#6E6C6C" transform="translate(110.83984375,166.6015625)"/>
</svg>
