<svg width="14" height="14" viewBox="0 0 14 14" fill="none" xmlns="http://www.w3.org/2000/svg">
<path d="M9.36914 1.35938C9.47778 1.35942 9.58517 1.38127 9.68555 1.42285C9.78587 1.46441 9.87728 1.52482 9.9541 1.60156L12.3984 4.0459C12.4752 4.12275 12.5365 4.21407 12.5781 4.31445C12.6196 4.41478 12.6406 4.52229 12.6406 4.63086C12.6406 4.73963 12.6198 4.84776 12.5781 4.94824C12.5365 5.04868 12.4753 5.13993 12.3984 5.2168L6.19336 11.4219H11.8125C11.9161 11.4219 12.0156 11.4629 12.0889 11.5361C12.1621 11.6094 12.2031 11.7089 12.2031 11.8125C12.2031 11.9161 12.1621 12.0156 12.0889 12.0889C12.0156 12.1621 11.9161 12.2031 11.8125 12.2031H2.625C2.40537 12.2031 2.19437 12.1153 2.03906 11.96C1.88406 11.8047 1.79691 11.5944 1.79688 11.375V8.93066C1.79654 8.82209 1.81784 8.71457 1.85938 8.61426C1.90098 8.51392 1.96199 8.42223 2.03906 8.3457H2.04004L8.7832 1.60156C8.86 1.52481 8.95146 1.46444 9.05176 1.42285C9.15224 1.38122 9.26037 1.35938 9.36914 1.35938ZM2.57812 8.91113V11.4219H5.08887L9.94824 6.5625L7.4375 4.05176L2.57812 8.91113ZM7.99023 3.5L10.5 6.00977L11.8457 4.66406L11.8789 4.63184L11.8457 4.59863L9.40234 2.1543L9.36914 2.12109L7.99023 3.5Z" fill="white" stroke="white" stroke-width="0.09375"/>
</svg>
