<svg width="20" height="20" viewBox="0 0 20 20" fill="none" xmlns="http://www.w3.org/2000/svg">
<g id="Icons Line">
<path id="Shape" d="M8.54167 2.9165H11.4583C11.8035 2.9165 12.0833 3.19633 12.0833 3.5415V4.99984H7.91667V3.5415C7.91667 3.19633 8.19649 2.9165 8.54167 2.9165ZM6.66667 3.5415V4.99984H5.20833C3.71256 4.99984 2.5 6.2124 2.5 7.70817V13.9582C2.5 15.4539 3.71256 16.6665 5.20833 16.6665H14.7917C16.2874 16.6665 17.5 15.4539 17.5 13.9582V7.70817C17.5 6.2124 16.2874 4.99984 14.7917 4.99984H13.3333V3.5415C13.3333 2.50597 12.4939 1.6665 11.4583 1.6665H8.54167C7.50613 1.6665 6.66667 2.50597 6.66667 3.5415ZM16.25 7.70817V8.95817C16.25 9.76359 15.5971 10.4165 14.7917 10.4165H11.6667V9.99984C11.6667 9.5396 11.2936 9.1665 10.8333 9.1665H9.16667C8.70643 9.1665 8.33333 9.5396 8.33333 9.99984V10.4165H5.20833C4.40292 10.4165 3.75 9.76359 3.75 8.95817V7.70817C3.75 6.90275 4.40292 6.24984 5.20833 6.24984H14.7917C15.5971 6.24984 16.25 6.90275 16.25 7.70817ZM16.25 11.2407V13.9582C16.25 14.7636 15.5971 15.4165 14.7917 15.4165H5.20833C4.40292 15.4165 3.75 14.7636 3.75 13.9582V11.2407C4.17096 11.5103 4.6714 11.6665 5.20833 11.6665H8.33333C8.33333 12.1267 8.70643 12.4998 9.16667 12.4998H10.8333C11.2936 12.4998 11.6667 12.1267 11.6667 11.6665H14.7917C15.3286 11.6665 15.829 11.5103 16.25 11.2407Z" fill="#242424"/>
</g>
</svg>
