<svg width="11" height="12" viewBox="0 0 11 12" fill="none" xmlns="http://www.w3.org/2000/svg">
<path d="M10.25 7.8125C10.25 7.92853 10.2039 8.03981 10.1219 8.12186C10.0398 8.20391 9.92853 8.25 9.8125 8.25H8.5V9.125H9.375C9.49103 9.125 9.60231 9.17109 9.68436 9.25314C9.76641 9.33519 9.8125 9.44647 9.8125 9.5625C9.8125 9.67853 9.76641 9.78981 9.68436 9.87186C9.60231 9.95391 9.49103 10 9.375 10H8.5V10.875C8.5 10.991 8.45391 11.1023 8.37186 11.1844C8.28981 11.2664 8.17853 11.3125 8.0625 11.3125C7.94647 11.3125 7.83519 11.2664 7.75314 11.1844C7.67109 11.1023 7.625 10.991 7.625 10.875V7.8125C7.625 7.69647 7.67109 7.58519 7.75314 7.50314C7.83519 7.42109 7.94647 7.375 8.0625 7.375H9.8125C9.92853 7.375 10.0398 7.42109 10.1219 7.50314C10.2039 7.58519 10.25 7.69647 10.25 7.8125ZM3.03125 8.90625C3.03125 9.31236 2.86992 9.70184 2.58276 9.98901C2.29559 10.2762 1.90611 10.4375 1.5 10.4375H1.0625V10.875C1.0625 10.991 1.01641 11.1023 0.934359 11.1844C0.852312 11.2664 0.741032 11.3125 0.625 11.3125C0.508968 11.3125 0.397688 11.2664 0.315641 11.1844C0.233594 11.1023 0.1875 10.991 0.1875 10.875V7.8125C0.1875 7.69647 0.233594 7.58519 0.315641 7.50314C0.397688 7.42109 0.508968 7.375 0.625 7.375H1.5C1.90611 7.375 2.29559 7.53633 2.58276 7.82349C2.86992 8.11066 3.03125 8.50014 3.03125 8.90625ZM2.15625 8.90625C2.15625 8.7322 2.08711 8.56528 1.96404 8.44221C1.84097 8.31914 1.67405 8.25 1.5 8.25H1.0625V9.5625H1.5C1.67405 9.5625 1.84097 9.49336 1.96404 9.37029C2.08711 9.24722 2.15625 9.0803 2.15625 8.90625ZM6.96875 9.34375C6.96875 9.8659 6.76133 10.3667 6.39212 10.7359C6.0229 11.1051 5.52214 11.3125 5 11.3125H4.125C4.00897 11.3125 3.89769 11.2664 3.81564 11.1844C3.73359 11.1023 3.6875 10.991 3.6875 10.875V7.8125C3.6875 7.69647 3.73359 7.58519 3.81564 7.50314C3.89769 7.42109 4.00897 7.375 4.125 7.375H5C5.52214 7.375 6.0229 7.58242 6.39212 7.95163C6.76133 8.32085 6.96875 8.8216 6.96875 9.34375ZM6.09375 9.34375C6.09375 9.05367 5.97852 8.77547 5.7734 8.57035C5.56828 8.36523 5.29008 8.25 5 8.25H4.5625V10.4375H5C5.29008 10.4375 5.56828 10.3223 5.7734 10.1171C5.97852 9.91203 6.09375 9.63383 6.09375 9.34375ZM0.1875 5.625V1.6875C0.1875 1.45544 0.279687 1.23288 0.443782 1.06878C0.607876 0.904687 0.830436 0.8125 1.0625 0.8125H6.3125C6.36997 0.812455 6.42689 0.823733 6.48 0.84569C6.53311 0.867648 6.58137 0.899854 6.62203 0.940469L9.68453 4.00297C9.72515 4.04363 9.75735 4.09189 9.77931 4.145C9.80127 4.19811 9.81254 4.25503 9.8125 4.3125V5.625C9.8125 5.74103 9.76641 5.85231 9.68436 5.93436C9.60231 6.01641 9.49103 6.0625 9.375 6.0625C9.25897 6.0625 9.14769 6.01641 9.06564 5.93436C8.98359 5.85231 8.9375 5.74103 8.9375 5.625V4.75H6.3125C6.19647 4.75 6.08519 4.70391 6.00314 4.62186C5.92109 4.53981 5.875 4.42853 5.875 4.3125V1.6875H1.0625V5.625C1.0625 5.74103 1.01641 5.85231 0.934359 5.93436C0.852312 6.01641 0.741032 6.0625 0.625 6.0625C0.508968 6.0625 0.397688 6.01641 0.315641 5.93436C0.233594 5.85231 0.1875 5.74103 0.1875 5.625ZM6.75 3.875H8.31898L6.75 2.30602V3.875Z" fill="#3B4CBF"/>
</svg>
