<svg width="17" height="17" viewBox="0 0 17 17" fill="none" xmlns="http://www.w3.org/2000/svg">
<path d="M4.32715 0.929688C4.58479 0.898229 4.84606 0.95206 5.07129 1.08105C5.29648 1.21004 5.47393 1.40839 5.57715 1.64648V1.64746L7.22754 5.32422V5.33398L7.23145 5.34277C7.30939 5.52492 7.3405 5.72353 7.32324 5.9209C7.30593 6.11838 7.24035 6.30871 7.13184 6.47461C7.11909 6.49371 7.1056 6.51176 7.09082 6.53027L5.4668 8.46094L5.44727 8.48438L5.46094 8.51172C6.05074 9.71022 7.30262 10.9523 8.5166 11.542L8.54395 11.5557L8.56738 11.5352L10.4678 9.91406L10.4688 9.91504L10.5225 9.87402C10.6889 9.76304 10.8809 9.69514 11.0801 9.67676C11.2786 9.65847 11.4787 9.68947 11.6621 9.76758V9.76855L11.6729 9.77246V9.77344L15.3535 11.4219V11.4229C15.5915 11.5262 15.7901 11.7035 15.9189 11.9287C16.0316 12.1257 16.0863 12.3498 16.0771 12.5752L16.0693 12.6719C15.9315 13.7191 15.4168 14.6802 14.6221 15.376C13.8273 16.0718 12.8064 16.455 11.75 16.4531C5.57282 16.4531 0.546961 11.4272 0.546875 5.25C0.544982 4.19381 0.927438 3.17269 1.62305 2.37793C2.31886 1.58312 3.2808 1.06848 4.32812 0.930664L4.32715 0.929688ZM4.46777 2.07812C3.7004 2.18082 2.99704 2.55995 2.48828 3.14355C1.9795 3.7272 1.70015 4.47573 1.70312 5.25L1.71582 5.74805C1.84154 8.23028 2.88365 10.5848 4.64941 12.3506C6.53292 14.2341 9.08635 15.294 11.75 15.2969C12.5251 15.2995 13.2747 15.0197 13.8584 14.5098C14.4422 13.9997 14.8205 13.2939 14.9219 12.5254L14.9287 12.4727H14.877L11.2139 10.832L11.1865 10.8203L11.1641 10.8389L9.26465 12.459C9.24751 12.4735 9.22956 12.4875 9.21094 12.5C9.03796 12.6153 8.8382 12.6842 8.63086 12.6992C8.47531 12.7105 8.31927 12.6915 8.17188 12.6436L8.02734 12.5859C6.57345 11.8834 5.12309 10.443 4.41992 9.00488C4.32979 8.81839 4.28863 8.61199 4.30176 8.40527C4.31163 8.25025 4.352 8.09906 4.41895 7.95996L4.49512 7.82422C4.50706 7.80513 4.52039 7.78653 4.53516 7.76953L4.53613 7.76855L6.15039 5.83594L6.16992 5.81348L6.15723 5.78711L4.52051 2.125L4.52637 2.07031L4.46777 2.07812Z" fill="white" stroke="white" stroke-width="0.09375"/>
</svg>
