<svg width="16" height="17" viewBox="0 0 16 17" fill="none" xmlns="http://www.w3.org/2000/svg">
<path d="M15.5311 4.96956L13.5311 2.96956C13.3902 2.82867 13.1991 2.74951 12.9998 2.74951C12.8006 2.74951 12.6095 2.82867 12.4686 2.96956C12.3277 3.11046 12.2485 3.30156 12.2485 3.50081C12.2485 3.70007 12.3277 3.89117 12.4686 4.03206L13.188 4.75019H13.0005C9.75047 4.75019 8.95047 6.66956 8.30797 8.21144C7.75672 9.53456 7.34235 10.5271 5.6361 10.7171C5.44711 10.081 5.03453 9.53475 4.47443 9.17899C3.91433 8.82324 3.2445 8.68199 2.58844 8.78129C1.93238 8.88059 1.33435 9.21375 0.90463 9.71933C0.474907 10.2249 0.242471 10.8688 0.250186 11.5323C0.257901 12.1958 0.505246 12.8341 0.946609 13.3295C1.38797 13.825 1.99359 14.1442 2.65178 14.2282C3.30996 14.3122 3.97634 14.1554 4.52801 13.7867C5.07968 13.418 5.47945 12.8623 5.6536 12.2221C8.36235 11.9802 9.09547 10.2221 9.69297 8.78894C10.3067 7.31269 10.7505 6.25019 13.0005 6.25019H13.188L12.468 6.96956C12.3271 7.11046 12.2479 7.30156 12.2479 7.50081C12.2479 7.70007 12.3271 7.89117 12.468 8.03206C12.6089 8.17296 12.8 8.25211 12.9992 8.25211C13.1985 8.25211 13.3896 8.17296 13.5305 8.03206L15.5305 6.03206C15.6004 5.96243 15.656 5.87966 15.6939 5.78852C15.7318 5.69738 15.7513 5.59965 15.7514 5.50094C15.7514 5.40223 15.732 5.30448 15.6942 5.21329C15.6564 5.12211 15.601 5.03928 15.5311 4.96956ZM3.00047 12.7502C2.75325 12.7502 2.51157 12.6769 2.30601 12.5395C2.10045 12.4022 1.94023 12.207 1.84562 11.9785C1.75101 11.7501 1.72626 11.4988 1.77449 11.2563C1.82272 11.0138 1.94177 10.7911 2.11659 10.6163C2.29141 10.4415 2.51413 10.3224 2.75661 10.2742C2.99909 10.226 3.25042 10.2507 3.47883 10.3453C3.70724 10.4399 3.90246 10.6002 4.03981 10.8057C4.17716 11.0113 4.25047 11.253 4.25047 11.5002C4.25047 11.8317 4.11878 12.1497 3.88436 12.3841C3.64994 12.6185 3.33199 12.7502 3.00047 12.7502Z" fill="white"/>
</svg>
