<svg width="19" height="20" viewBox="0 0 19 20" fill="none" xmlns="http://www.w3.org/2000/svg">
<rect x="0.5" y="1" width="18" height="18" rx="9" stroke="#4F46E5"/>
<path d="M9.5 3.54688C11.2109 3.54869 12.8517 4.22867 14.0615 5.43848C15.2713 6.64828 15.9513 8.28908 15.9531 10C15.9531 11.2763 15.5743 12.5238 14.8652 13.585C14.1562 14.6461 13.1488 15.4735 11.9697 15.9619C10.7906 16.4503 9.49295 16.5781 8.24121 16.3291C6.98943 16.0801 5.83901 15.466 4.93652 14.5635C4.03404 13.661 3.41989 12.5106 3.1709 11.2588C2.92194 10.007 3.04968 8.70938 3.53809 7.53027C4.02651 6.35121 4.85389 5.34381 5.91504 4.63477C6.90983 3.97007 8.06826 3.59599 9.26074 3.55176L9.5 3.54688ZM11.623 4.875C10.6095 4.45519 9.49392 4.34558 8.41797 4.55957C7.34198 4.7736 6.35387 5.30238 5.57812 6.07812C4.80238 6.85387 4.2736 7.84198 4.05957 8.91797C3.84558 9.99392 3.95519 11.1095 4.375 12.123C4.79482 13.1365 5.5059 14.0028 6.41797 14.6123C7.27322 15.1838 8.2697 15.505 9.29492 15.543L9.5 15.5469C10.9706 15.5452 12.3801 14.9598 13.4199 13.9199C14.4598 12.8801 15.0452 11.4706 15.0469 10C15.0469 8.90293 14.7218 7.83015 14.1123 6.91797C13.5028 6.0059 12.6365 5.29482 11.623 4.875ZM9.5 12.5469C9.68648 12.5469 9.86521 12.6211 9.99707 12.7529C10.1289 12.8848 10.2031 13.0635 10.2031 13.25C10.2031 13.389 10.1622 13.525 10.085 13.6406C10.0078 13.7561 9.89781 13.8462 9.76953 13.8994C9.64118 13.9526 9.49955 13.9665 9.36328 13.9395C9.22689 13.9123 9.10126 13.8454 9.00293 13.7471C8.9046 13.6487 8.83768 13.5231 8.81055 13.3867C8.78353 13.2505 8.79742 13.1088 8.85059 12.9805C8.90383 12.8522 8.99388 12.7422 9.10938 12.665C9.22497 12.5878 9.361 12.5469 9.5 12.5469ZM9.5 6.54688C10.8576 6.54688 11.9531 7.53978 11.9531 8.75C11.9531 9.80982 11.1129 10.7032 9.99121 10.9092L9.95312 10.916V11C9.95312 11.1202 9.90529 11.2353 9.82031 11.3203C9.73534 11.4053 9.62018 11.4531 9.5 11.4531C9.37982 11.4531 9.26466 11.4053 9.17969 11.3203C9.09471 11.2353 9.04688 11.1202 9.04688 11V10.5C9.04688 10.3798 9.09471 10.2647 9.17969 10.1797C9.26466 10.0947 9.37982 10.0469 9.5 10.0469C10.3444 10.0469 11.0469 9.47099 11.0469 8.75C11.0469 8.02901 10.3444 7.45312 9.5 7.45312C8.65556 7.45313 7.95312 8.02901 7.95312 8.75V9C7.95312 9.12018 7.90529 9.23534 7.82031 9.32031C7.73534 9.40529 7.62018 9.45312 7.5 9.45312C7.37982 9.45312 7.26466 9.40529 7.17969 9.32031C7.09471 9.23534 7.04688 9.12018 7.04688 9V8.75C7.04688 7.53978 8.14238 6.54688 9.5 6.54688Z" fill="#4F46E5" stroke="#4F46E5" stroke-width="0.09375"/>
</svg>
