<svg width="17" height="18" viewBox="0 0 17 18" fill="none" xmlns="http://www.w3.org/2000/svg">
<path d="M9.75 13.0625C9.75 13.3097 9.67669 13.5514 9.53934 13.757C9.40199 13.9625 9.20677 14.1227 8.97836 14.2173C8.74995 14.312 8.49862 14.3367 8.25614 14.2885C8.01366 14.2403 7.79094 14.1212 7.61612 13.9464C7.4413 13.7716 7.32225 13.5488 7.27402 13.3064C7.22579 13.0639 7.25054 12.8126 7.34515 12.5841C7.43976 12.3557 7.59998 12.1605 7.80554 12.0232C8.0111 11.8858 8.25278 11.8125 8.5 11.8125C8.83152 11.8125 9.14947 11.9442 9.38389 12.1786C9.61831 12.413 9.75 12.731 9.75 13.0625ZM16.9375 9C16.9375 10.6688 16.4427 12.3001 15.5155 13.6876C14.5884 15.0752 13.2706 16.1566 11.7289 16.7952C10.1871 17.4338 8.49064 17.6009 6.85393 17.2754C5.21721 16.9498 3.7138 16.1462 2.53379 14.9662C1.35379 13.7862 0.550191 12.2828 0.224628 10.6461C-0.100935 9.00936 0.0661559 7.31286 0.70477 5.77111C1.34338 4.22936 2.42484 2.9116 3.81238 1.98448C5.19992 1.05735 6.83122 0.5625 8.5 0.5625C10.737 0.564981 12.8817 1.45473 14.4635 3.03653C16.0453 4.61833 16.935 6.763 16.9375 9ZM15.0625 9C15.0625 7.70206 14.6776 6.43327 13.9565 5.35407C13.2354 4.27487 12.2105 3.43374 11.0114 2.93704C9.81222 2.44034 8.49272 2.31038 7.21972 2.5636C5.94672 2.81681 4.7774 3.44183 3.85962 4.35961C2.94183 5.27739 2.31682 6.44672 2.0636 7.71972C1.81038 8.99272 1.94034 10.3122 2.43704 11.5114C2.93374 12.7105 3.77488 13.7354 4.85407 14.4565C5.93327 15.1776 7.20206 15.5625 8.5 15.5625C10.2399 15.5606 11.908 14.8686 13.1383 13.6383C14.3686 12.408 15.0606 10.7399 15.0625 9ZM8.5 4C6.60469 4 5.0625 5.40156 5.0625 7.125V7.4375C5.0625 7.68614 5.16128 7.9246 5.33709 8.10041C5.51291 8.27623 5.75136 8.375 6 8.375C6.24864 8.375 6.4871 8.27623 6.66292 8.10041C6.83873 7.9246 6.9375 7.68614 6.9375 7.4375V7.125C6.9375 6.43594 7.64063 5.875 8.5 5.875C9.35938 5.875 10.0625 6.43594 10.0625 7.125C10.0625 7.81406 9.35938 8.375 8.5 8.375C8.25136 8.375 8.01291 8.47377 7.83709 8.64959C7.66128 8.8254 7.5625 9.06386 7.5625 9.3125V9.9375C7.56195 10.1691 7.64715 10.3927 7.80169 10.5653C7.95623 10.7378 8.16916 10.847 8.39945 10.8719C8.62973 10.8967 8.86106 10.8354 9.04884 10.6998C9.23662 10.5642 9.36756 10.3639 9.41641 10.1375C10.868 9.77187 11.9375 8.56016 11.9375 7.125C11.9375 5.40156 10.3953 4 8.5 4Z" fill="#323130"/>
</svg>
