<svg width="11" height="15" viewBox="0 0 11 15" fill="none" xmlns="http://www.w3.org/2000/svg">
<path d="M10.5 5C10.5 7.22734 8.58828 9.07109 6.125 9.34063V10C6.125 10.1658 6.05915 10.3247 5.94194 10.4419C5.82473 10.5592 5.66576 10.625 5.5 10.625C5.33424 10.625 5.17527 10.5592 5.05806 10.4419C4.94085 10.3247 4.875 10.1658 4.875 10V8.75C4.875 8.58424 4.94085 8.42527 5.05806 8.30806C5.17527 8.19085 5.33424 8.125 5.5 8.125C7.56797 8.125 9.25 6.72344 9.25 5C9.25 3.27656 7.56797 1.875 5.5 1.875C3.43203 1.875 1.75 3.27656 1.75 5C1.75 5.16576 1.68415 5.32473 1.56694 5.44194C1.44973 5.55915 1.29076 5.625 1.125 5.625C0.95924 5.625 0.800269 5.55915 0.683058 5.44194C0.565848 5.32473 0.5 5.16576 0.5 5C0.5 2.5875 2.74297 0.625 5.5 0.625C8.25703 0.625 10.5 2.5875 10.5 5ZM5.5 12.5C5.25277 12.5 5.0111 12.5733 4.80554 12.7107C4.59998 12.848 4.43976 13.0432 4.34515 13.2716C4.25054 13.5001 4.22579 13.7514 4.27402 13.9939C4.32225 14.2363 4.4413 14.4591 4.61612 14.6339C4.79093 14.8087 5.01366 14.9278 5.25614 14.976C5.49861 15.0242 5.74995 14.9995 5.97835 14.9049C6.20676 14.8102 6.40199 14.65 6.53934 14.4445C6.67669 14.2389 6.75 13.9972 6.75 13.75C6.75 13.4185 6.6183 13.1005 6.38388 12.8661C6.14946 12.6317 5.83152 12.5 5.5 12.5Z" fill="white"/>
</svg>
