<svg width="14" height="15" viewBox="0 0 14 15" fill="none" xmlns="http://www.w3.org/2000/svg">
<path d="M12.6163 6.40515L2.1125 0.411399C1.89104 0.287342 1.63705 0.233652 1.38433 0.257468C1.13161 0.281284 0.892127 0.381479 0.697738 0.544724C0.50335 0.70797 0.363269 0.926529 0.296128 1.17133C0.228987 1.41613 0.237969 1.67558 0.321878 1.91515L2.20813 7.50015L0.321878 13.0851C0.255563 13.2736 0.235366 13.4751 0.262979 13.673C0.290592 13.8708 0.365211 14.0591 0.480585 14.2222C0.595959 14.3852 0.748728 14.5182 0.926094 14.6101C1.10346 14.702 1.30026 14.75 1.5 14.7501C1.7148 14.7497 1.9259 14.6942 2.11313 14.5889L2.11875 14.5851L12.6188 8.58077C12.8113 8.4718 12.9714 8.31368 13.0829 8.12256C13.1943 7.93145 13.253 7.71419 13.253 7.49296C13.253 7.27174 13.1943 7.05447 13.0829 6.86336C12.9714 6.67225 12.8113 6.51413 12.6188 6.40515H12.6163ZM1.94938 12.9539L3.53813 8.25015H7C7.19891 8.25015 7.38968 8.17113 7.53033 8.03048C7.67098 7.88983 7.75 7.69906 7.75 7.50015C7.75 7.30124 7.67098 7.11047 7.53033 6.96982C7.38968 6.82917 7.19891 6.75015 7 6.75015H3.53813L1.94875 2.04515L11.4963 7.49327L1.94938 12.9539Z" fill="white"/>
</svg>
