<svg width="16" height="15" viewBox="0 0 16 15" fill="none" xmlns="http://www.w3.org/2000/svg">
<path d="M9.125 3.75002V7.14612L11.9469 8.83909C12.089 8.92445 12.1914 9.06279 12.2316 9.22366C12.2717 9.38453 12.2463 9.55476 12.1609 9.6969C12.0756 9.83904 11.9372 9.94145 11.7764 9.98159C11.6155 10.0217 11.4453 9.99633 11.3031 9.91096L8.17813 8.03596C8.08564 7.98039 8.00911 7.90183 7.95599 7.80791C7.90287 7.71399 7.87497 7.60792 7.875 7.50002V3.75002C7.875 3.58426 7.94085 3.42529 8.05806 3.30808C8.17527 3.19087 8.33424 3.12502 8.5 3.12502C8.66576 3.12502 8.82473 3.19087 8.94194 3.30808C9.05915 3.42529 9.125 3.58426 9.125 3.75002ZM8.5 2.31338e-05C7.51406 -0.00243276 6.53742 0.190675 5.62661 0.568169C4.71579 0.945664 3.88889 1.50005 3.19375 2.19924C2.62578 2.77424 2.12109 3.32737 1.625 3.90627V2.50002C1.625 2.33426 1.55915 2.17529 1.44194 2.05808C1.32473 1.94087 1.16576 1.87502 1 1.87502C0.83424 1.87502 0.675269 1.94087 0.558058 2.05808C0.440848 2.17529 0.375 2.33426 0.375 2.50002V5.62502C0.375 5.79078 0.440848 5.94976 0.558058 6.06697C0.675269 6.18418 0.83424 6.25002 1 6.25002H4.125C4.29076 6.25002 4.44973 6.18418 4.56694 6.06697C4.68415 5.94976 4.75 5.79078 4.75 5.62502C4.75 5.45926 4.68415 5.30029 4.56694 5.18308C4.44973 5.06587 4.29076 5.00002 4.125 5.00002H2.32813C2.88672 4.34221 3.44297 3.72268 4.07734 3.08049C4.94598 2.21186 6.05133 1.61847 7.25529 1.37446C8.45924 1.13045 9.70841 1.24665 10.8467 1.70853C11.985 2.17041 12.9619 2.9575 13.6555 3.97144C14.349 4.98538 14.7283 6.18121 14.7461 7.40952C14.7639 8.63782 14.4193 9.84413 13.7554 10.8777C13.0915 11.9113 12.1377 12.7263 11.0132 13.2209C9.88879 13.7155 8.64351 13.8678 7.433 13.6587C6.22249 13.4496 5.10043 12.8885 4.20703 12.0453C4.14732 11.9889 4.07708 11.9448 4.00032 11.9155C3.92356 11.8862 3.84179 11.8724 3.75967 11.8747C3.67754 11.877 3.59668 11.8955 3.5217 11.929C3.44672 11.9626 3.37908 12.0106 3.32266 12.0703C3.26623 12.13 3.22212 12.2003 3.19283 12.277C3.16355 12.3538 3.14967 12.4356 3.152 12.5177C3.15432 12.5998 3.17279 12.6807 3.20636 12.7557C3.23993 12.8306 3.28795 12.8983 3.34766 12.9547C4.23785 13.7948 5.32012 14.4042 6.5 14.7298C7.67989 15.0554 8.92153 15.0873 10.1166 14.8227C11.3116 14.558 12.4237 14.005 13.3559 13.2117C14.288 12.4184 15.0118 11.4091 15.4642 10.2718C15.9165 9.13442 16.0836 7.90366 15.9509 6.68689C15.8182 5.47012 15.3897 4.30431 14.7029 3.29122C14.016 2.27813 13.0916 1.44854 12.0104 0.874854C10.9292 0.301167 9.72399 0.000819796 8.5 2.31338e-05Z" fill="white"/>
</svg>
