<svg width="21" height="21" viewBox="0 0 21 21" fill="none" xmlns="http://www.w3.org/2000/svg">
<path d="M9.875 17.375C9.875 17.5408 9.80915 17.6997 9.69194 17.8169C9.57473 17.9342 9.41576 18 9.25 18H4.25C4.08424 18 3.92527 17.9342 3.80806 17.8169C3.69085 17.6997 3.625 17.5408 3.625 17.375V3.625C3.625 3.45924 3.69085 3.30027 3.80806 3.18306C3.92527 3.06585 4.08424 3 4.25 3H9.25C9.41576 3 9.57473 3.06585 9.69194 3.18306C9.80915 3.30027 9.875 3.45924 9.875 3.625C9.875 3.79076 9.80915 3.94973 9.69194 4.06694C9.57473 4.18415 9.41576 4.25 9.25 4.25H4.875V16.75H9.25C9.41576 16.75 9.57473 16.8158 9.69194 16.9331C9.80915 17.0503 9.875 17.2092 9.875 17.375ZM18.4422 10.0578L15.3172 6.93281C15.1999 6.81554 15.0409 6.74965 14.875 6.74965C14.7091 6.74965 14.5501 6.81554 14.4328 6.93281C14.3155 7.05009 14.2497 7.20915 14.2497 7.375C14.2497 7.54085 14.3155 7.69991 14.4328 7.81719L16.4914 9.875H9.25C9.08424 9.875 8.92527 9.94085 8.80806 10.0581C8.69085 10.1753 8.625 10.3342 8.625 10.5C8.625 10.6658 8.69085 10.8247 8.80806 10.9419C8.92527 11.0592 9.08424 11.125 9.25 11.125H16.4914L14.4328 13.1828C14.3155 13.3001 14.2497 13.4591 14.2497 13.625C14.2497 13.7909 14.3155 13.9499 14.4328 14.0672C14.5501 14.1845 14.7091 14.2503 14.875 14.2503C15.0409 14.2503 15.1999 14.1845 15.3172 14.0672L18.4422 10.9422C18.5003 10.8841 18.5464 10.8152 18.5779 10.7393C18.6093 10.6635 18.6255 10.5821 18.6255 10.5C18.6255 10.4179 18.6093 10.3365 18.5779 10.2607C18.5464 10.1848 18.5003 10.1159 18.4422 10.0578Z" fill="white"/>
</svg>
