<svg width="11" height="11" viewBox="0 0 11 11" fill="none" xmlns="http://www.w3.org/2000/svg">
<g id="UsersThree">
<path id="Vector" d="M7.06298 7.78161C7.38017 7.47103 7.59766 7.07301 7.6877 6.63832C7.77774 6.20362 7.73626 5.75196 7.56854 5.34093C7.40082 4.92991 7.11447 4.57817 6.74602 4.33056C6.37756 4.08296 5.9437 3.95073 5.49977 3.95073C5.05585 3.95073 4.62199 4.08296 4.25353 4.33056C3.88507 4.57817 3.59872 4.92991 3.431 5.34093C3.26328 5.75196 3.2218 6.20362 3.31184 6.63832C3.40189 7.07301 3.61938 7.47103 3.93657 7.78161C3.39952 8.06708 2.95302 8.49707 2.64751 9.02297C2.58208 9.1412 2.56568 9.28039 2.60182 9.41059C2.63797 9.54078 2.72379 9.65159 2.8408 9.71916C2.95781 9.78674 3.09668 9.80568 3.22751 9.77191C3.35835 9.73814 3.4707 9.65436 3.5404 9.5386C3.74188 9.19818 4.02857 8.91611 4.37221 8.72017C4.71586 8.52424 5.10462 8.4212 5.5002 8.4212C5.89578 8.4212 6.28454 8.52424 6.62819 8.72017C6.97184 8.91611 7.25852 9.19818 7.46001 9.5386C7.49318 9.59854 7.53796 9.65127 7.59173 9.6937C7.64551 9.73614 7.70721 9.76744 7.77321 9.78576C7.83922 9.80409 7.90822 9.80908 7.97618 9.80044C8.04413 9.7918 8.10969 9.76971 8.16901 9.73545C8.22833 9.70119 8.28024 9.65546 8.32168 9.60092C8.36313 9.54637 8.3933 9.48412 8.41042 9.41779C8.42754 9.35146 8.43127 9.28238 8.42139 9.21459C8.41152 9.1468 8.38823 9.08166 8.3529 9.02297C8.04715 8.49695 7.60034 8.06696 7.06298 7.78161ZM4.29665 6.18747C4.29665 5.94951 4.36721 5.7169 4.49941 5.51905C4.63161 5.32119 4.81951 5.16699 5.03936 5.07592C5.2592 4.98486 5.50111 4.96104 5.73449 5.00746C5.96787 5.05388 6.18225 5.16847 6.35051 5.33673C6.51877 5.50499 6.63336 5.71937 6.67978 5.95275C6.7262 6.18613 6.70238 6.42804 6.61131 6.64788C6.52025 6.86772 6.36605 7.05563 6.16819 7.18783C5.97034 7.32003 5.73773 7.39059 5.49977 7.39059C5.18068 7.39059 4.87466 7.26383 4.64903 7.0382C4.42341 6.81257 4.29665 6.50656 4.29665 6.18747ZM10.6221 6.59954C10.5679 6.64025 10.5063 6.6699 10.4406 6.68677C10.375 6.70365 10.3067 6.70743 10.2396 6.69789C10.1726 6.68835 10.108 6.66569 10.0497 6.63119C9.99138 6.59669 9.94044 6.55104 9.89977 6.49684C9.54184 6.02032 9.04684 5.65508 8.6395 5.567C8.53119 5.54357 8.4333 5.48587 8.36035 5.40245C8.2874 5.31903 8.24327 5.21433 8.23449 5.10386C8.22572 4.99339 8.25277 4.88303 8.31163 4.78914C8.37049 4.69525 8.45804 4.62282 8.5613 4.58258C8.68985 4.5324 8.80443 4.452 8.89535 4.34817C8.98626 4.24434 9.05083 4.12014 9.0836 3.98609C9.11637 3.85203 9.11637 3.71205 9.0836 3.57799C9.05083 3.44393 8.98626 3.31974 8.89535 3.21591C8.80443 3.11208 8.68985 3.03168 8.5613 2.98149C8.43274 2.93131 8.29399 2.91283 8.15677 2.92761C8.01956 2.94238 7.88793 2.98999 7.77301 3.0664C7.65808 3.1428 7.56325 3.24576 7.49653 3.36657C7.46489 3.42779 7.4213 3.48204 7.36833 3.52613C7.31537 3.57022 7.2541 3.60324 7.18816 3.62324C7.12221 3.64325 7.05293 3.64983 6.9844 3.64261C6.91586 3.63538 6.84947 3.61449 6.78915 3.58117C6.72883 3.54785 6.6758 3.50277 6.6332 3.44861C6.59059 3.39445 6.55928 3.33229 6.5411 3.26582C6.52292 3.19935 6.51826 3.12991 6.52738 3.0616C6.53649 2.99329 6.55921 2.92751 6.59419 2.86813C6.72178 2.64252 6.89439 2.44556 7.10131 2.28947C7.30823 2.13339 7.54503 2.02151 7.79701 1.9608C8.04899 1.90009 8.31076 1.89184 8.56606 1.93655C8.82136 1.98127 9.06474 2.07801 9.28108 2.22075C9.49742 2.36349 9.6821 2.54919 9.82365 2.76631C9.9652 2.98343 10.0606 3.22734 10.1039 3.48289C10.1472 3.73843 10.1375 4.00015 10.0754 4.25179C10.0133 4.50343 9.90016 4.73961 9.74294 4.94567C10.1213 5.19769 10.4534 5.51296 10.7248 5.87766C10.8069 5.98701 10.8422 6.12449 10.8229 6.25987C10.8037 6.39524 10.7314 6.51742 10.6221 6.59954ZM2.36005 5.56829C1.9527 5.65637 1.4577 6.02161 1.09977 6.49856C1.01744 6.60791 0.895035 6.68006 0.759496 6.69916C0.623957 6.71826 0.486383 6.68273 0.377038 6.6004C0.267693 6.51806 0.195535 6.39566 0.176437 6.26012C0.157339 6.12458 0.192866 5.98701 0.275202 5.87766C0.546695 5.51306 0.878803 5.19782 1.25704 4.94567C1.09982 4.73961 0.986642 4.50343 0.924545 4.25179C0.862448 4.00015 0.852755 3.73843 0.896068 3.48289C0.939381 3.22734 1.03477 2.98343 1.17632 2.76631C1.31787 2.54919 1.50255 2.36349 1.71889 2.22075C1.93523 2.07801 2.17861 1.98127 2.43392 1.93655C2.68922 1.89184 2.95099 1.90009 3.20296 1.9608C3.45494 2.02151 3.69174 2.13339 3.89866 2.28947C4.10558 2.44556 4.2782 2.64252 4.40579 2.86813C4.44076 2.92751 4.46348 2.99329 4.4726 3.0616C4.48172 3.12991 4.47705 3.19935 4.45887 3.26582C4.4407 3.33229 4.40938 3.39445 4.36678 3.44861C4.32417 3.50277 4.27114 3.54785 4.21082 3.58117C4.1505 3.61449 4.08411 3.63538 4.01558 3.64261C3.94705 3.64983 3.87776 3.64325 3.81182 3.62324C3.74587 3.60324 3.68461 3.57022 3.63164 3.52613C3.57868 3.48204 3.53508 3.42779 3.50344 3.36657C3.43673 3.24576 3.34189 3.1428 3.22697 3.0664C3.11205 2.98999 2.98041 2.94238 2.8432 2.92761C2.70599 2.91283 2.56724 2.93131 2.43868 2.98149C2.31012 3.03168 2.19554 3.11208 2.10463 3.21591C2.01371 3.31974 1.94914 3.44393 1.91638 3.57799C1.88361 3.71205 1.88361 3.85203 1.91638 3.98609C1.94914 4.12014 2.01371 4.24434 2.10463 4.34817C2.19554 4.452 2.31012 4.5324 2.43868 4.58258C2.54193 4.62282 2.62948 4.69525 2.68835 4.78914C2.74721 4.88303 2.77426 4.99339 2.76548 5.10386C2.75671 5.21433 2.71257 5.31903 2.63962 5.40245C2.56667 5.48587 2.46879 5.54357 2.36048 5.567L2.36005 5.56829Z" fill="#3B4CBF"/>
</g>
</svg>
