<svg width="11" height="11" viewBox="0 0 11 11" fill="none" xmlns="http://www.w3.org/2000/svg">
<g id="UsersThree">
<path id="Vector" d="M7.06322 7.78163C7.38041 7.47106 7.5979 7.07303 7.68795 6.63834C7.77799 6.20364 7.73651 5.75198 7.56879 5.34096C7.40107 4.92994 7.11472 4.57819 6.74626 4.33059C6.3778 4.08299 5.94394 3.95075 5.50002 3.95075C5.05609 3.95075 4.62223 4.08299 4.25377 4.33059C3.88532 4.57819 3.59897 4.92994 3.43125 5.34096C3.26353 5.75198 3.22205 6.20364 3.31209 6.63834C3.40213 7.07303 3.61962 7.47106 3.93681 7.78163C3.39977 8.06711 2.95326 8.49709 2.64775 9.023C2.58232 9.14123 2.56592 9.28041 2.60207 9.41061C2.63822 9.54081 2.72403 9.65161 2.84104 9.71919C2.95806 9.78676 3.09692 9.8057 3.22776 9.77193C3.35859 9.73816 3.47095 9.65439 3.54064 9.53862C3.74213 9.1982 4.02881 8.91613 4.37246 8.72019C4.71611 8.52426 5.10487 8.42122 5.50045 8.42122C5.89603 8.42122 6.28479 8.52426 6.62843 8.72019C6.97208 8.91613 7.25877 9.1982 7.46025 9.53862C7.49342 9.59856 7.5382 9.65129 7.59198 9.69373C7.64576 9.73616 7.70745 9.76746 7.77346 9.78579C7.83946 9.80411 7.90846 9.8091 7.97642 9.80046C8.04438 9.79183 8.10993 9.76973 8.16926 9.73547C8.22858 9.70122 8.28048 9.65548 8.32193 9.60094C8.36338 9.5464 8.39354 9.48414 8.41066 9.41781C8.42778 9.35148 8.43151 9.2824 8.42164 9.21462C8.41176 9.14683 8.38848 9.08169 8.35314 9.023C8.0474 8.49697 7.60058 8.06698 7.06322 7.78163ZM4.29689 6.18749C4.29689 5.94953 4.36745 5.71692 4.49966 5.51907C4.63186 5.32122 4.81976 5.16701 5.0396 5.07595C5.25944 4.98489 5.50135 4.96106 5.73474 5.00748C5.96812 5.05391 6.1825 5.16849 6.35076 5.33675C6.51902 5.50501 6.6336 5.71939 6.68002 5.95277C6.72645 6.18616 6.70262 6.42806 6.61156 6.64791C6.5205 6.86775 6.36629 7.05565 6.16844 7.18785C5.97058 7.32005 5.73797 7.39062 5.50002 7.39062C5.18093 7.39062 4.87491 7.26386 4.64928 7.03823C4.42365 6.8126 4.29689 6.50658 4.29689 6.18749ZM10.6223 6.59956C10.5682 6.64028 10.5065 6.66992 10.4409 6.6868C10.3753 6.70367 10.307 6.70745 10.2399 6.69791C10.1728 6.68837 10.1083 6.66571 10.0499 6.63121C9.99163 6.59672 9.94068 6.55106 9.90002 6.49686C9.54209 6.02034 9.04709 5.65511 8.63974 5.56702C8.53143 5.54359 8.43355 5.4859 8.3606 5.40248C8.28765 5.31906 8.24351 5.21435 8.23474 5.10388C8.22596 4.99341 8.25301 4.88305 8.31187 4.78916C8.37074 4.69527 8.45828 4.62284 8.56154 4.58261C8.6901 4.53242 8.80468 4.45202 8.89559 4.34819C8.98651 4.24436 9.05108 4.12017 9.08384 3.98611C9.11661 3.85205 9.11661 3.71207 9.08384 3.57801C9.05108 3.44396 8.98651 3.31976 8.89559 3.21593C8.80468 3.11211 8.6901 3.0317 8.56154 2.98152C8.43298 2.93133 8.29423 2.91285 8.15702 2.92763C8.01981 2.94241 7.88817 2.99001 7.77325 3.06642C7.65833 3.14283 7.56349 3.24579 7.49678 3.36659C7.46513 3.42781 7.42154 3.48207 7.36858 3.52615C7.31561 3.57024 7.25435 3.60326 7.1884 3.62327C7.12246 3.64327 7.05317 3.64986 6.98464 3.64263C6.91611 3.6354 6.84972 3.61451 6.7894 3.58119C6.72908 3.54787 6.67605 3.5028 6.63344 3.44863C6.59084 3.39447 6.55952 3.33232 6.54135 3.26584C6.52317 3.19937 6.5185 3.12993 6.52762 3.06162C6.53674 2.99332 6.55946 2.92753 6.59443 2.86815C6.72202 2.64255 6.89464 2.44558 7.10156 2.2895C7.30848 2.13341 7.54528 2.02154 7.79726 1.96082C8.04923 1.90011 8.311 1.89186 8.5663 1.93658C8.82161 1.9813 9.06499 2.07803 9.28133 2.22077C9.49767 2.36351 9.68235 2.54921 9.8239 2.76633C9.96545 2.98346 10.0608 3.22737 10.1042 3.48291C10.1475 3.73845 10.1378 4.00017 10.0757 4.25181C10.0136 4.50345 9.9004 4.73964 9.74318 4.94569C10.1215 5.19771 10.4536 5.51298 10.725 5.87768C10.8071 5.98703 10.8424 6.12451 10.8232 6.25989C10.8039 6.39526 10.7317 6.51744 10.6223 6.59956ZM2.36029 5.56831C1.95295 5.6564 1.45795 6.02163 1.10002 6.49858C1.01768 6.60793 0.89528 6.68009 0.759741 6.69919C0.624202 6.71828 0.486627 6.68276 0.377282 6.60042C0.267938 6.51808 0.195779 6.39568 0.176681 6.26014C0.157583 6.1246 0.19311 5.98703 0.275446 5.87768C0.546939 5.51309 0.879048 5.19784 1.25728 4.94569C1.10006 4.73964 0.986886 4.50345 0.924789 4.25181C0.862692 4.00017 0.852999 3.73845 0.896312 3.48291C0.939625 3.22737 1.03502 2.98346 1.17657 2.76633C1.31812 2.54921 1.5028 2.36351 1.71914 2.22077C1.93548 2.07803 2.17886 1.9813 2.43416 1.93658C2.68946 1.89186 2.95123 1.90011 3.20321 1.96082C3.45518 2.02154 3.69199 2.13341 3.89891 2.2895C4.10583 2.44558 4.27844 2.64255 4.40603 2.86815C4.44101 2.92753 4.46373 2.99332 4.47284 3.06162C4.48196 3.12993 4.47729 3.19937 4.45912 3.26584C4.44094 3.33232 4.40963 3.39447 4.36702 3.44863C4.32442 3.5028 4.27139 3.54787 4.21107 3.58119C4.15074 3.61451 4.08436 3.6354 4.01582 3.64263C3.94729 3.64986 3.87801 3.64327 3.81206 3.62327C3.74612 3.60326 3.68485 3.57024 3.63189 3.52615C3.57892 3.48207 3.53533 3.42781 3.50369 3.36659C3.43697 3.24579 3.34214 3.14283 3.22721 3.06642C3.11229 2.99001 2.98066 2.94241 2.84345 2.92763C2.70623 2.91285 2.56748 2.93133 2.43892 2.98152C2.31037 3.0317 2.19579 3.11211 2.10487 3.21593C2.01396 3.31976 1.94939 3.44396 1.91662 3.57801C1.88385 3.71207 1.88385 3.85205 1.91662 3.98611C1.94939 4.12017 2.01396 4.24436 2.10487 4.34819C2.19578 4.45202 2.31037 4.53242 2.43892 4.58261C2.54218 4.62284 2.62973 4.69527 2.68859 4.78916C2.74745 4.88305 2.7745 4.99341 2.76573 5.10388C2.75695 5.21435 2.71282 5.31906 2.63987 5.40248C2.56692 5.4859 2.46903 5.54359 2.36072 5.56702L2.36029 5.56831Z" fill="white"/>
</g>
</svg>
