<svg width="14" height="14" viewBox="0 0 14 14" fill="none" xmlns="http://www.w3.org/2000/svg">
<g id="UsersThree">
<path id="Vector" d="M3.50669 8.08277C3.50817 8.11241 3.50361 8.14203 3.49329 8.16985C3.48296 8.19766 3.46708 8.22309 3.44662 8.24457C3.42616 8.26606 3.40154 8.28316 3.37426 8.29483C3.34698 8.3065 3.31761 8.3125 3.28794 8.31246H0.875128C0.776382 8.31261 0.680489 8.27935 0.603043 8.21809C0.525597 8.15683 0.471154 8.07117 0.448566 7.97504C0.4345 7.90924 0.435149 7.84115 0.450464 7.77564C0.46578 7.71012 0.495384 7.6488 0.537159 7.59606C0.923148 7.08417 1.43529 6.68113 2.02357 6.42629C1.76529 6.19081 1.5672 5.89687 1.44589 5.56908C1.32458 5.2413 1.28357 4.88922 1.32631 4.54233C1.36904 4.19544 1.49428 3.86385 1.69152 3.57531C1.88877 3.28678 2.15228 3.0497 2.45999 2.88395C2.7677 2.7182 3.11064 2.62859 3.4601 2.62263C3.80956 2.61667 4.15536 2.69454 4.46854 2.84971C4.78172 3.00487 5.05316 3.23282 5.26013 3.51447C5.46709 3.79611 5.60356 4.12325 5.6581 4.46848C5.66514 4.5149 5.65682 4.56236 5.63441 4.60362C5.61201 4.64488 5.57673 4.6777 5.53396 4.69707C4.92714 4.97761 4.41323 5.42586 4.05286 5.98894C3.69249 6.55202 3.5007 7.20644 3.50013 7.87496C3.50013 7.94496 3.50013 8.01387 3.50669 8.08277ZM13.4598 7.59551C13.0747 7.08422 12.5638 6.68139 11.9767 6.42629C12.235 6.19081 12.4331 5.89687 12.5544 5.56908C12.6757 5.2413 12.7167 4.88922 12.6739 4.54233C12.6312 4.19544 12.506 3.86385 12.3087 3.57531C12.1115 3.28678 11.848 3.0497 11.5403 2.88395C11.2326 2.7182 10.8896 2.62859 10.5402 2.62263C10.1907 2.61667 9.84489 2.69454 9.53171 2.84971C9.21854 3.00487 8.94709 3.23282 8.74013 3.51447C8.53316 3.79611 8.3967 4.12325 8.34216 4.46848C8.33512 4.5149 8.34343 4.56236 8.36584 4.60362C8.38825 4.64488 8.42353 4.6777 8.4663 4.69707C9.07312 4.97761 9.58703 5.42586 9.9474 5.98894C10.3078 6.55202 10.4996 7.20644 10.5001 7.87496C10.5001 7.94496 10.5001 8.01387 10.4936 8.08277C10.4921 8.11241 10.4966 8.14203 10.507 8.16985C10.5173 8.19766 10.5332 8.22309 10.5536 8.24457C10.5741 8.26606 10.5987 8.28316 10.626 8.29483C10.6533 8.3065 10.6826 8.3125 10.7123 8.31246H13.1251C13.2239 8.31261 13.3198 8.27935 13.3972 8.21809C13.4747 8.15683 13.5291 8.07117 13.5517 7.97504C13.5658 7.90912 13.5652 7.84089 13.5498 7.77526C13.5344 7.70962 13.5046 7.64823 13.4625 7.59551H13.4598ZM8.59263 9.95692C9.02824 9.6233 9.34836 9.16158 9.50801 8.63663C9.66765 8.11168 9.65878 7.5499 9.48266 7.03025C9.30653 6.5106 8.972 6.05921 8.52608 5.73951C8.08015 5.4198 7.54526 5.24787 6.99657 5.24787C6.44789 5.24787 5.91299 5.4198 5.46707 5.73951C5.02115 6.05921 4.68661 6.5106 4.51049 7.03025C4.33436 7.5499 4.3255 8.11168 4.48514 8.63663C4.64478 9.16158 4.96491 9.6233 5.40052 9.95692C4.62753 10.2918 3.98207 10.8654 3.55864 11.5937C3.52024 11.6602 3.50003 11.7357 3.50003 11.8125C3.50003 11.8893 3.52026 11.9647 3.55867 12.0313C3.59708 12.0978 3.65232 12.153 3.71884 12.1914C3.78537 12.2298 3.86082 12.25 3.93763 12.25H10.0626C10.1394 12.25 10.2149 12.2298 10.2814 12.1914C10.3479 12.153 10.4032 12.0978 10.4416 12.0313C10.48 11.9647 10.5002 11.8893 10.5002 11.8125C10.5002 11.7357 10.48 11.6602 10.4416 11.5937C10.0173 10.865 9.37062 10.2913 8.59646 9.95692H8.59263Z" fill="#3B4CBF"/>
</g>
</svg>
