<svg width="40" height="40" viewBox="0 0 40 40" fill="none" xmlns="http://www.w3.org/2000/svg">
<rect width="40" height="40" rx="8" fill="white" fill-opacity="0.3"/>
<path d="M24.4902 20.0435C25.2368 20.0435 25.966 20.2692 26.582 20.6909C27.1981 21.1128 27.6724 21.7115 27.9424 22.4077C28.2124 23.104 28.2664 23.8662 28.0957 24.5933C27.925 25.3202 27.5379 25.9786 26.9863 26.4819L26.9326 26.5308L27 26.5591C27.8892 26.941 28.6766 27.5221 29.3037 28.2544L29.5625 28.5767C29.6214 28.6549 29.6634 28.7447 29.6855 28.8394L29.7012 28.936C29.713 29.0662 29.6882 29.1971 29.6299 29.314C29.5715 29.4309 29.4813 29.5295 29.3701 29.5981C29.2589 29.6668 29.1307 29.7028 29 29.7026H11C10.8694 29.7026 10.741 29.6668 10.6299 29.5981C10.5189 29.5295 10.4294 29.4307 10.3711 29.314C10.3128 29.1973 10.2882 29.0669 10.2998 28.937C10.3115 28.807 10.3592 28.6821 10.4375 28.5776C11.0967 27.6939 11.9758 26.9978 12.9873 26.5591L13.0537 26.5308L13 26.4819C12.4486 25.9786 12.0623 25.3201 11.8916 24.5933C11.7209 23.8662 11.774 23.104 12.0439 22.4077C12.3139 21.7115 12.7882 21.1129 13.4043 20.6909C14.0205 20.269 14.7503 20.0435 15.4971 20.0435C16.2436 20.0435 16.9728 20.2691 17.5889 20.6909C18.205 21.1128 18.6792 21.7115 18.9492 22.4077C19.2192 23.104 19.2722 23.8662 19.1016 24.5933C18.9308 25.3201 18.5446 25.9786 17.9932 26.4819L17.9395 26.5308L18.0059 26.5591C18.7355 26.8745 19.3987 27.3262 19.96 27.8892L19.9932 27.9224L20.0264 27.8892C20.5876 27.3261 21.2508 26.8745 21.9805 26.5591L22.0469 26.5308L21.9941 26.4819C21.4426 25.9786 21.0555 25.3202 20.8848 24.5933C20.7141 23.8662 20.7671 23.104 21.0371 22.4077C21.3071 21.7115 21.7813 21.1129 22.3975 20.6909C23.0136 20.269 23.7434 20.0435 24.4902 20.0435ZM24.5029 10.2935C25.2497 10.2935 25.9795 10.519 26.5957 10.9409C27.2118 11.3629 27.6861 11.9615 27.9561 12.6577C28.226 13.354 28.2791 14.1162 28.1084 14.8433C27.9377 15.5701 27.5514 16.2286 27 16.7319L26.9463 16.7808L27.0127 16.8091C27.8976 17.1926 28.681 17.7735 29.3047 18.5044L29.5625 18.8267C29.618 18.9005 29.6587 18.9852 29.6816 19.0747C29.7045 19.164 29.7092 19.2569 29.6963 19.3481C29.6833 19.4396 29.6525 19.5284 29.6055 19.6079C29.5585 19.6873 29.4956 19.7566 29.4219 19.812C29.3481 19.8673 29.2641 19.9082 29.1748 19.9312C29.0854 19.9541 28.9918 19.9588 28.9004 19.9458C28.8091 19.9327 28.721 19.9019 28.6416 19.855C28.6017 19.8314 28.5646 19.8037 28.5303 19.7729L28.4375 19.6714C27.9791 19.0602 27.3845 18.5638 26.7012 18.2222C26.0178 17.8805 25.264 17.7026 24.5 17.7026C23.736 17.7026 22.9822 17.8805 22.2988 18.2222C21.6155 18.5638 21.0209 19.0602 20.5625 19.6714C20.497 19.7587 20.412 19.8296 20.3145 19.8784C20.2168 19.9272 20.1092 19.9526 20 19.9526C19.8908 19.9526 19.7832 19.9272 19.6855 19.8784C19.588 19.8296 19.503 19.7587 19.4375 19.6714C18.9791 19.0602 18.3845 18.5638 17.7012 18.2222C17.0178 17.8805 16.264 17.7026 15.5 17.7026C14.736 17.7026 13.9822 17.8805 13.2988 18.2222C12.6155 18.5638 12.0209 19.0602 11.5625 19.6714C11.5071 19.7452 11.4378 19.8079 11.3584 19.855C11.279 19.902 11.191 19.9327 11.0996 19.9458C11.0082 19.9589 10.9146 19.9541 10.8252 19.9312C10.7358 19.9082 10.6519 19.8674 10.5781 19.812C10.5043 19.7566 10.4415 19.6873 10.3945 19.6079C10.3476 19.5285 10.3168 19.4404 10.3037 19.3491C10.2907 19.2578 10.2965 19.165 10.3193 19.0757C10.3423 18.9862 10.3821 18.9015 10.4375 18.8276C11.1003 17.9422 11.9839 17.2459 13 16.8091L13.0674 16.7808L13.0137 16.7319C12.4621 16.2286 12.075 15.5702 11.9043 14.8433C11.7336 14.1162 11.7876 13.354 12.0576 12.6577C12.3276 11.9615 12.8019 11.3628 13.418 10.9409C14.034 10.5192 14.7632 10.2935 15.5098 10.2935C16.2566 10.2935 16.9864 10.519 17.6025 10.9409C18.2187 11.3629 18.6929 11.9615 18.9629 12.6577C19.2329 13.354 19.2859 14.1162 19.1152 14.8433C18.9445 15.5702 18.5574 16.2286 18.0059 16.7319L17.9531 16.7808L18.0195 16.8091C18.7492 17.1245 19.4124 17.5761 19.9736 18.1392L20.0068 18.1724L20.04 18.1392C20.6013 17.5762 21.2645 17.1245 21.9941 16.8091L22.0605 16.7808L22.0068 16.7319C21.4554 16.2286 21.0692 15.5701 20.8984 14.8433C20.7278 14.1162 20.7808 13.354 21.0508 12.6577C21.3208 11.9615 21.795 11.3628 22.4111 10.9409C23.0272 10.5191 23.7564 10.2935 24.5029 10.2935Z" fill="white" stroke="white" stroke-width="0.09375"/>
</svg>
