<svg width="51" height="49" viewBox="0 0 51 49" fill="none" xmlns="http://www.w3.org/2000/svg">
<g id="UsersThree">
<rect id="Rectangle 3467311" x="0.5" width="50" height="49" rx="10" fill="#3B4CBF"/>
<path id="Vector" d="M18.5142 27.3201C18.5174 27.3836 18.5076 27.4471 18.4855 27.5067C18.4633 27.5663 18.4293 27.6208 18.3855 27.6668C18.3416 27.7129 18.2889 27.7495 18.2304 27.7745C18.172 27.7995 18.109 27.8124 18.0454 27.8123H12.8751C12.6635 27.8126 12.4581 27.7414 12.2921 27.6101C12.1261 27.4788 12.0095 27.2953 11.9611 27.0893C11.9309 26.9483 11.9323 26.8024 11.9651 26.662C11.998 26.5216 12.0614 26.3902 12.1509 26.2772C12.978 25.1803 14.0755 24.3166 15.3361 23.7705C14.7826 23.2659 14.3581 22.636 14.0982 21.9336C13.8382 21.2313 13.7504 20.4768 13.8419 19.7335C13.9335 18.9901 14.2019 18.2796 14.6246 17.6613C15.0472 17.043 15.6119 16.535 16.2713 16.1798C16.9306 15.8246 17.6655 15.6326 18.4144 15.6198C19.1632 15.6071 19.9042 15.7739 20.5753 16.1064C21.2464 16.4389 21.8281 16.9274 22.2716 17.5309C22.7151 18.1344 23.0075 18.8354 23.1244 19.5752C23.1394 19.6747 23.1216 19.7764 23.0736 19.8648C23.0256 19.9532 22.95 20.0235 22.8583 20.065C21.558 20.6662 20.4568 21.6267 19.6846 22.8333C18.9123 24.0399 18.5014 25.4423 18.5001 26.8748C18.5001 27.0248 18.5001 27.1725 18.5142 27.3201ZM39.8423 26.276C39.0171 25.1804 37.9222 24.3172 36.6642 23.7705C37.2176 23.2659 37.6421 22.636 37.9021 21.9336C38.162 21.2313 38.2499 20.4768 38.1583 19.7335C38.0667 18.9901 37.7984 18.2796 37.3757 17.6613C36.953 17.043 36.3884 16.535 35.729 16.1798C35.0696 15.8246 34.3347 15.6326 33.5859 15.6198C32.8371 15.6071 32.0961 15.7739 31.425 16.1064C30.7539 16.4389 30.1722 16.9274 29.7287 17.5309C29.2852 18.1344 28.9928 18.8354 28.8759 19.5752C28.8608 19.6747 28.8786 19.7764 28.9267 19.8648C28.9747 19.9532 29.0503 20.0235 29.1419 20.065C30.4423 20.6662 31.5435 21.6267 32.3157 22.8333C33.0879 24.0399 33.4989 25.4423 33.5001 26.8748C33.5001 27.0248 33.5001 27.1725 33.4861 27.3201C33.4829 27.3836 33.4927 27.4471 33.5148 27.5067C33.5369 27.5663 33.5709 27.6208 33.6148 27.6668C33.6586 27.7129 33.7114 27.7495 33.7699 27.7745C33.8283 27.7995 33.8912 27.8124 33.9548 27.8123H39.1251C39.3367 27.8126 39.5422 27.7414 39.7082 27.6101C39.8741 27.4788 39.9908 27.2953 40.0392 27.0893C40.0695 26.948 40.0681 26.8018 40.0351 26.6612C40.0021 26.5205 39.9382 26.389 39.8482 26.276H39.8423ZM29.4126 31.3361C30.3461 30.6213 31.0321 29.6318 31.3742 28.507C31.7163 27.3821 31.6973 26.1783 31.3198 25.0647C30.9424 23.9512 30.2256 22.9839 29.27 22.2988C28.3145 21.6138 27.1683 21.2453 25.9925 21.2453C24.8168 21.2453 23.6706 21.6138 22.715 22.2988C21.7595 22.9839 21.0426 23.9512 20.6652 25.0647C20.2878 26.1783 20.2688 27.3821 20.6109 28.507C20.953 29.6318 21.6389 30.6213 22.5724 31.3361C20.916 32.0538 19.5329 33.283 18.6255 34.8436C18.5432 34.9861 18.4999 35.1478 18.4999 35.3124C18.4999 35.4769 18.5433 35.6386 18.6256 35.7812C18.7079 35.9237 18.8263 36.042 18.9688 36.1243C19.1114 36.2066 19.2731 36.2498 19.4376 36.2498H32.5626C32.7272 36.2498 32.8889 36.2066 33.0315 36.1243C33.174 36.042 33.2924 35.9237 33.3747 35.7812C33.457 35.6386 33.5003 35.4769 33.5003 35.3124C33.5004 35.1478 33.457 34.9861 33.3747 34.8436C32.4655 33.2819 31.0798 32.0527 29.4208 31.3361H29.4126Z" fill="white"/>
</g>
</svg>
