<svg width="40" height="40" viewBox="0 0 40 40" fill="none" xmlns="http://www.w3.org/2000/svg">
<rect width="40" height="40" rx="8" fill="white" fill-opacity="0.3"/>
<path d="M20 10.2969C22.5726 10.2996 25.0393 11.3225 26.8584 13.1416C28.6775 14.9607 29.7004 17.4274 29.7031 20C29.7031 21.9191 29.1336 23.795 28.0674 25.3906C27.0012 26.9862 25.4859 28.2305 23.7129 28.9648C21.9401 29.6991 19.9894 29.8909 18.1074 29.5166C16.2252 29.1422 14.4957 28.2183 13.1387 26.8613C11.7817 25.5043 10.8578 23.7748 10.4834 21.8926C10.1091 20.0106 10.3009 18.0599 11.0352 16.2871C11.7695 14.5141 13.0138 12.9988 14.6094 11.9326C16.1053 10.9331 17.8474 10.3702 19.6406 10.3037L20 10.2969ZM20 13.9531C19.7887 13.9531 19.586 14.0371 19.4365 14.1865C19.2871 14.336 19.2031 14.5387 19.2031 14.75V15.4531H18.875C18.1664 15.4531 17.4864 15.7343 16.9854 16.2354C16.4843 16.7364 16.2031 17.4164 16.2031 18.125C16.2031 18.8336 16.4843 19.5136 16.9854 20.0146C17.4864 20.5157 18.1664 20.7969 18.875 20.7969H21.125C21.4109 20.7969 21.6855 20.9101 21.8877 21.1123C22.0899 21.3145 22.2031 21.5891 22.2031 21.875C22.2031 22.1609 22.0899 22.4355 21.8877 22.6377C21.6855 22.8399 21.4109 22.9531 21.125 22.9531H17.75C17.5387 22.9531 17.336 23.0371 17.1865 23.1865C17.0371 23.336 16.9531 23.5387 16.9531 23.75C16.9531 23.9613 17.0371 24.164 17.1865 24.3135C17.336 24.4629 17.5387 24.5469 17.75 24.5469H19.2031V25.25C19.2031 25.4613 19.2871 25.664 19.4365 25.8135C19.586 25.9629 19.7887 26.0469 20 26.0469C20.2113 26.0469 20.414 25.9629 20.5635 25.8135C20.7129 25.664 20.7969 25.4613 20.7969 25.25V24.5469H21.125C21.8336 24.5469 22.5136 24.2657 23.0146 23.7646C23.5157 23.2636 23.7969 22.5836 23.7969 21.875L23.7842 21.6113C23.7235 20.9995 23.4532 20.4239 23.0146 19.9854C22.5136 19.4843 21.8336 19.2031 21.125 19.2031H18.875C18.5891 19.2031 18.3145 19.0899 18.1123 18.8877C17.9101 18.6855 17.7969 18.4109 17.7969 18.125C17.7969 17.8391 17.9101 17.5645 18.1123 17.3623C18.3145 17.1601 18.5891 17.0469 18.875 17.0469H22.25C22.4613 17.0469 22.664 16.9629 22.8135 16.8135C22.9629 16.664 23.0469 16.4613 23.0469 16.25C23.0469 16.0387 22.9629 15.836 22.8135 15.6865C22.664 15.5371 22.4613 15.4531 22.25 15.4531H20.7969V14.75C20.7969 14.5387 20.7129 14.336 20.5635 14.1865C20.414 14.0371 20.2113 13.9531 20 13.9531Z" fill="white" stroke="white" stroke-width="0.09375"/>
</svg>
