<svg width="59" height="50" viewBox="0 0 59 50" fill="none" xmlns="http://www.w3.org/2000/svg">
<g id="UserPlus">
<rect id="Rectangle 3467311" x="0.213867" width="48.9796" height="49" rx="10" fill="#3B4CBF"/>
<path id="Vector" d="M40 26.229C40 26.458 39.9052 26.6777 39.7363 26.8396C39.5675 27.0015 39.3386 27.0925 39.0998 27.0925H37.2994V28.8194C37.2994 29.0484 37.2046 29.268 37.0358 29.4299C36.8669 29.5918 36.638 29.6828 36.3992 29.6828C36.1605 29.6828 35.9315 29.5918 35.7627 29.4299C35.5939 29.268 35.499 29.0484 35.499 28.8194V27.0925H33.6986C33.4599 27.0925 33.2309 27.0015 33.0621 26.8396C32.8933 26.6777 32.7984 26.458 32.7984 26.229C32.7984 26 32.8933 25.7804 33.0621 25.6185C33.2309 25.4566 33.4599 25.3656 33.6986 25.3656H35.499V23.6387C35.499 23.4097 35.5939 23.1901 35.7627 23.0282C35.9315 22.8662 36.1605 22.7753 36.3992 22.7753C36.638 22.7753 36.8669 22.8662 37.0358 23.0282C37.2046 23.1901 37.2994 23.4097 37.2994 23.6387V25.3656H39.0998C39.3386 25.3656 39.5675 25.4566 39.7363 25.6185C39.9052 25.7804 40 26 40 26.229ZM27.3973 28.569C28.8084 27.7259 29.895 26.465 30.4924 24.9769C31.0899 23.4888 31.1659 21.8546 30.7088 20.3214C30.2517 18.7883 29.2865 17.4396 27.9592 16.4795C26.6318 15.5194 25.0145 15 23.352 15C21.6895 15 20.0723 15.5194 18.7449 16.4795C17.4176 17.4396 16.4523 18.7883 15.9953 20.3214C15.5382 21.8546 15.6141 23.4888 16.2116 24.9769C16.8091 26.465 17.8956 27.7259 19.3068 28.569C16.9832 29.2986 14.8925 30.6617 13.2113 32.5807C13.1013 32.7062 13.0308 32.8591 13.008 33.0217C12.9853 33.1842 13.0112 33.3496 13.0829 33.4984C13.1545 33.6473 13.2689 33.7736 13.4126 33.8624C13.5563 33.9512 13.7234 33.9989 13.8944 34H32.7984C32.97 34.0002 33.138 33.9533 33.2827 33.865C33.4274 33.7766 33.5428 33.6505 33.6153 33.5014C33.6877 33.3522 33.7143 33.1864 33.6918 33.0233C33.6693 32.8602 33.5986 32.7066 33.4882 32.5807C31.806 30.6617 29.7153 29.2986 27.3973 28.569Z" fill="white"/>
</g>
</svg>
