<svg width="53" height="50" viewBox="0 0 53 50" fill="none" xmlns="http://www.w3.org/2000/svg">
<g id="ClockCountdown">
<rect id="Rectangle 3467311" x="0.969727" width="49.9792" height="49" rx="10" fill="#3B4CBF"/>
<path id="Vector" d="M34.0885 21.6225C34.0885 21.3713 34.1645 21.1258 34.3069 20.917C34.4493 20.7081 34.6517 20.5454 34.8884 20.4492C35.1252 20.3531 35.3858 20.328 35.6371 20.377C35.8885 20.426 36.1194 20.5469 36.3006 20.7245C36.4819 20.9021 36.6053 21.1284 36.6553 21.3748C36.7053 21.6211 36.6796 21.8764 36.5815 22.1085C36.4835 22.3405 36.3174 22.5389 36.1043 22.6784C35.8912 22.818 35.6406 22.8924 35.3843 22.8924C35.0407 22.8924 34.7111 22.7586 34.468 22.5205C34.225 22.2823 34.0885 21.9593 34.0885 21.6225ZM32.7927 19.0826C33.049 19.0826 33.2995 19.0081 33.5126 18.8686C33.7257 18.7291 33.8918 18.5307 33.9899 18.2987C34.0879 18.0666 34.1136 17.8113 34.0636 17.5649C34.0136 17.3186 33.8902 17.0923 33.709 16.9147C33.5277 16.7371 33.2968 16.6162 33.0455 16.5672C32.7941 16.5182 32.5335 16.5433 32.2968 16.6394C32.06 16.7355 31.8576 16.8983 31.7152 17.1072C31.5728 17.316 31.4968 17.5615 31.4968 17.8127C31.4968 18.1495 31.6333 18.4725 31.8764 18.7107C32.1194 18.9488 32.449 19.0826 32.7927 19.0826ZM35.8876 25.009C35.6593 24.9906 35.4329 25.0617 35.2582 25.2067C35.0834 25.3518 34.9746 25.5589 34.9556 25.7826C34.801 27.5525 34.1338 29.2424 33.0325 30.6533C31.9311 32.0642 30.4415 33.1375 28.7389 33.7469C27.0362 34.3563 25.1914 34.4764 23.4215 34.0932C21.6515 33.7099 20.0301 32.8392 18.7479 31.5835C17.4658 30.3278 16.5763 28.7393 16.1841 27.005C15.7919 25.2706 15.9133 23.4626 16.5341 21.7936C17.1548 20.1246 18.2491 18.6641 19.6881 17.5839C21.1271 16.5037 22.851 15.8488 24.6569 15.6961C24.7704 15.687 24.8809 15.656 24.9821 15.605C25.0833 15.5539 25.1733 15.4839 25.2469 15.3988C25.3205 15.3137 25.3763 15.2152 25.4111 15.109C25.4458 15.0027 25.4589 14.8908 25.4496 14.7797C25.4402 14.6685 25.4086 14.5602 25.3565 14.461C25.3045 14.3618 25.233 14.2736 25.1461 14.2015C25.0593 14.1293 24.9588 14.0747 24.8504 14.0406C24.742 14.0065 24.6278 13.9937 24.5144 14.0029C22.3806 14.1827 20.3436 14.9561 18.6431 16.232C16.9426 17.5079 15.6492 19.2332 14.9153 21.2049C14.1813 23.1767 14.0372 25.3129 14.5 27.3621C14.9628 29.4114 16.0132 31.2885 17.5275 32.7727C19.0419 34.2568 20.9573 35.2862 23.0484 35.7397C25.1395 36.1932 27.3192 36.052 29.3312 35.3327C31.3432 34.6134 33.1037 33.346 34.4056 31.6794C35.7075 30.0129 36.4966 28.0166 36.6802 25.9255C36.6899 25.8142 36.6771 25.7022 36.6425 25.5958C36.6079 25.4894 36.5522 25.3908 36.4785 25.3056C36.4048 25.2204 36.3147 25.1503 36.2133 25.0994C36.1118 25.0485 36.0012 25.0178 35.8876 25.009ZM25.4496 17.3894C26.9873 17.3894 28.4905 17.8363 29.7691 18.6735C31.0477 19.5108 32.0443 20.7008 32.6328 22.0931C33.2212 23.4854 33.3752 25.0175 33.0752 26.4955C32.7752 27.9736 32.0347 29.3313 30.9473 30.3969C29.86 31.4625 28.4746 32.1882 26.9664 32.4822C25.4582 32.7762 23.8949 32.6253 22.4742 32.0486C21.0535 31.4719 19.8392 30.4953 18.9848 29.2422C18.1305 27.9892 17.6745 26.516 17.6745 25.009C17.6768 22.9888 18.4967 21.0521 19.9543 19.6236C21.4119 18.1951 23.3882 17.3916 25.4496 17.3894ZM24.5857 25.009C24.5857 25.2335 24.6767 25.4489 24.8387 25.6077C25.0007 25.7664 25.2204 25.8556 25.4496 25.8556H30.6329C30.862 25.8556 31.0818 25.7664 31.2438 25.6077C31.4058 25.4489 31.4968 25.2335 31.4968 25.009C31.4968 24.7845 31.4058 24.5691 31.2438 24.4104C31.0818 24.2516 30.862 24.1624 30.6329 24.1624H26.3135V19.9293C26.3135 19.7047 26.2224 19.4894 26.0604 19.3306C25.8984 19.1718 25.6787 19.0826 25.4496 19.0826C25.2204 19.0826 25.0007 19.1718 24.8387 19.3306C24.6767 19.4894 24.5857 19.7047 24.5857 19.9293V25.009ZM28.9051 16.5428C29.1614 16.5428 29.412 16.4683 29.6251 16.3287C29.8382 16.1892 30.0043 15.9908 30.1023 15.7588C30.2004 15.5267 30.2261 15.2714 30.1761 15.0251C30.1261 14.7787 30.0027 14.5524 29.8214 14.3748C29.6402 14.1972 29.4093 14.0763 29.1579 14.0273C28.9066 13.9783 28.646 14.0034 28.4092 14.0995C28.1725 14.1957 27.9701 14.3584 27.8277 14.5673C27.6853 14.7761 27.6093 15.0216 27.6093 15.2728C27.6093 15.6096 27.7458 15.9326 27.9888 16.1708C28.2319 16.409 28.5615 16.5428 28.9051 16.5428Z" fill="white"/>
</g>
</svg>
