<svg width="40" height="40" viewBox="0 0 40 40" fill="none" xmlns="http://www.w3.org/2000/svg">
<rect width="40" height="40" rx="8" fill="white" fill-opacity="0.3"/>
<path d="M18.1299 11.043C19.5046 11.043 20.8418 11.4907 21.9395 12.3184C23.0371 13.1461 23.8358 14.3091 24.2139 15.6309C24.5919 16.9528 24.5293 18.3624 24.0352 19.6455C23.5411 20.9284 22.6424 22.0153 21.4756 22.7422L21.3896 22.7959L21.4854 22.8271C23.4079 23.458 25.1429 24.6364 26.5391 26.2969C26.6252 26.3993 26.6806 26.5245 26.6982 26.6572C26.7158 26.79 26.6943 26.9254 26.6377 27.0469C26.5811 27.1683 26.4909 27.2709 26.3779 27.3428C26.2649 27.4146 26.1339 27.4533 26 27.4531H10.25C10.1166 27.4522 9.98618 27.4131 9.87402 27.3408C9.76186 27.2685 9.67217 27.1661 9.61621 27.0449C9.56025 26.9237 9.53985 26.7886 9.55762 26.6562C9.57539 26.5239 9.63083 26.3991 9.7168 26.2969C11.112 24.6365 12.8472 23.458 14.7744 22.8271L14.8691 22.7959L14.7842 22.7422C13.6172 22.0153 12.7187 20.9284 12.2246 19.6455C11.7305 18.3624 11.6679 16.9528 12.0459 15.6309C12.424 14.3091 13.2217 13.1461 14.3193 12.3184C15.4171 11.4905 16.755 11.043 18.1299 11.043ZM29 17.7969C29.1865 17.7969 29.3652 17.8711 29.4971 18.0029C29.6289 18.1348 29.7031 18.3135 29.7031 18.5V20.0469H31.25C31.4365 20.0469 31.6152 20.1211 31.7471 20.2529C31.8789 20.3848 31.9531 20.5635 31.9531 20.75C31.9531 20.9364 31.8789 21.1152 31.7471 21.2471C31.6152 21.3789 31.4364 21.4531 31.25 21.4531H29.7031V23C29.7031 23.1864 29.6289 23.3652 29.4971 23.4971C29.3652 23.6289 29.1864 23.7031 29 23.7031C28.8136 23.7031 28.6348 23.6289 28.5029 23.4971C28.3711 23.3652 28.2969 23.1864 28.2969 23V21.4531H26.75C26.5636 21.4531 26.3848 21.3789 26.2529 21.2471C26.1211 21.1152 26.0469 20.9364 26.0469 20.75C26.0469 20.5636 26.1211 20.3848 26.2529 20.2529C26.3848 20.1211 26.5635 20.0469 26.75 20.0469H28.2969V18.5C28.2969 18.3136 28.3711 18.1348 28.5029 18.0029C28.6348 17.8711 28.8135 17.7969 29 17.7969Z" fill="white" stroke="white" stroke-width="0.09375"/>
</svg>
