<svg width="51" height="50" viewBox="0 0 51 50" fill="none" xmlns="http://www.w3.org/2000/svg">
<g id="CurrencyCircleDollar">
<rect id="Rectangle 3467311" x="0.96875" width="49.9792" height="49" rx="10" fill="#3B4CBF"/>
<path id="Vector" d="M26 13C23.6266 13 21.3066 13.7038 19.3332 15.0224C17.3598 16.3409 15.8217 18.2151 14.9135 20.4078C14.0052 22.6005 13.7676 25.0133 14.2306 27.3411C14.6936 29.6689 15.8365 31.807 17.5147 33.4853C19.193 35.1635 21.3311 36.3064 23.6589 36.7694C25.9867 37.2324 28.3995 36.9948 30.5922 36.0865C32.7849 35.1783 34.6591 33.6402 35.9776 31.6668C37.2962 29.6934 38 27.3734 38 25C37.9966 21.8184 36.7313 18.7681 34.4816 16.5184C32.2319 14.2687 29.1816 13.0034 26 13ZM27.3846 30.5385H26.9231V31.4615C26.9231 31.7064 26.8258 31.9411 26.6527 32.1143C26.4796 32.2874 26.2448 32.3846 26 32.3846C25.7552 32.3846 25.5204 32.2874 25.3473 32.1143C25.1742 31.9411 25.0769 31.7064 25.0769 31.4615V30.5385H23.2308C22.986 30.5385 22.7512 30.4412 22.5781 30.2681C22.4049 30.095 22.3077 29.8602 22.3077 29.6154C22.3077 29.3706 22.4049 29.1358 22.5781 28.9627C22.7512 28.7896 22.986 28.6923 23.2308 28.6923H27.3846C27.7518 28.6923 28.104 28.5464 28.3637 28.2868C28.6234 28.0271 28.7692 27.6749 28.7692 27.3077C28.7692 26.9405 28.6234 26.5883 28.3637 26.3286C28.104 26.069 27.7518 25.9231 27.3846 25.9231H24.6154C23.7585 25.9231 22.9368 25.5827 22.3309 24.9768C21.725 24.3709 21.3846 23.5492 21.3846 22.6923C21.3846 21.8355 21.725 21.0137 22.3309 20.4078C22.9368 19.8019 23.7585 19.4615 24.6154 19.4615H25.0769V18.5385C25.0769 18.2936 25.1742 18.0589 25.3473 17.8857C25.5204 17.7126 25.7552 17.6154 26 17.6154C26.2448 17.6154 26.4796 17.7126 26.6527 17.8857C26.8258 18.0589 26.9231 18.2936 26.9231 18.5385V19.4615H28.7692C29.014 19.4615 29.2488 19.5588 29.4219 19.7319C29.5951 19.905 29.6923 20.1398 29.6923 20.3846C29.6923 20.6294 29.5951 20.8642 29.4219 21.0373C29.2488 21.2104 29.014 21.3077 28.7692 21.3077H24.6154C24.2482 21.3077 23.896 21.4536 23.6363 21.7132C23.3767 21.9729 23.2308 22.3251 23.2308 22.6923C23.2308 23.0595 23.3767 23.4117 23.6363 23.6714C23.896 23.931 24.2482 24.0769 24.6154 24.0769H27.3846C28.2415 24.0769 29.0632 24.4173 29.6691 25.0232C30.275 25.6291 30.6154 26.4508 30.6154 27.3077C30.6154 28.1645 30.275 28.9863 29.6691 29.5922C29.0632 30.1981 28.2415 30.5385 27.3846 30.5385Z" fill="white"/>
</g>
</svg>
