<svg width="19" height="20" viewBox="0 0 19 20" fill="none" xmlns="http://www.w3.org/2000/svg">
<path d="M17.0454 6.26416L7.54541 15.7642C7.49026 15.8194 7.42478 15.8632 7.3527 15.893C7.28062 15.9229 7.20336 15.9383 7.12533 15.9383C7.0473 15.9383 6.97004 15.9229 6.89796 15.893C6.82588 15.8632 6.7604 15.8194 6.70525 15.7642L2.549 11.6079C2.43759 11.4965 2.375 11.3454 2.375 11.1878C2.375 11.0303 2.43759 10.8792 2.549 10.7678C2.66041 10.6563 2.81152 10.5937 2.96908 10.5937C3.12664 10.5937 3.27775 10.6563 3.38916 10.7678L7.12533 14.5047L16.2053 5.424C16.3167 5.31259 16.4678 5.25 16.6253 5.25C16.7829 5.25 16.934 5.31259 17.0454 5.424C17.1568 5.53541 17.2194 5.68652 17.2194 5.84408C17.2194 6.00164 17.1568 6.15275 17.0454 6.26416Z" fill="#343330"/>
</svg>
