<svg width="12" height="12" viewBox="0 0 12 12" fill="none" xmlns="http://www.w3.org/2000/svg">
<path d="M9.44911 2.55141C8.76717 1.87004 7.89852 1.40615 6.95298 1.21837C6.00743 1.0306 5.02744 1.12738 4.13689 1.49648C3.24634 1.86558 2.48521 2.49042 1.94972 3.29202C1.41423 4.09362 1.12842 5.03599 1.12842 6C1.12842 6.96401 1.41423 7.90638 1.94972 8.70798C2.48521 9.50958 3.24634 10.1344 4.13689 10.5035C5.02744 10.8726 6.00743 10.9694 6.95298 10.7816C7.89852 10.5939 8.76717 10.13 9.44911 9.4486C10.3623 8.5332 10.8751 7.29299 10.8751 6C10.8751 4.70701 10.3623 3.4668 9.44911 2.55141ZM7.7663 8.14125C7.73147 8.17612 7.69012 8.20378 7.64459 8.22265C7.59907 8.24152 7.55027 8.25123 7.50099 8.25123C7.45171 8.25123 7.40291 8.24152 7.35739 8.22265C7.31186 8.20378 7.2705 8.17612 7.23568 8.14125L6.00005 6.90563L4.7649 8.14125C4.69453 8.21162 4.59909 8.25115 4.49958 8.25115C4.40007 8.25115 4.30464 8.21162 4.23427 8.14125C4.16391 8.07089 4.12438 7.97545 4.12437 7.87594C4.12437 7.77643 4.16391 7.68099 4.23427 7.61063L5.73427 6.11063C5.7691 6.07576 5.81046 6.0481 5.85598 6.02923C5.9015 6.01036 5.9503 6.00064 5.99958 6.00064C6.04886 6.00064 6.09766 6.01036 6.14319 6.02923C6.18871 6.0481 6.23007 6.07576 6.2649 6.11063L7.7649 7.61063C7.79985 7.64536 7.82762 7.68665 7.84662 7.73212C7.86561 7.7776 7.87545 7.82637 7.87558 7.87565C7.87571 7.92493 7.86613 7.97375 7.84738 8.01933C7.82863 8.0649 7.80108 8.10633 7.7663 8.14125ZM7.7663 5.51625C7.73147 5.55112 7.69012 5.57878 7.64459 5.59765C7.59907 5.61652 7.55027 5.62623 7.50099 5.62623C7.45171 5.62623 7.40291 5.61652 7.35739 5.59765C7.31186 5.57878 7.2705 5.55112 7.23568 5.51625L6.00005 4.27922L4.7649 5.51485C4.69453 5.58521 4.59909 5.62474 4.49958 5.62474C4.40007 5.62474 4.30464 5.58521 4.23427 5.51485C4.16391 5.44448 4.12438 5.34904 4.12437 5.24953C4.12438 5.15002 4.16391 5.05459 4.23427 4.98422L5.73427 3.48422C5.7691 3.44935 5.81046 3.42169 5.85598 3.40282C5.9015 3.38395 5.9503 3.37424 5.99958 3.37424C6.04886 3.37424 6.09766 3.38395 6.14319 3.40282C6.18871 3.42169 6.23007 3.44935 6.2649 3.48422L7.7649 4.98422C7.79985 5.01896 7.82762 5.06024 7.84662 5.10571C7.86561 5.15119 7.87545 5.19996 7.87558 5.24924C7.87571 5.29852 7.86613 5.34735 7.84738 5.39292C7.82863 5.43849 7.80108 5.47993 7.7663 5.51485V5.51625Z" fill="#34C759"/>
</svg>
