<svg width="20" height="20" viewBox="0 0 20 20" fill="none" xmlns="http://www.w3.org/2000/svg">
  <path fill-rule="evenodd" clip-rule="evenodd" d="M20 2.5C20 1.12 18.88 0 17.5 0H2.5C1.12 0 0 1.12 0 2.5V17.5C0 18.88 1.12 20 2.5 20H10.625V12.25H8.5V9.5H10.625V7.75C10.625 5.84 11.93 4.625 13.75 4.625C14.5934 4.625 15.4719 4.75 15.4719 4.75V6.8125H14.3475C13.2381 6.8125 12.875 7.47 12.875 8.15625V9.5H15.375L15 12.25H12.875V20H17.5C18.88 20 20 18.88 20 17.5V2.5Z" fill="#1877F2"/>
  <path d="M15 12.25L15.375 9.5H12.875V8.15625C12.875 7.47 13.2381 6.8125 14.3475 6.8125H15.4719V4.75C15.4719 4.75 14.5934 4.625 13.75 4.625C11.93 4.625 10.625 5.84 10.625 7.75V9.5H8.5V12.25H10.625V20H12.875V12.25H15Z" fill="white"/>
</svg>
