<svg width="20" height="20" viewBox="0 0 20 20" fill="none" xmlns="http://www.w3.org/2000/svg">
<g id="Icons Line" clip-path="url(#clip0_584_23139)">
<path id="Vector" fill-rule="evenodd" clip-rule="evenodd" d="M10 0C4.47768 0 0 4.58953 0 10.255C0 14.7865 2.86607 18.626 6.83929 19.9832C7.33929 20.077 7.52232 19.76 7.52232 19.4876C7.52232 19.2421 7.51339 18.5992 7.50893 17.742C4.72768 18.3626 4.13839 16.3669 4.13839 16.3669C3.68304 15.1838 3.02679 14.8669 3.02679 14.8669C2.12054 14.2284 3.09375 14.2418 3.09375 14.2418C4.09821 14.3133 4.625 15.2999 4.625 15.2999C5.51786 16.867 6.96429 16.416 7.53571 16.1526C7.625 15.4919 7.88393 15.0365 8.16964 14.782C5.95089 14.5231 3.61607 13.6436 3.61607 9.7148C3.61607 8.5942 4.00446 7.67898 4.64286 6.96465C4.54018 6.70571 4.19643 5.66101 4.74107 4.25022C4.74107 4.25022 5.58036 3.97342 7.49107 5.29939C8.29018 5.0717 9.14286 4.96008 9.99554 4.95562C10.8438 4.96008 11.7009 5.0717 12.5 5.29939C14.4107 3.97342 15.2455 4.25022 15.2455 4.25022C15.7902 5.66101 15.4464 6.70571 15.3438 6.96465C15.9821 7.68344 16.3705 8.59867 16.3705 9.7148C16.3705 13.6525 14.0312 14.5186 11.8036 14.7731C12.1607 15.0901 12.4821 15.7151 12.4821 16.6705C12.4821 18.0411 12.4688 19.1483 12.4688 19.4832C12.4688 19.7555 12.6473 20.077 13.1563 19.9743C17.1384 18.6215 20 14.782 20 10.255C20 4.58953 15.5223 0 10 0Z" fill="black"/>
</g>
<defs>
<clipPath id="clip0_584_23139">
<rect width="20" height="20" fill="white"/>
</clipPath>
</defs>
</svg>
