<svg width="20" height="20" viewBox="0 0 533.5 544.3" xmlns="http://www.w3.org/2000/svg">
  <path d="M533.5 278.4c0-17.7-1.6-35.1-4.7-51.9H272v98.4h146.9c-6.4 34.7-25.1 64.1-53.5 83.7v69.5h86.4c50.6-46.6 81.7-115.3 81.7-199.7z" fill="#4285F4"/>
  <path d="M272 544.3c72.6 0 133.6-24.1 178.1-65.4l-86.4-69.5c-24.1 16.2-55 25.8-91.7 25.8-70.5 0-130.3-47.6-151.6-111.6H32.6v70.2C77.1 475.1 167.2 544.3 272 544.3z" fill="#34A853"/>
  <path d="M120.4 323.6c-10.2-30.5-10.2-63.3 0-93.8V159.6H32.6c-36.5 72.6-36.5 158.4 0 231l87.8-67z" fill="#FBBC05"/>
  <path d="M272 107.7c39.5-.6 77.4 13.9 106.3 40.2l79.4-79.4C423.3 24.1 362.3 0 272 0 167.2 0 77.1 69.2 32.6 159.6l87.8 70.2C141.7 155.3 201.5 107.7 272 107.7z" fill="#EA4335"/>
</svg>
