<svg width="20" height="20" viewBox="0 0 448 512" xmlns="http://www.w3.org/2000/svg">
  <path fill="#E1306C" d="M224.1 141c-63.6 0-114.9 51.3-114.9 114.9S160.5 370.8 224.1 370.8 339 319.5 339 255.9 287.7 141 224.1 141zm0 186.6c-39.6 0-71.7-32.1-71.7-71.7s32.1-71.7 71.7-71.7 71.7 32.1 71.7 71.7-32.1 71.7-71.7 71.7zm146.4-194.3c0 14.9-12 26.9-26.9 26.9s-26.9-12-26.9-26.9 12-26.9 26.9-26.9 26.9 12 26.9 26.9zm76.1 27.2c-1.7-35.7-9.9-67.3-36.3-93.7S364.7 0 329 1.7c-35.7-1.7-142.3-1.7-178 0C115.3 0 83.7 8.2 57.3 34.6 30.9 61 22.7 92.6 21 128.3c-1.7 35.7-1.7 142.3 0 178 1.7 35.7 9.9 67.3 36.3 93.7s58 34.6 93.7 36.3c35.7 1.7 142.3 1.7 178 0 35.7-1.7 67.3-9.9 93.7-36.3s34.6-58 36.3-93.7c1.7-35.7 1.7-142.3 0-178zM398.8 388c-7.8 19.5-22.8 34.5-42.3 42.3-29.3 11.6-98.8 9-132.4 9s-103.1 2.6-132.4-9c-19.5-7.8-34.5-22.8-42.3-42.3-11.6-29.3-9-98.8-9-132.4s-2.6-103.1 9-132.4c7.8-19.5 22.8-34.5 42.3-42.3 29.3-11.6 98.8-9 132.4-9s103.1-2.6 132.4 9c19.5 7.8 34.5 22.8 42.3 42.3 11.6 29.3 9 98.8 9 132.4s2.6 103.1-9 132.4z"/>
</svg>
