<svg width="20" height="20" viewBox="0 0 20 20" fill="none" xmlns="http://www.w3.org/2000/svg">
<g id="g5891">
<path id="background" fill-rule="evenodd" clip-rule="evenodd" d="M20 2.5C20 1.1202 18.8798 0 17.5 0H2.5C1.1202 0 0 1.1202 0 2.5V17.5C0 18.8798 1.1202 20 2.5 20H17.5C18.8798 20 20 18.8798 20 17.5V2.5Z" fill="#2867B2"/>
<g id="shapes">
<path id="rect11" d="M5.73489 6.97925H2.38489V17.0559H5.73489V6.97925Z" fill="white"/>
<path id="path13-0" d="M4.0825 2.12036C2.93637 2.12036 2.1875 2.87388 2.1875 3.86149C2.1875 4.82837 2.91359 5.60267 4.03816 5.60267H4.0598C5.22789 5.60267 5.95496 4.82837 5.95496 3.86149C5.93328 2.87388 5.22797 2.12036 4.0825 2.12036Z" fill="white"/>
<path id="path15" d="M13.9562 6.74231C12.1792 6.74231 11.3833 7.71954 10.9376 8.40594V6.97926H7.58844C7.63285 7.92446 7.58844 17.0559 7.58844 17.0559H10.9375V11.4284C10.9375 11.1272 10.9592 10.826 11.048 10.6107C11.2897 10.0092 11.8411 9.38606 12.7664 9.38606C13.9779 9.38606 14.4632 10.3104 14.4632 11.6645V17.0559H17.8124V11.2773C17.8124 8.18215 16.1599 6.74231 13.9562 6.74231Z" fill="white"/>
</g>
</g>
</svg>
