<svg width="20" height="20" viewBox="0 0 496 512" xmlns="http://www.w3.org/2000/svg">
  <path fill="#E60023" d="M248 8C111 8 0 119.1 0 256c0 110.2 71.3 203.9 170.5 237.7-2.4-20.2-4.6-51.2.5-73.3 5.1-21.7 33.1-137.6 33.1-137.6s-8.5-17-8.5-42.2c0-39.5 22.9-69.1 51.5-69.1 24.3 0 36.1 18.2 36.1 40 0 24.4-15.6 60.9-23.7 94.8-6.8 28.6 14.3 51.9 42.4 51.9 50.8 0 85-65.3 85-142.4 0-58.8-39.7-102.9-111.8-102.9-81.5 0-132.4 61-132.4 129.3 0 23.5 6.9 40 17.7 52.7 4.9 5.8 5.6 8.2 3.8 14.9-1.3 5-4.2 17-5.5 21.7-1.8 6.8-7.3 9.2-13.4 6.7-37.5-15.3-55-56.4-55-102.6 0-76.3 64.3-167.8 191.8-167.8 102.5 0 170 74.1 170 153.8 0 105.2-58.5 183.7-144.8 183.7-28.9 0-56.1-15.6-65.4-33.2 0 0-15.6 61.9-18.8 74.6-5.7 22.4-21.1 50.2-31.3 67.3 23.4 7.2 48.1 11.2 73.7 11.2 137 0 248-111 248-248S385 8 248 8z"/>
</svg>
