<svg width="20" height="20" viewBox="0 0 512 512" xmlns="http://www.w3.org/2000/svg">
  <path fill="#B92B27" d="M256 8C119 8 8 119 8 256c0 120.3 85.4 220.5 198 244-1.3-10.2-2.5-25.7.5-36.7 2.8-10.6 18.3-75.6 18.3-75.6s-4.5-8.8-4.5-21.8c0-20.4 11.8-35.6 26.5-35.6 12.5 0 18.5 9.4 18.5 20.7 0 12.6-8 31.4-12.1 48.9-3.4 14.2 7.2 25.7 21.4 25.7 25.7 0 42.9-33.4 42.9-73 0-30.1-20.3-52.5-57.3-52.5-41.8 0-68.6 31.2-68.6 66.1 0 12 3.5 20.5 8.9 27.1 2.5 3 2.8 4.2 1.9 7.7-.6 2.6-2 9-2.6 11.5-.8 3.1-3.2 4.1-5.8 3-15.8-6.5-23.4-24.1-23.4-43.9 0-32.4 27.2-71.2 81.1-71.2 43.4 0 72.1 31.4 72.1 65.1 0 44.7-24.9 78-61.7 78-12.3 0-23.9-6.6-27.9-14.3 0 0-6.6 26.2-8.2 31.3-2.9 10.5-9.3 21.1-14.4 28.3 13.3 3.9 27.4 6.1 42 6.1 137 0 248-111 248-248S393 8 256 8z"/>
</svg>
