<svg width="20" height="20" viewBox="0 0 512 512" xmlns="http://www.w3.org/2000/svg">
  <path fill="#FF5500" d="M437 240c-13.3 0-24 10.7-24 24v24h-16v-24c0-13.3-10.7-24-24-24s-24 10.7-24 24v24h-16v-24c0-13.3-10.7-24-24-24s-24 10.7-24 24v24h-16v-24c0-13.3-10.7-24-24-24s-24 10.7-24 24v24h-16v-24c0-13.3-10.7-24-24-24s-24 10.7-24 24v24h-16v-24c0-13.3-10.7-24-24-24s-24 10.7-24 24v24h-16v-24c0-13.3-10.7-24-24-24s-24 10.7-24 24v24h-16v-24c0-13.3-10.7-24-24-24s-24 10.7-24 24v24h-16v-24c0-13.3-10.7-24-24-24s-24 10.7-24 24v24h-16v-24c0-13.3-10.7-24-24-24s-24 10.7-24 24v24h-16v-24c0-13.3-10.7-24-24-24s-24 10.7-24 24v24h-16v-24c0-13.3-10.7-24-24-24s-24 10.7-24 24v24h-16v-24c0-13.3-10.7-24-24-24s-24 10.7-24 24v24h-16v-24c0-13.3-10.7-24-24-24s-24 10.7-24 24v24h-16v-24c0-13.3-10.7-24-24-24s-24 10.7-24 24v24h-16v-24c0-13.3-10.7-24-24-24s-24 10.7-24 24v24h-16v-24c0-13.3-10.7-24-24-24s-24 10.7-24 24v24h-16v-24c0-13.3-10.7-24-24-24s-24 10.7-24 24v24h-16v-24c0-13.3-10.7-24-24-24s-24 10.7-24 24v24h-16v-24c0-13.3-10.7-24-24-24s-24 10.7-24 24v24h-16v-24c0-13.3-10.7-24-24-24s-24 10.7-24 24v24h-16v-24c0-13.3-10.7-24-24-24s-24 10.7-24 24v24h-16v-24c0-13.3-10.7-24-24-24s-24 10.7-24 24v24h-16v-24c0-13.3-10.7-24-24-24s-24 10.7-24 24v24h-16v-24c0-13.3-10.7-24-24-24s-24 10.7-24 24v24h-16v-24c0-13.3-10.7-24-24-24s-24 10.7-24 24v24h-16v-24c0-13.3-10.7-24-24-24s-24 10.7-24 24v24h-16v-24c0-13.3-10.7-24-24-24s-24 10.7-24 24v24h-16v-24c0-13.3-10.7-24-24-24s-24 10.7-24 24v24h-16v-24c0-13.3-10.7-24-24-24s-24 10.7-24 24v24h-16v-24c0-13.3-10.7-24-24-24s-24 10.7-24 24v24h-16v-24c0-13.3-10.7-24-24-24s-24 10.7-24 24v24h-16v-24c0-13.3-10.7-24-24-24s-24 10.7-24 24v24h-16v-24c0-13.3-10.7-24-24-24z"/>
</svg>
