<svg width="20" height="20" viewBox="0 0 20 20" fill="none" xmlns="http://www.w3.org/2000/svg">
  <path fill-rule="evenodd" clip-rule="evenodd" d="M20 2.5C20 1.12 18.88 0 17.5 0H2.5C1.12 0 0 1.12 0 2.5V17.5C0 18.88 1.12 20 2.5 20H17.5C18.88 20 20 18.88 20 17.5V2.5Z" fill="#1DA1F2"/>
  <path d="M15.875 7.24584C15.8833 7.36251 15.8833 7.47917 15.8833 7.59584C15.8833 11.0875 13.1667 15.2458 8.29167 15.2458C6.675 15.2458 5.175 14.7708 3.91667 13.9583C4.14167 13.9792 4.35833 13.9875 4.59167 13.9875C5.94167 13.9875 7.175 13.5208 8.10833 12.7292C6.84167 12.7083 5.8 11.8917 5.44167 10.7333C5.625 10.7583 5.80833 10.775 6 10.775C6.25833 10.775 6.50833 10.7417 6.74167 10.6833C5.425 10.4083 4.44167 9.225 4.44167 7.81251V7.78334C4.81667 7.99167 5.25833 8.11667 5.725 8.13334C4.99167 7.64167 4.51667 6.8 4.51667 5.85417C4.51667 5.33751 4.65833 4.86251 4.9 4.44167C6.30833 6.18334 8.45 7.32501 10.8083 7.46251C10.7667 7.25417 10.7417 7.03751 10.7417 6.82084C10.7417 5.42917 11.875 4.29167 13.2667 4.29167C14.0167 4.29167 14.6917 4.60834 15.1583 5.10834C15.75 5.00834 16.3083 4.80834 16.8083 4.52501C16.625 5.13334 16.2083 5.65417 15.6667 5.97917C16.1917 5.91251 16.6917 5.775 17.1583 5.57917C16.8083 6.10834 16.375 6.58334 15.875 7.00001V7.24584Z" fill="white"/>
</svg>
