<svg width="20" height="20" viewBox="0 0 512 512" xmlns="http://www.w3.org/2000/svg">
  <path fill="#1ab7ea" d="M476.2 190.8c-3.2 70.6-52.3 167.4-147.3 280.3-98.2 117.5-180.9 176.3-248.1 176.3-41.9 0-77.3-38.6-106.3-115.8-19.3-70.6-38.6-141.2-58-211.8-21.2-84.4-44.1-126.6-68.8-126.6-5.5 0-24.7 11.5-57.7 34.4l-34.4-44.1c36.3-32.4 72.6-64.8 108.9-97.2 49.1-42.4 85.4-64.8 108.9-66.3 57.7-5.5 93.9 34.4 108.9 119.8 14.9 84.4 25.7 137.4 32.4 158.6 17.1 75.9 35.5 113.7 55.1 113.7 15.4 0 38.6-24.7 69.5-74.1 30.9-49.4 47.6-87.2 50.9-113.7 4.3-40.8-11.5-61.4-47.6-61.4-17.1 0-34.4 3.2-50.9 9.6 33.1-108.9 96.1-161.9 189.1-158.6 68.8 2.1 101.2 46.2 97.9 131.6z"/>
</svg>
