<svg width="20" height="20" viewBox="0 0 576 512" xmlns="http://www.w3.org/2000/svg">
  <path fill="#FF0000" d="M549.655 124.083c-6.281-23.65-24.812-42.181-48.462-48.462C456.823 64 288 64 288 64s-168.823 0-213.193 11.621c-23.65 6.281-42.181 24.812-48.462 48.462C16.724 168.453 16.724 256 16.724 256s0 87.547 9.621 131.917c6.281 23.65 24.812 42.181 48.462 48.462C119.177 448 288 448 288 448s168.823 0 213.193-11.621c23.65-6.281 42.181-24.812 48.462-48.462C559.276 343.547 559.276 256 559.276 256s0-87.547-9.621-131.917zM232 336V176l142 80-142 80z"/>
</svg>
