<svg width="61" height="60" viewBox="0 0 61 60" fill="none" xmlns="http://www.w3.org/2000/svg">
<g id="Icons">
<path id="Vector" d="M30.6497 15V45M23.0622 37.9545L25.285 39.6025C28.248 41.7992 33.052 41.7992 36.015 39.6025C38.978 37.4058 38.978 33.8442 36.015 31.6475C34.5333 30.5491 32.5913 29.9999 30.6494 30C28.816 30.0001 26.9829 29.451 25.584 28.3525C22.7865 26.1558 22.7865 22.5943 25.584 20.3976C28.3815 18.2009 32.9172 18.2009 35.7147 20.3976L36.764 21.2216M53.4122 30C53.4122 42.4264 43.2211 52.5 30.6497 52.5C18.0783 52.5 7.88721 42.4264 7.88721 30C7.88721 17.5736 18.0783 7.5 30.6497 7.5C43.2211 7.5 53.4122 17.5736 53.4122 30Z" stroke="#323130" stroke-width="1.5" stroke-linecap="round" stroke-linejoin="round"/>
</g>
</svg>
