<svg width="62" height="60" viewBox="0 0 62 60" fill="none" xmlns="http://www.w3.org/2000/svg">
<g id="Icons">
<path id="Vector" d="M46.3246 46.7979C46.9505 46.8489 47.5837 46.875 48.223 46.875C50.8744 46.875 53.42 46.4269 55.7864 45.6031C55.8024 45.4042 55.8105 45.203 55.8105 45C55.8105 40.8579 52.4135 37.5 48.223 37.5C46.6357 37.5 45.1622 37.9818 43.944 38.8056M46.3246 46.7979C46.3247 46.8236 46.3247 46.8493 46.3247 46.875C46.3247 47.4375 46.2934 47.9927 46.2324 48.5391C41.7892 51.0591 36.6397 52.5 31.1497 52.5C25.6597 52.5 20.5102 51.0591 16.067 48.5391C16.006 47.9927 15.9747 47.4375 15.9747 46.875C15.9747 46.8494 15.9748 46.8237 15.9749 46.7981M46.3246 46.7979C46.3096 43.8565 45.4381 41.1153 43.944 38.8056M43.944 38.8056C41.2482 34.638 36.5254 31.875 31.1497 31.875C25.7747 31.875 21.0524 34.6373 18.3564 38.804M18.3564 38.804C17.1387 37.9812 15.6661 37.5 14.0797 37.5C9.88923 37.5 6.49219 40.8579 6.49219 45C6.49219 45.203 6.50035 45.4042 6.51637 45.6031C8.88274 46.4269 11.4283 46.875 14.0797 46.875C14.7179 46.875 15.35 46.849 15.9749 46.7981M18.3564 38.804C16.8617 41.1142 15.9898 43.856 15.9749 46.7981M38.7372 16.875C38.7372 21.0171 35.3402 24.375 31.1497 24.375C26.9592 24.375 23.5622 21.0171 23.5622 16.875C23.5622 12.7329 26.9592 9.375 31.1497 9.375C35.3402 9.375 38.7372 12.7329 38.7372 16.875ZM53.9122 24.375C53.9122 27.4816 51.3644 30 48.2216 30C45.0787 30 42.531 27.4816 42.531 24.375C42.531 21.2684 45.0787 18.75 48.2216 18.75C51.3644 18.75 53.9122 21.2684 53.9122 24.375ZM19.7685 24.375C19.7685 27.4816 17.2207 30 14.0778 30C10.935 30 8.38721 27.4816 8.38721 24.375C8.38721 21.2684 10.935 18.75 14.0778 18.75C17.2207 18.75 19.7685 21.2684 19.7685 24.375Z" stroke="#323130" stroke-width="1.5" stroke-linecap="round" stroke-linejoin="round"/>
</g>
</svg>
