<svg width="20" height="20" viewBox="0 0 20 20" fill="none" xmlns="http://www.w3.org/2000/svg">
<path d="M10 5.93749C9.19652 5.93749 8.41108 6.17575 7.743 6.62215C7.07493 7.06854 6.55423 7.70302 6.24675 8.44534C5.93926 9.18767 5.85881 10.0045 6.01557 10.7925C6.17232 11.5806 6.55923 12.3045 7.12738 12.8726C7.69553 13.4408 8.4194 13.8277 9.20745 13.9844C9.9955 14.1412 10.8123 14.0607 11.5547 13.7533C12.297 13.4458 12.9315 12.9251 13.3779 12.257C13.8242 11.5889 14.0625 10.8035 14.0625 9.99999C14.0613 8.92293 13.6329 7.89034 12.8713 7.12874C12.1097 6.36714 11.0771 5.93873 10 5.93749ZM10 12.1875C9.56736 12.1875 9.14443 12.0592 8.7847 11.8188C8.42496 11.5785 8.14459 11.2368 7.97902 10.8371C7.81345 10.4374 7.77013 9.99757 7.85454 9.57323C7.93894 9.1489 8.14728 8.75912 8.45321 8.4532C8.75914 8.14727 9.14891 7.93893 9.57325 7.85452C9.99758 7.77012 10.4374 7.81344 10.8371 7.97901C11.2368 8.14457 11.5785 8.42495 11.8188 8.78468C12.0592 9.14441 12.1875 9.56735 12.1875 9.99999C12.1875 10.5802 11.957 11.1366 11.5468 11.5468C11.1366 11.957 10.5802 12.1875 10 12.1875ZM18.8953 8.31484C18.8689 8.18279 18.8143 8.05798 18.7353 7.94892C18.6563 7.83985 18.5547 7.74909 18.4375 7.6828L16.2664 6.44452L16.2578 3.99843C16.2573 3.86271 16.2274 3.72872 16.1701 3.6057C16.1128 3.48268 16.0294 3.37358 15.9258 3.28593C15.0509 2.54568 14.0435 1.97809 12.957 1.61327C12.8331 1.57147 12.7018 1.55606 12.5716 1.56803C12.4413 1.58001 12.315 1.6191 12.2008 1.68281L10 2.91171L7.79922 1.68202C7.68485 1.61797 7.55831 1.57862 7.42777 1.56651C7.29724 1.5544 7.16562 1.5698 7.04141 1.61171C5.95466 1.97805 4.94726 2.54722 4.07266 3.28906C3.96939 3.37661 3.8863 3.48549 3.82912 3.60822C3.77193 3.73094 3.74201 3.8646 3.74141 3.99999L3.73047 6.44843L1.56251 7.68359C1.44525 7.75012 1.34372 7.84117 1.26485 7.95051C1.18598 8.05985 1.13162 8.18492 1.10547 8.31718C0.884764 9.42899 0.884764 10.5733 1.10547 11.6851C1.13182 11.8171 1.18628 11.9419 1.26514 12.0509C1.344 12.16 1.44542 12.2508 1.56251 12.3172L3.73594 13.5555L3.74454 16.0016C3.74501 16.1373 3.77494 16.2713 3.83227 16.3943C3.8896 16.5173 3.97295 16.6264 4.07657 16.7141C4.95149 17.4543 5.95887 18.0219 7.04532 18.3867C7.16925 18.4285 7.30056 18.4439 7.4308 18.4319C7.56104 18.42 7.68734 18.3809 7.80157 18.3172L10 17.0883L12.1984 18.318C12.3128 18.382 12.4394 18.4214 12.5699 18.4335C12.7004 18.4456 12.832 18.4302 12.9563 18.3883C14.043 18.0219 15.0504 17.4528 15.925 16.7109C16.0283 16.6234 16.1114 16.5145 16.1685 16.3918C16.2257 16.269 16.2557 16.1354 16.2563 16L16.2672 13.5516L18.4398 12.3164C18.5571 12.2499 18.6586 12.1588 18.7375 12.0495C18.8164 11.9401 18.8707 11.8151 18.8969 11.6828C19.1171 10.5709 19.1165 9.42654 18.8953 8.31484ZM17.1273 10.907L15.0273 12.1008C14.8781 12.1854 14.7552 12.3094 14.6719 12.4594C14.6297 12.5375 14.5852 12.6101 14.5391 12.6844C14.4465 12.8322 14.397 13.0029 14.3961 13.1773L14.3852 15.5469C13.8797 15.9272 13.3262 16.239 12.7391 16.4742L10.618 15.2875C10.4781 15.2092 10.3205 15.168 10.1602 15.168H10.1375C10.0484 15.168 9.95782 15.168 9.86876 15.168C9.70122 15.164 9.53565 15.2047 9.38907 15.2859L7.26563 16.4703C6.67747 16.2363 6.1227 15.9258 5.61563 15.5469L5.60704 13.1844C5.60631 13.0097 5.5568 12.8387 5.46407 12.6906C5.41876 12.6172 5.37344 12.5414 5.33125 12.4656C5.24792 12.3166 5.12522 12.1934 4.97657 12.1094L2.87501 10.9086C2.79336 10.3061 2.79336 9.69542 2.87501 9.09296L4.97501 7.89921C5.12396 7.81465 5.2469 7.6909 5.33047 7.5414C5.37266 7.46327 5.41719 7.38984 5.46329 7.31562C5.55587 7.16779 5.60539 6.99707 5.60626 6.82265L5.61485 4.45312C6.12044 4.07388 6.67393 3.76312 7.26094 3.5289L9.38204 4.71562C9.52855 4.79781 9.69457 4.83885 9.8625 4.83437C9.95157 4.83437 10.0422 4.83437 10.1313 4.83437C10.2988 4.83833 10.4644 4.79761 10.6109 4.7164L12.7344 3.52968C13.3225 3.76371 13.8773 4.07419 14.3844 4.45312L14.393 6.81562C14.3937 6.99031 14.4432 7.16132 14.5359 7.30937C14.5813 7.3828 14.6266 7.45859 14.6688 7.53437C14.7521 7.68339 14.8748 7.80663 15.0234 7.89062L17.125 9.08827C17.2077 9.69165 17.2085 10.3034 17.1273 10.907Z" fill="white"/>
</svg>
