<svg width="18" height="20" viewBox="0 0 18 20" fill="none" xmlns="http://www.w3.org/2000/svg">
<path d="M0.75 3.73438H17.25C17.3868 3.73438 17.5176 3.78904 17.6143 3.88574C17.711 3.98244 17.7656 4.11325 17.7656 4.25C17.7656 4.38675 17.711 4.51756 17.6143 4.61426C17.5176 4.71096 17.3868 4.76562 17.25 4.76562H16.2656V18.5C16.2656 18.8357 16.1319 19.1572 15.8945 19.3945C15.6572 19.6319 15.3357 19.7656 15 19.7656H3C2.66434 19.7656 2.34282 19.6319 2.10547 19.3945C1.86812 19.1572 1.73438 18.8357 1.73438 18.5V4.76562H0.75C0.613248 4.76562 0.482441 4.71096 0.385742 4.61426C0.289044 4.51756 0.234375 4.38675 0.234375 4.25C0.234375 4.11325 0.289044 3.98244 0.385742 3.88574C0.482441 3.78904 0.613248 3.73438 0.75 3.73438ZM2.76562 18.5C2.76562 18.5622 2.79003 18.6221 2.83398 18.666C2.87794 18.71 2.93784 18.7344 3 18.7344H15C15.0622 18.7344 15.1221 18.71 15.166 18.666C15.21 18.6221 15.2344 18.5622 15.2344 18.5V4.76562H2.76562V18.5ZM5.25 0.734375H12.75C12.8868 0.734375 13.0176 0.789044 13.1143 0.885742C13.211 0.982441 13.2656 1.11325 13.2656 1.25C13.2656 1.38675 13.211 1.51756 13.1143 1.61426C13.0176 1.71096 12.8868 1.76562 12.75 1.76562H5.25C5.11325 1.76562 4.98244 1.71096 4.88574 1.61426C4.78904 1.51756 4.73438 1.38675 4.73438 1.25C4.73438 1.11325 4.78904 0.982441 4.88574 0.885742C4.98244 0.789044 5.11325 0.734375 5.25 0.734375Z" fill="white" stroke="white" stroke-width="0.09375"/>
</svg>
