<svg width="20" height="20" viewBox="0 0 20 20" fill="none" xmlns="http://www.w3.org/2000/svg">
<path d="M10 0.296875C12.5726 0.299604 15.0393 1.3225 16.8584 3.1416C18.6775 4.9607 19.7004 7.42741 19.7031 10C19.7031 11.9191 19.1336 13.795 18.0674 15.3906C17.0012 16.9862 15.4859 18.2305 13.7129 18.9648C11.9401 19.6991 9.98939 19.8909 8.10742 19.5166C6.2252 19.1422 4.49568 18.2183 3.13867 16.8613C1.78167 15.5043 0.857795 13.7748 0.483398 11.8926C0.10913 10.0106 0.300937 8.0599 1.03516 6.28711C1.76954 4.51414 3.01376 2.99881 4.60938 1.93262C6.10528 0.933083 7.84743 0.370157 9.64062 0.303711L10 0.296875ZM13.1748 2.33496C11.6589 1.7071 9.99107 1.54231 8.38184 1.8623C6.7724 2.18244 5.29315 2.97247 4.13281 4.13281C2.97247 5.29315 2.18244 6.7724 1.8623 8.38184C1.54231 9.99107 1.7071 11.6589 2.33496 13.1748C2.96293 14.6909 4.02621 15.9868 5.39062 16.8984C6.66964 17.753 8.15919 18.2341 9.69238 18.291L10 18.2969C12.1997 18.2944 14.3088 17.4197 15.8643 15.8643C17.4197 14.3088 18.2944 12.1997 18.2969 10C18.2969 8.35904 17.8101 6.75504 16.8984 5.39062C15.9868 4.02621 14.6909 2.96293 13.1748 2.33496ZM10 13.7969C10.2859 13.7969 10.5605 13.9101 10.7627 14.1123C10.9649 14.3145 11.0781 14.5891 11.0781 14.875C11.0781 15.0881 11.0148 15.2964 10.8965 15.4736C10.778 15.6509 10.6091 15.7895 10.4121 15.8711C10.2153 15.9525 9.99891 15.9741 9.79004 15.9326C9.5809 15.891 9.38808 15.7885 9.2373 15.6377C9.08653 15.4869 8.98398 15.2941 8.94238 15.085C8.90092 14.8761 8.9225 14.6597 9.00391 14.4629C9.08551 14.2659 9.22407 14.097 9.40137 13.9785C9.57861 13.8602 9.78687 13.7969 10 13.7969ZM10 4.79688C12.047 4.79688 13.7031 6.29447 13.7031 8.125C13.7031 9.72794 12.4329 11.076 10.7412 11.3867L10.7031 11.3936V11.5C10.7031 11.6865 10.6289 11.8652 10.4971 11.9971C10.3652 12.1289 10.1865 12.2031 10 12.2031C9.81352 12.2031 9.63479 12.1289 9.50293 11.9971C9.37107 11.8652 9.29688 11.6865 9.29688 11.5V10.75C9.29688 10.5635 9.37107 10.3848 9.50293 10.2529C9.63479 10.1211 9.81352 10.0469 10 10.0469C11.2579 10.0469 12.2969 9.18974 12.2969 8.125C12.2969 7.06026 11.2579 6.20312 10 6.20312C8.74213 6.20313 7.70312 7.06026 7.70312 8.125V8.5C7.70312 8.68648 7.62893 8.86521 7.49707 8.99707C7.36521 9.12893 7.18648 9.20312 7 9.20312C6.81352 9.20312 6.63479 9.12893 6.50293 8.99707C6.37107 8.86521 6.29688 8.68648 6.29688 8.5V8.125C6.29688 6.29447 7.953 4.79688 10 4.79688Z" fill="white" stroke="white" stroke-width="0.09375"/>
</svg>
