<svg width="20" height="20" viewBox="0 0 20 20" fill="none" xmlns="http://www.w3.org/2000/svg">
<path d="M15.9945 4.05053C14.816 2.86449 13.3119 2.05507 11.6728 1.72487C10.0338 1.39468 8.33356 1.55858 6.78775 2.1958C5.24194 2.83302 3.92013 3.91486 2.98989 5.30418C2.05965 6.69351 1.56286 8.32775 1.5625 9.99975V14.3747C1.5625 14.9549 1.79297 15.5113 2.2032 15.9215C2.61344 16.3318 3.16984 16.5622 3.75 16.5622H5C5.58016 16.5622 6.13656 16.3318 6.5468 15.9215C6.95703 15.5113 7.1875 14.9549 7.1875 14.3747V11.2497C7.1875 10.6696 6.95703 10.1132 6.5468 9.70295C6.13656 9.29272 5.58016 9.06225 5 9.06225H3.50312C3.72938 7.50043 4.51053 6.07233 5.70361 5.03936C6.89669 4.0064 8.42188 3.43766 10 3.43725H10.05C11.6211 3.44397 13.1372 4.01613 14.3211 5.04904C15.5049 6.08195 16.2773 7.50657 16.4969 9.06225H15C14.4198 9.06225 13.8634 9.29272 13.4532 9.70295C13.043 10.1132 12.8125 10.6696 12.8125 11.2497V14.3747C12.8125 14.9549 13.043 15.5113 13.4532 15.9215C13.8634 16.3318 14.4198 16.5622 15 16.5622H16.25C16.5373 16.5622 16.8217 16.5057 17.0871 16.3957C17.3525 16.2858 17.5937 16.1247 17.7968 15.9215C17.9999 15.7184 18.1611 15.4773 18.271 15.2119C18.3809 14.9465 18.4375 14.662 18.4375 14.3747V9.99975C18.4418 8.89614 18.2282 7.80253 17.809 6.78164C17.3898 5.76074 16.7732 4.83263 15.9945 4.05053ZM5 10.9372C5.08288 10.9372 5.16237 10.9702 5.22097 11.0288C5.27958 11.0874 5.3125 11.1669 5.3125 11.2497V14.3747C5.3125 14.4576 5.27958 14.5371 5.22097 14.5957C5.16237 14.6543 5.08288 14.6872 5 14.6872H3.75C3.66712 14.6872 3.58763 14.6543 3.52903 14.5957C3.47042 14.5371 3.4375 14.4576 3.4375 14.3747V10.9372H5ZM16.5625 14.3747C16.5625 14.4576 16.5296 14.5371 16.471 14.5957C16.4124 14.6543 16.3329 14.6872 16.25 14.6872H15C14.9171 14.6872 14.8376 14.6543 14.779 14.5957C14.7204 14.5371 14.6875 14.4576 14.6875 14.3747V11.2497C14.6875 11.1669 14.7204 11.0874 14.779 11.0288C14.8376 10.9702 14.9171 10.9372 15 10.9372H16.5625V14.3747Z" fill="white"/>
</svg>
