<svg width="20" height="20" viewBox="0 0 20 20" fill="none" xmlns="http://www.w3.org/2000/svg">
<path d="M10 1.5625C8.33122 1.5625 6.69992 2.05735 5.31238 2.98448C3.92484 3.9116 2.84338 5.22936 2.20477 6.77111C1.56616 8.31286 1.39907 10.0094 1.72463 11.6461C2.05019 13.2828 2.85378 14.7862 4.03379 15.9662C5.2138 17.1462 6.71721 17.9498 8.35393 18.2754C9.99064 18.6009 11.6871 18.4338 13.2289 17.7952C14.7706 17.1566 16.0884 16.0752 17.0155 14.6876C17.9427 13.3001 18.4375 11.6688 18.4375 10C18.435 7.763 17.5453 5.61833 15.9635 4.03653C14.3817 2.45473 12.237 1.56498 10 1.5625ZM10 16.1719C9.30921 15.3634 8.76962 14.4372 8.40703 13.4375H11.5961C11.3898 14.0028 11.1281 14.5463 10.8148 15.0602C10.5738 15.4522 10.3013 15.824 10 16.1719ZM7.93047 11.5625C7.77578 10.5266 7.77578 9.47342 7.93047 8.4375H12.0711C12.2258 9.47342 12.2258 10.5266 12.0711 11.5625H7.93047ZM3.4375 10C3.43748 9.47341 3.50123 8.94876 3.62735 8.4375H6.03516C5.90496 9.4751 5.90496 10.5249 6.03516 11.5625H3.62735C3.50123 11.0512 3.43748 10.5266 3.4375 10ZM10 3.82812C10.6908 4.63659 11.2304 5.56283 11.593 6.5625H8.40547C8.61181 5.9972 8.8735 5.45368 9.18672 4.93984C9.42724 4.54784 9.69923 4.17604 10 3.82812ZM13.9633 8.4375H16.3711C16.6242 9.46379 16.6242 10.5362 16.3711 11.5625H13.9648C14.0951 10.5249 14.0951 9.4751 13.9648 8.4375H13.9633ZM15.5859 6.5625H13.5711C13.2896 5.61748 12.8823 4.71461 12.3602 3.87812C13.6993 4.39799 14.8324 5.34043 15.5875 6.5625H15.5859ZM7.63985 3.87812C7.11773 4.71461 6.71043 5.61748 6.42891 6.5625H4.4125C5.16761 5.34043 6.30068 4.39799 7.63985 3.87812ZM4.4125 13.4375H6.42891C6.71043 14.3825 7.11773 15.2854 7.63985 16.1219C6.30068 15.602 5.16761 14.6596 4.4125 13.4375ZM12.3602 16.1219C12.8823 15.2854 13.2896 14.3825 13.5711 13.4375H15.5875C14.8324 14.6596 13.6993 15.602 12.3602 16.1219Z" fill="white"/>
</svg>
